<svg version="1.1" id="Layer_1" xmlns="http://www.w3.org/2000/svg" xmlns:xlink="http://www.w3.org/1999/xlink" x="0px" y="0px"
	 width="100%" viewBox="0 0 2500 2025" enable-background="new 0 0 2500 2025" xml:space="preserve">
<path fill="#FFFFFF" opacity="1.000000" stroke="none" 
	d="
M1574.000000,2028.000000 
	C1049.333374,2028.000000 525.666687,2028.000000 2.000000,2028.000000 
	C2.000000,1352.666626 2.000000,677.333313 2.000000,2.000000 
	C835.333313,2.000000 1668.666626,2.000000 2502.000000,2.000000 
	C2502.000000,677.333313 2502.000000,1352.666626 2502.000000,2028.000000 
	C2193.000000,2028.000000 1884.000000,2028.000000 1574.000000,2028.000000 
M1365.453979,891.672058 
	C1370.106689,891.646973 1374.759521,891.602173 1379.412231,891.599670 
	C1452.864502,891.560059 1526.316650,891.525757 1600.211426,893.417908 
	C1600.211426,1057.659546 1600.211426,1221.901123 1600.211426,1386.723389 
	C1638.510010,1386.723389 1675.970825,1386.723389 1713.190063,1386.723389 
	C1713.563599,1385.896362 1713.809937,1385.605347 1713.810303,1385.314209 
	C1713.946899,1287.006592 1714.066284,1188.698975 1714.193237,1090.391357 
	C1714.194092,1089.728516 1714.245605,1089.055542 1714.377075,1088.408203 
	C1714.424438,1088.174805 1714.747437,1087.944336 1714.997925,1087.819336 
	C1715.267700,1087.684814 1715.599731,1087.675659 1716.257812,1087.537720 
	C1717.858032,1089.416382 1719.603394,1091.401123 1721.279785,1093.442383 
	C1799.736450,1188.973633 1878.224731,1284.479248 1956.533691,1380.131470 
	C1960.696167,1385.215942 1964.790405,1387.585693 1971.553955,1387.473511 
	C1996.877319,1387.052856 2022.211792,1387.319824 2047.542114,1387.284058 
	C2050.445068,1387.280029 2053.347656,1386.994385 2057.230713,1386.786865 
	C2057.230713,1382.621094 2057.230713,1379.041382 2057.230713,1375.461670 
	C2057.232910,1216.813843 2057.239990,1058.166016 2057.201660,899.518127 
	C2057.200928,896.233276 2056.671631,892.948486 2056.337646,888.107178 
	C2056.078857,884.138977 2055.600830,880.171143 2055.595459,876.202576 
	C2055.541992,836.554626 2055.577637,796.906555 2055.549805,757.258545 
	C2055.547119,753.737061 2055.273193,750.215698 2055.088135,745.809814 
	C1957.125610,745.809814 1860.309204,745.809814 1763.686157,745.809814 
	C1761.492798,734.642761 1761.853027,633.008118 1764.263916,624.502930 
	C1846.025635,624.502930 1928.139893,624.502930 2010.920410,624.502930 
	C2010.920410,577.222961 2010.920410,531.145081 2010.920410,483.983887 
	C1928.124512,483.983887 1845.996216,483.983887 1764.173218,483.983887 
	C1761.434326,473.933838 1761.684937,380.353424 1764.471436,371.973419 
	C1857.354126,371.973419 1950.540405,371.973419 2044.464478,371.973419 
	C2044.798218,368.244965 2045.281006,365.341431 2045.284546,362.437347 
	C2045.334717,320.790314 2045.344360,279.143188 2045.272583,237.496216 
	C2045.267090,234.346573 2044.572754,231.198120 2044.143677,227.586380 
	C2037.176636,227.234451 2031.233765,226.675568 2025.290649,226.672455 
	C1920.339966,226.617416 1815.389282,226.626419 1710.438599,226.643723 
	C1706.779419,226.644333 1703.120117,226.873596 1697.720825,226.638824 
	C1549.179810,226.581726 1400.638916,226.520706 1252.097900,226.505432 
	C1249.914062,226.505219 1247.730225,227.074478 1244.845581,227.475327 
	C1244.845581,240.314453 1244.968750,252.591599 1244.800293,264.864746 
	C1244.695679,272.490204 1244.149048,280.109650 1242.425049,286.820679 
	C1224.394409,271.238129 1204.309448,259.006897 1182.294800,249.909805 
	C1146.682739,235.193832 1109.418091,229.664963 1071.114502,229.705902 
	C1017.861206,229.762802 964.607788,229.707047 911.354431,229.737808 
	C908.378296,229.739532 905.402344,230.089294 900.523499,229.761642 
	C889.538452,229.710312 878.552856,229.562607 867.568542,229.629837 
	C850.276306,229.735672 832.984924,229.986115 813.908508,229.708435 
	C692.404236,229.708435 570.899963,229.708435 448.310486,229.708435 
	C448.310486,234.253342 448.310455,237.821915 448.310455,241.390503 
	C448.309906,453.607910 448.307007,665.825317 448.330902,878.042725 
	C448.331268,881.355408 448.662262,884.668091 448.078674,889.723267 
	C447.938721,892.376099 447.676544,895.028992 447.676239,897.681824 
	C447.656555,1057.643799 447.658417,1217.605835 447.658234,1377.567749 
	C447.658234,1380.490479 447.658234,1383.413208 447.658234,1386.720703 
	C484.013580,1386.720703 519.483215,1386.720703 554.616028,1386.720703 
	C555.110352,1385.867065 555.405518,1385.595337 555.405945,1385.323120 
	C555.546387,1290.690063 555.666382,1196.057129 555.795471,1101.424072 
	C555.796387,1100.761841 555.869812,1100.089600 556.007751,1099.443115 
	C556.056396,1099.214966 556.372559,1099.000488 556.615051,1098.868652 
	C556.902649,1098.712158 557.242554,1098.651611 557.861938,1098.452148 
	C605.708984,1177.084717 653.595154,1255.781494 701.287903,1334.160400 
	C719.182129,1334.160400 736.149902,1334.160400 753.593323,1334.160400 
	C801.939331,1253.352295 849.831055,1172.207764 898.316040,1091.422607 
	C899.083557,1091.666748 899.851135,1091.910889 900.618652,1092.155029 
	C900.618652,1190.265137 900.618652,1288.375244 900.618652,1386.591553 
	C937.138855,1386.591553 972.566223,1386.591553 1007.717896,1386.591553 
	C1007.717896,1220.686890 1007.717896,1055.496704 1007.717896,889.267761 
	C1001.923828,889.267761 996.985840,889.418030 992.060791,889.229797 
	C985.808594,888.990906 979.566895,888.477356 973.743835,886.241821 
	C973.808899,829.743958 973.874023,773.246094 973.939514,716.377686 
	C1003.305908,716.377686 1031.226562,716.377686 1059.556396,716.377686 
	C1060.925171,718.480103 1062.467773,720.628967 1063.785034,722.907898 
	C1073.286743,739.346069 1082.739014,755.812866 1092.214600,772.266174 
	C1113.825928,809.791809 1135.468872,847.299255 1157.018066,884.860596 
	C1159.437744,889.078064 1161.707764,892.150452 1167.561401,892.053833 
	C1193.544678,891.624878 1219.536865,891.738403 1245.704590,893.338196 
	C1244.563599,896.095215 1243.486328,898.880615 1242.272339,901.605103 
	C1171.758911,1059.850098 1101.231812,1218.088867 1030.727905,1376.338013 
	C1029.290283,1379.564697 1028.107422,1382.904907 1026.530640,1386.886475 
	C1066.091919,1386.886475 1104.618042,1386.886475 1144.063477,1386.886475 
	C1158.675903,1351.650513 1173.424683,1316.086182 1188.084351,1280.736328 
	C1265.593018,1280.736328 1342.448608,1280.736328 1419.332764,1280.736328 
	C1434.229736,1316.635864 1448.967163,1352.151123 1463.243652,1386.555542 
	C1504.357910,1386.555542 1543.775391,1386.555542 1583.854492,1386.555542 
	C1582.216675,1382.650391 1581.008667,1379.596313 1579.669189,1376.600952 
	C1508.804932,1218.130737 1437.926514,1059.666626 1367.077026,901.189697 
	C1365.730103,898.177002 1364.708374,895.018921 1365.453979,891.672058 
z"/>
<path fill="#03A1DE" opacity="1.000000" stroke="none" 
	d="
M902.426331,230.277069 
	C905.402344,230.089294 908.378296,229.739532 911.354431,229.737808 
	C964.607788,229.707047 1017.861206,229.762802 1071.114502,229.705902 
	C1109.418091,229.664963 1146.682739,235.193832 1182.294800,249.909805 
	C1204.309448,259.006897 1224.394409,271.238129 1243.243774,287.598877 
	C1244.789307,289.128876 1245.516235,289.880707 1246.099609,291.500549 
	C1245.906738,295.361664 1245.814453,298.354797 1245.814575,301.347931 
	C1245.817505,415.441376 1245.824097,529.534790 1245.857666,643.628235 
	C1245.859009,647.938293 1246.131958,652.248230 1246.041992,657.145874 
	C1245.646606,658.124817 1245.487793,658.516052 1244.771118,659.109558 
	C1233.030151,667.571106 1221.847168,675.830383 1209.904663,684.650635 
	C1221.589111,704.443542 1233.235718,724.172668 1245.145508,744.597534 
	C1245.900635,746.696655 1246.392578,748.099976 1246.505737,750.416016 
	C1246.013916,780.240173 1245.831299,809.151611 1245.813965,838.063171 
	C1245.803345,855.670471 1246.047729,873.277954 1246.162842,891.096802 
	C1246.147949,891.308350 1245.525879,891.655762 1245.525879,891.655762 
	C1219.536865,891.738403 1193.544678,891.624878 1167.561401,892.053833 
	C1161.707764,892.150452 1159.437744,889.078064 1157.018066,884.860596 
	C1135.468872,847.299255 1113.825928,809.791809 1092.214600,772.266174 
	C1082.739014,755.812866 1073.286743,739.346069 1063.785034,722.907898 
	C1062.467773,720.628967 1060.925171,718.480103 1059.556396,716.377686 
	C1031.226562,716.377686 1003.305908,716.377686 973.939514,716.377686 
	C973.874023,773.246094 973.808899,829.743958 972.689880,887.479065 
	C954.824097,888.754883 938.012329,888.824341 921.200500,888.809387 
	C917.211853,888.805786 913.265320,888.662598 909.347473,891.979614 
	C877.861572,891.940613 847.332092,891.940613 815.676636,891.940613 
	C815.676636,815.663818 815.676636,740.857666 815.676636,665.363708 
	C745.243469,665.363708 675.955322,665.363708 607.278931,664.896362 
	C611.536438,664.316101 615.182068,664.106812 618.827881,664.104980 
	C664.017883,664.082703 709.207947,664.116150 754.397949,664.079163 
	C774.995422,664.062256 795.592834,663.921753 817.097656,664.004639 
	C826.334290,664.201904 834.672058,664.479004 842.990234,664.191528 
	C851.156494,663.909424 859.477051,665.429932 867.589294,662.966797 
	C867.589294,615.320129 867.589294,568.174805 867.589294,520.272522 
	C850.051392,520.272522 833.166626,520.272522 816.230225,520.041626 
	C816.178528,519.810730 816.113892,519.341919 816.035522,518.456909 
	C815.962830,496.704529 816.013672,475.837036 815.963196,454.969818 
	C815.898315,428.144623 815.752075,401.319672 815.770752,374.268127 
	C815.900696,374.041656 816.171387,373.595093 817.079468,373.761353 
	C827.318359,373.964691 836.649170,374.016235 845.979980,374.034729 
	C855.311584,374.053253 864.644958,374.152588 873.974304,374.006470 
	C883.128235,373.863159 892.361572,374.666168 901.924927,373.375641 
	C901.924927,368.839600 901.925171,365.528503 901.924927,362.217407 
	C901.921326,322.224854 901.903137,282.232300 901.936340,242.239777 
	C901.939697,238.252075 902.255554,234.264633 902.426331,230.277069 
M983.474731,571.318909 
	C1003.778442,571.319336 1024.083374,571.452087 1044.385376,571.269165 
	C1056.022461,571.164368 1067.693481,571.020081 1079.282471,570.075439 
	C1121.222778,566.656616 1148.409424,542.888428 1156.910156,502.016876 
	C1161.597046,479.482758 1160.684448,456.941284 1153.711426,434.949493 
	C1146.008423,410.655334 1130.316528,393.200378 1106.189819,384.594421 
	C1096.296387,381.065491 1085.564819,378.432129 1075.135376,378.131348 
	C1042.876587,377.200958 1010.579834,377.578064 978.297668,377.504883 
	C977.082031,377.502136 975.864990,378.095337 974.361694,378.485229 
	C974.361694,442.630219 974.361694,506.377075 974.361694,570.553894 
	C977.096924,570.841614 979.349792,571.078613 983.474731,571.318909 
z"/>
<path fill="#FAAE3C" opacity="1.000000" stroke="none" 
	d="
M1699.460938,226.996307 
	C1703.120117,226.873596 1706.779419,226.644333 1710.438599,226.643723 
	C1815.389282,226.626419 1920.339966,226.617416 2025.290649,226.672455 
	C2031.233765,226.675568 2037.176636,227.234451 2044.143677,227.586380 
	C2044.572754,231.198120 2045.267090,234.346573 2045.272583,237.496216 
	C2045.344360,279.143188 2045.334717,320.790314 2045.284546,362.437347 
	C2045.281006,365.341431 2044.798218,368.244965 2044.464478,371.973419 
	C1950.540405,371.973419 1857.354126,371.973419 1764.471436,371.973419 
	C1761.684937,380.353424 1761.434326,473.933838 1764.173218,483.983887 
	C1845.996216,483.983887 1928.124512,483.983887 2010.920410,483.983887 
	C2010.920410,531.145081 2010.920410,577.222961 2010.920410,624.502930 
	C1928.139893,624.502930 1846.025635,624.502930 1764.263916,624.502930 
	C1761.853027,633.008118 1761.492798,734.642761 1763.686157,745.809814 
	C1860.309204,745.809814 1957.125610,745.809814 2055.088135,745.809814 
	C2055.273193,750.215698 2055.547119,753.737061 2055.549805,757.258545 
	C2055.577637,796.906555 2055.541992,836.554626 2055.595459,876.202576 
	C2055.600830,880.171143 2056.078857,884.138977 2055.568115,888.879639 
	C2020.252441,889.607117 1985.706177,889.512390 1951.160400,889.611572 
	C1948.398315,889.619507 1945.640259,890.966003 1942.023193,891.723267 
	C1865.656982,891.726746 1790.147705,891.706482 1714.638428,891.647461 
	C1709.680786,891.643616 1704.723267,891.343811 1699.205322,891.340698 
	C1698.445068,891.166870 1698.245117,890.833923 1699.085938,890.496460 
	C1703.298828,890.236389 1706.470947,889.980835 1709.521484,889.735107 
	C1709.521484,841.393616 1709.521484,794.270325 1709.521484,746.572388 
	C1705.556030,746.398499 1702.296021,746.137756 1699.035645,746.131897 
	C1678.716797,746.095398 1658.397583,746.052551 1638.079102,746.143433 
	C1627.437378,746.191040 1616.796631,746.506592 1605.972900,746.511719 
	C1605.790283,746.322327 1605.521973,745.869751 1605.684570,744.950317 
	C1605.783325,704.556519 1605.719360,665.082031 1605.835205,625.235474 
	C1606.014893,624.863342 1606.419067,624.138611 1607.327881,624.212280 
	C1627.362427,624.151184 1646.512817,624.778992 1665.551636,623.903137 
	C1665.551636,576.661926 1665.551636,530.891907 1665.551636,483.648438 
	C1645.305542,483.648438 1625.752808,483.648438 1606.107666,482.737305 
	C1605.951782,445.417267 1605.888306,409.008392 1605.941406,372.385132 
	C1606.057983,372.170776 1606.329102,371.764526 1607.239746,371.875305 
	C1638.053589,371.859009 1667.956665,371.733337 1697.859619,371.583740 
	C1698.131470,371.582397 1698.422974,371.286530 1698.666870,371.082428 
	C1698.919922,370.870483 1699.126343,370.602844 1699.694946,369.992859 
	C1699.815918,368.454987 1700.103271,366.495728 1700.104492,364.536255 
	C1700.132202,321.321411 1700.142700,278.106537 1700.089600,234.891754 
	C1700.086792,232.615143 1699.494263,230.339249 1699.253418,227.797928 
	C1699.330444,227.532837 1699.460938,226.996292 1699.460938,226.996307 
z"/>
<path fill="#010202" opacity="1.000000" stroke="none" 
	d="
M910.303955,892.018677 
	C913.265320,888.662598 917.211853,888.805786 921.200500,888.809387 
	C938.012329,888.824341 954.824097,888.754883 972.478271,888.399231 
	C979.566895,888.477356 985.808594,888.990906 992.060791,889.229797 
	C996.985840,889.418030 1001.923828,889.267761 1007.717896,889.267761 
	C1007.717896,1055.496704 1007.717896,1220.686890 1007.717896,1386.591553 
	C972.566223,1386.591553 937.138855,1386.591553 900.618652,1386.591553 
	C900.618652,1288.375244 900.618652,1190.265137 900.618652,1092.155029 
	C899.851135,1091.910889 899.083557,1091.666748 898.316040,1091.422607 
	C849.831055,1172.207764 801.939331,1253.352295 753.593323,1334.160400 
	C736.149902,1334.160400 719.182129,1334.160400 701.287903,1334.160400 
	C653.595154,1255.781494 605.708984,1177.084717 557.861938,1098.452148 
	C557.242554,1098.651611 556.902649,1098.712158 556.615051,1098.868652 
	C556.372559,1099.000488 556.056396,1099.214966 556.007751,1099.443115 
	C555.869812,1100.089600 555.796387,1100.761841 555.795471,1101.424072 
	C555.666382,1196.057129 555.546387,1290.690063 555.405945,1385.323120 
	C555.405518,1385.595337 555.110352,1385.867065 554.616028,1386.720703 
	C519.483215,1386.720703 484.013580,1386.720703 447.658234,1386.720703 
	C447.658234,1383.413208 447.658234,1380.490479 447.658234,1377.567749 
	C447.658417,1217.605835 447.656555,1057.643799 447.676239,897.681824 
	C447.676544,895.028992 447.938721,892.376099 449.313507,889.093506 
	C478.191071,888.481567 505.833893,888.544861 533.476379,888.470947 
	C537.902283,888.459106 542.131470,888.490173 545.540527,892.766418 
	C546.132385,894.364502 546.521912,895.288025 547.033875,896.137878 
	C599.894165,983.888733 652.764099,1071.633911 705.632202,1159.380005 
	C713.309998,1172.122925 720.981873,1184.869263 729.141663,1198.419678 
	C731.368530,1194.793335 733.126770,1192.013306 734.804565,1189.185547 
	C783.340149,1107.383423 831.900330,1025.596069 880.369751,943.754822 
	C890.522034,926.612610 900.334717,909.269287 910.303955,892.018677 
z"/>
<path fill="#01984D" opacity="1.000000" stroke="none" 
	d="
M545.395325,892.057495 
	C542.131470,888.490173 537.902283,888.459106 533.476379,888.470947 
	C505.833893,888.544861 478.191071,888.481567 449.693665,888.222229 
	C448.662262,884.668091 448.331268,881.355408 448.330902,878.042725 
	C448.307007,665.825317 448.309906,453.607910 448.310455,241.390503 
	C448.310455,237.821915 448.310486,234.253342 448.310486,229.708435 
	C570.899963,229.708435 692.404236,229.708435 814.911255,230.861557 
	C815.999756,279.208160 816.085571,326.401611 816.171387,373.595093 
	C816.171387,373.595093 815.900696,374.041656 814.866150,374.196442 
	C747.246704,374.323029 680.661804,374.285614 614.076904,374.302368 
	C611.566101,374.303009 609.055481,374.828857 606.889404,375.071381 
	C606.889404,423.750275 606.889404,471.538422 606.889404,519.640076 
	C610.188965,519.791321 612.809692,520.015564 615.430481,520.016357 
	C679.352417,520.035461 743.274292,520.040039 807.196228,520.001160 
	C810.168884,519.999329 813.141357,519.571350 816.113892,519.341919 
	C816.113892,519.341919 816.178528,519.810730 816.127319,520.956177 
	C816.114197,569.346863 816.152222,616.592102 816.190247,663.837280 
	C795.592834,663.921753 774.995422,664.062256 754.397949,664.079163 
	C709.207947,664.116150 664.017883,664.082703 618.827881,664.104980 
	C615.182068,664.106812 611.536438,664.316101 607.092773,665.895508 
	C606.294800,741.893433 606.294800,816.424805 606.294800,892.057495 
	C585.202515,892.057495 565.298889,892.057495 545.395325,892.057495 
z"/>
<path fill="#EC018C" opacity="1.000000" stroke="none" 
	d="
M1245.329102,658.907349 
	C1245.487793,658.516052 1245.646606,658.124817 1246.720703,656.992432 
	C1273.050293,634.576050 1290.395752,607.246704 1301.899292,576.302734 
	C1315.841919,538.797241 1320.913940,499.940491 1318.410278,459.867676 
	C1316.974121,436.881500 1314.369507,414.258667 1308.030884,392.109436 
	C1301.215210,368.293732 1291.970703,345.539764 1276.961304,325.638763 
	C1267.784790,313.471619 1257.699463,301.990143 1247.996826,289.251038 
	C1247.946777,278.638123 1247.767090,268.972046 1247.941528,259.312408 
	C1248.113159,249.804550 1247.059448,240.205658 1248.842041,229.980316 
	C1368.217407,229.980316 1486.786621,229.980316 1605.576172,230.901154 
	C1605.848267,276.271179 1605.906128,320.720398 1605.930176,365.169617 
	C1605.931030,366.815002 1605.603516,368.460602 1604.546631,370.092834 
	C1540.843994,370.081787 1478.023560,370.083618 1415.203247,370.087463 
	C1412.544312,370.087646 1409.885010,370.140961 1407.226562,370.109711 
	C1402.253296,370.051239 1399.926514,372.490723 1400.003174,377.447266 
	C1400.075195,382.099304 1399.996582,386.753601 1399.996216,391.406891 
	C1399.994019,419.327057 1399.941162,447.247467 1400.067993,475.167053 
	C1400.082886,478.450134 1398.297119,482.863434 1403.736450,484.121582 
	C1403.815552,484.051453 1403.939331,484.222870 1404.579346,484.754852 
	C1408.843872,485.510406 1412.468140,485.926117 1416.092651,485.928955 
	C1479.235718,485.978455 1542.378784,485.977295 1605.669922,486.914062 
	C1605.869873,515.030884 1605.983398,542.220825 1605.951538,569.410645 
	C1605.930908,586.977905 1605.697510,604.544983 1604.665039,622.099609 
	C1558.129272,622.091736 1512.487915,622.096863 1466.846558,622.100891 
	C1447.523926,622.102600 1428.200684,622.011597 1408.879028,622.147400 
	C1401.296875,622.200684 1400.069702,623.367676 1400.048584,630.841675 
	C1399.945801,667.154602 1399.965332,703.468079 1400.106445,739.780823 
	C1400.114258,741.802490 1401.598145,743.818420 1403.303589,745.930420 
	C1443.080444,746.059265 1481.948730,746.136597 1520.817017,746.116028 
	C1549.052002,746.101013 1577.286987,745.956543 1605.521973,745.869751 
	C1605.521973,745.869751 1605.790283,746.322327 1605.873535,747.389099 
	C1605.963379,786.014465 1606.001831,823.573120 1605.954224,861.131653 
	C1605.942505,870.431030 1605.652466,879.729980 1604.904297,889.201660 
	C1603.506470,889.438782 1602.694702,889.503418 1601.663818,889.294556 
	C1601.161987,889.473389 1600.879150,889.925720 1600.470215,890.716187 
	C1600.343994,891.054321 1599.768921,891.490295 1599.768921,891.490295 
	C1526.316650,891.525757 1452.864502,891.560059 1379.412231,891.599670 
	C1374.759521,891.602173 1370.106689,891.646973 1363.974731,891.575073 
	C1361.996338,890.910950 1361.497314,890.343872 1360.523926,889.248169 
	C1351.422363,888.585327 1342.794189,888.317078 1334.168091,888.375061 
	C1330.018066,888.402954 1327.528809,886.758179 1325.462769,883.142761 
	C1304.708862,846.825500 1283.887939,810.545776 1262.884277,774.372437 
	C1257.939819,765.856995 1252.238037,757.781311 1246.884644,749.503296 
	C1246.392578,748.099976 1245.900635,746.696655 1245.393921,743.697327 
	C1245.362549,714.370056 1245.345825,686.638672 1245.329102,658.907349 
z"/>
<path fill="#020202" opacity="1.000000" stroke="none" 
	d="
M1601.882935,889.568115 
	C1602.694702,889.503418 1603.506470,889.438782 1605.857666,889.449219 
	C1632.986450,889.585571 1658.576172,889.609558 1684.165283,889.742249 
	C1688.793091,889.766296 1693.418701,890.236572 1698.045288,890.500854 
	C1698.245117,890.833923 1698.445068,891.166870 1698.874023,892.077576 
	C1700.046753,894.011841 1700.903320,895.439575 1701.946655,896.714478 
	C1780.045654,992.161194 1858.153931,1087.600464 1936.306030,1183.003662 
	C1938.153564,1185.258911 1940.506104,1187.100220 1942.501709,1189.370239 
	C1942.380127,1189.605835 1943.034058,1189.780151 1943.034058,1189.780151 
	C1943.034058,1189.780151 1943.091187,1189.201050 1943.225464,1188.196655 
	C1943.374023,1091.336670 1943.392456,995.481140 1943.380493,899.625610 
	C1943.380249,896.980591 1943.054321,894.335510 1942.880249,891.690491 
	C1945.640259,890.966003 1948.398315,889.619507 1951.160400,889.611572 
	C1985.706177,889.512390 2020.252441,889.607117 2055.593750,889.657959 
	C2056.671631,892.948486 2057.200928,896.233276 2057.201660,899.518127 
	C2057.239990,1058.166016 2057.232910,1216.813843 2057.230713,1375.461670 
	C2057.230713,1379.041382 2057.230713,1382.621094 2057.230713,1386.786865 
	C2053.347656,1386.994385 2050.445068,1387.280029 2047.542114,1387.284058 
	C2022.211792,1387.319824 1996.877319,1387.052856 1971.553955,1387.473511 
	C1964.790405,1387.585693 1960.696167,1385.215942 1956.533691,1380.131470 
	C1878.224731,1284.479248 1799.736450,1188.973633 1721.279785,1093.442383 
	C1719.603394,1091.401123 1717.858032,1089.416382 1716.257812,1087.537720 
	C1715.599731,1087.675659 1715.267700,1087.684814 1714.997925,1087.819336 
	C1714.747437,1087.944336 1714.424438,1088.174805 1714.377075,1088.408203 
	C1714.245605,1089.055542 1714.194092,1089.728516 1714.193237,1090.391357 
	C1714.066284,1188.698975 1713.946899,1287.006592 1713.810303,1385.314209 
	C1713.809937,1385.605347 1713.563599,1385.896362 1713.190063,1386.723389 
	C1675.970825,1386.723389 1638.510010,1386.723389 1600.211426,1386.723389 
	C1600.211426,1221.901123 1600.211426,1057.659546 1599.990234,892.454102 
	C1599.768921,891.490295 1600.343994,891.054321 1600.864258,890.631165 
	C1601.384644,890.208008 1601.882935,889.568115 1601.882935,889.568115 
z"/>
<path fill="#020202" opacity="1.000000" stroke="none" 
	d="
M1360.998169,889.776855 
	C1361.497314,890.343872 1361.996338,890.910950 1363.015137,891.703369 
	C1364.708374,895.018921 1365.730103,898.177002 1367.077026,901.189697 
	C1437.926514,1059.666626 1508.804932,1218.130737 1579.669189,1376.600952 
	C1581.008667,1379.596313 1582.216675,1382.650391 1583.854492,1386.555542 
	C1543.775391,1386.555542 1504.357910,1386.555542 1463.243652,1386.555542 
	C1448.967163,1352.151123 1434.229736,1316.635864 1419.332764,1280.736328 
	C1342.448608,1280.736328 1265.593018,1280.736328 1188.084351,1280.736328 
	C1173.424683,1316.086182 1158.675903,1351.650513 1144.063477,1386.886475 
	C1104.618042,1386.886475 1066.091919,1386.886475 1026.530640,1386.886475 
	C1028.107422,1382.904907 1029.290283,1379.564697 1030.727905,1376.338013 
	C1101.231812,1218.088867 1171.758911,1059.850098 1242.272339,901.605103 
	C1243.486328,898.880615 1244.563599,896.095215 1245.615234,892.496948 
	C1245.525879,891.655762 1246.147949,891.308350 1247.045776,890.739258 
	C1251.895508,889.977051 1255.847534,889.615417 1259.799316,889.617249 
	C1293.532227,889.633118 1327.265259,889.714844 1360.998169,889.776855 
M1245.349365,1144.283447 
	C1238.803345,1160.071411 1232.257446,1175.859375 1225.404053,1192.388672 
	C1278.448364,1192.388672 1329.979370,1192.388672 1382.773682,1192.388672 
	C1356.600220,1129.206543 1330.774658,1066.864258 1304.049683,1002.350586 
	C1283.993896,1050.808716 1264.947021,1096.829102 1245.349365,1144.283447 
z"/>
<path fill="#005738" opacity="1.000000" stroke="none" 
	d="
M817.079468,373.761353 
	C816.085571,326.401611 815.999756,279.208160 815.803589,231.095001 
	C832.984924,229.986115 850.276306,229.735672 867.568542,229.629837 
	C878.552856,229.562607 889.538452,229.710312 901.474915,230.019348 
	C902.255554,234.264633 901.939697,238.252075 901.936340,242.239777 
	C901.903137,282.232300 901.921326,322.224854 901.924927,362.217407 
	C901.925171,365.528503 901.924927,368.839600 901.924927,373.375641 
	C892.361572,374.666168 883.128235,373.863159 873.974304,374.006470 
	C864.644958,374.152588 855.311584,374.053253 845.979980,374.034729 
	C836.649170,374.016235 827.318359,373.964691 817.079468,373.761353 
z"/>
<path fill="#DA3195" opacity="1.000000" stroke="none" 
	d="
M1605.355957,229.980286 
	C1486.786621,229.980316 1368.217407,229.980316 1248.842041,229.980316 
	C1247.059448,240.205658 1248.113159,249.804550 1247.941528,259.312408 
	C1247.767090,268.972046 1247.946777,278.638123 1247.536499,289.296356 
	C1247.101562,290.291351 1246.243164,290.632538 1246.243164,290.632568 
	C1245.516235,289.880707 1244.789307,289.128876 1243.931641,288.054413 
	C1244.149048,280.109650 1244.695679,272.490204 1244.800293,264.864746 
	C1244.968750,252.591599 1244.845581,240.314453 1244.845581,227.475327 
	C1247.730225,227.074478 1249.914062,226.505219 1252.097900,226.505432 
	C1400.638916,226.520706 1549.179810,226.581726 1698.590820,226.817566 
	C1699.460938,226.996292 1699.330444,227.532837 1698.397217,227.755783 
	C1670.238892,227.982681 1643.013550,227.915726 1615.789307,228.078506 
	C1612.307861,228.099319 1608.833618,229.317032 1605.355957,229.980286 
z"/>
<path fill="#FEFEFE" opacity="1.000000" stroke="none" 
	d="
M545.540527,892.766418 
	C565.298889,892.057495 585.202515,892.057495 606.294800,892.057495 
	C606.294800,816.424805 606.294800,741.893433 606.480957,666.362915 
	C675.955322,665.363708 745.243469,665.363708 815.676636,665.363708 
	C815.676636,740.857666 815.676636,815.663818 815.676636,891.940613 
	C847.332092,891.940613 877.861572,891.940613 909.347473,891.979614 
	C900.334717,909.269287 890.522034,926.612610 880.369751,943.754822 
	C831.900330,1025.596069 783.340149,1107.383423 734.804565,1189.185547 
	C733.126770,1192.013306 731.368530,1194.793335 729.141663,1198.419678 
	C720.981873,1184.869263 713.309998,1172.122925 705.632202,1159.380005 
	C652.764099,1071.633911 599.894165,983.888733 547.033875,896.137878 
	C546.521912,895.288025 546.132385,894.364502 545.540527,892.766418 
z"/>
<path fill="#FDFEFE" opacity="1.000000" stroke="none" 
	d="
M982.538696,571.317261 
	C979.349792,571.078613 977.096924,570.841614 974.361694,570.553894 
	C974.361694,506.377075 974.361694,442.630219 974.361694,378.485229 
	C975.864990,378.095337 977.082031,377.502136 978.297668,377.504883 
	C1010.579834,377.578064 1042.876587,377.200958 1075.135376,378.131348 
	C1085.564819,378.432129 1096.296387,381.065491 1106.189819,384.594421 
	C1130.316528,393.200378 1146.008423,410.655334 1153.711426,434.949493 
	C1160.684448,456.941284 1161.597046,479.482758 1156.910156,502.016876 
	C1148.409424,542.888428 1121.222778,566.656616 1079.282471,570.075439 
	C1067.693481,571.020081 1056.022461,571.164368 1044.385376,571.269165 
	C1024.083374,571.452087 1003.778442,571.319336 982.538696,571.317261 
z"/>
<path fill="#FCFFFE" opacity="1.000000" stroke="none" 
	d="
M816.035522,518.456909 
	C813.141357,519.571350 810.168884,519.999329 807.196228,520.001160 
	C743.274292,520.040039 679.352417,520.035461 615.430481,520.016357 
	C612.809692,520.015564 610.188965,519.791321 606.889404,519.640076 
	C606.889404,471.538422 606.889404,423.750275 606.889404,375.071381 
	C609.055481,374.828857 611.566101,374.303009 614.076904,374.302368 
	C680.661804,374.285614 747.246704,374.323029 814.736206,374.422913 
	C815.752075,401.319672 815.898315,428.144623 815.963196,454.969818 
	C816.013672,475.837036 815.962830,496.704529 816.035522,518.456909 
z"/>
<path fill="#5B2D89" opacity="1.000000" stroke="none" 
	d="
M1246.099609,291.500549 
	C1246.243164,290.632538 1247.101562,290.291351 1247.561890,290.246033 
	C1257.699463,301.990143 1267.784790,313.471619 1276.961304,325.638763 
	C1291.970703,345.539764 1301.215210,368.293732 1308.030884,392.109436 
	C1314.369507,414.258667 1316.974121,436.881500 1318.410278,459.867676 
	C1320.913940,499.940491 1315.841919,538.797241 1301.899292,576.302734 
	C1290.395752,607.246704 1273.050293,634.576050 1246.957153,656.404785 
	C1246.131958,652.248230 1245.859009,647.938293 1245.857666,643.628235 
	C1245.824097,529.534790 1245.817505,415.441376 1245.814575,301.347931 
	C1245.814453,298.354797 1245.906738,295.361664 1246.099609,291.500549 
z"/>
<path fill="#005838" opacity="1.000000" stroke="none" 
	d="
M817.097656,664.004639 
	C816.152222,616.592102 816.114197,569.346863 816.178955,521.187134 
	C833.166626,520.272522 850.051392,520.272522 867.589294,520.272522 
	C867.589294,568.174805 867.589294,615.320129 867.589294,662.966797 
	C859.477051,665.429932 851.156494,663.909424 842.990234,664.191528 
	C834.672058,664.479004 826.334290,664.201904 817.097656,664.004639 
z"/>
<path fill="#5B2D87" opacity="1.000000" stroke="none" 
	d="
M1360.523926,889.248169 
	C1327.265259,889.714844 1293.532227,889.633118 1259.799316,889.617249 
	C1255.847534,889.615417 1251.895508,889.977051 1247.060547,890.527710 
	C1246.047729,873.277954 1245.803345,855.670471 1245.813965,838.063171 
	C1245.831299,809.151611 1246.013916,780.240173 1246.505737,750.416016 
	C1252.238037,757.781311 1257.939819,765.856995 1262.884277,774.372437 
	C1283.887939,810.545776 1304.708862,846.825500 1325.462769,883.142761 
	C1327.528809,886.758179 1330.018066,888.402954 1334.168091,888.375061 
	C1342.794189,888.317078 1351.422363,888.585327 1360.523926,889.248169 
z"/>
<path fill="#F4F1F8" opacity="1.000000" stroke="none" 
	d="
M1244.771118,659.109558 
	C1245.345825,686.638672 1245.362549,714.370056 1245.130859,743.001587 
	C1233.235718,724.172668 1221.589111,704.443542 1209.904663,684.650635 
	C1221.847168,675.830383 1233.030151,667.571106 1244.771118,659.109558 
z"/>
<path fill="#FEFEFE" opacity="1.000000" stroke="none" 
	d="
M1942.023193,891.723267 
	C1943.054321,894.335510 1943.380249,896.980591 1943.380493,899.625610 
	C1943.392456,995.481140 1943.374023,1091.336670 1943.150024,1187.817139 
	C1942.940308,1188.442139 1942.623169,1189.134644 1942.623169,1189.134644 
	C1940.506104,1187.100220 1938.153564,1185.258911 1936.306030,1183.003662 
	C1858.153931,1087.600464 1780.045654,992.161194 1701.946655,896.714478 
	C1700.903320,895.439575 1700.046753,894.011841 1699.434448,891.918579 
	C1704.723267,891.343811 1709.680786,891.643616 1714.638428,891.647461 
	C1790.147705,891.706482 1865.656982,891.726746 1942.023193,891.723267 
z"/>
<path fill="#FEFCFD" opacity="1.000000" stroke="none" 
	d="
M1605.684570,744.950317 
	C1577.286987,745.956543 1549.052002,746.101013 1520.817017,746.116028 
	C1481.948730,746.136597 1443.080444,746.059265 1403.254761,745.005981 
	C1402.297363,704.813232 1402.297363,665.638428 1402.297363,625.235229 
	C1407.213745,625.235229 1411.111206,625.235168 1415.008667,625.235229 
	C1474.902710,625.236206 1534.796753,625.230774 1594.690796,625.254028 
	C1598.345703,625.255432 1602.000488,625.484497 1605.655518,625.607605 
	C1605.719360,665.082031 1605.783325,704.556519 1605.684570,744.950317 
z"/>
<path fill="#FEFDFE" opacity="1.000000" stroke="none" 
	d="
M1605.824951,372.599518 
	C1605.888306,409.008392 1605.951782,445.417267 1605.917236,482.783691 
	C1605.819214,483.741211 1605.576538,484.040924 1604.683228,483.945862 
	C1540.829346,483.856293 1477.868896,483.855957 1414.908325,483.882507 
	C1411.251953,483.884033 1407.595703,484.104340 1403.939331,484.222839 
	C1403.939331,484.222870 1403.815552,484.051453 1403.244873,483.425171 
	C1402.533813,481.478394 1402.271606,480.158051 1402.270630,478.837524 
	C1402.245117,445.887817 1402.236572,412.938110 1402.267334,379.988434 
	C1402.269409,377.750610 1402.604004,375.513153 1402.864746,372.270721 
	C1406.989990,372.270721 1410.560425,372.270630 1414.130737,372.270721 
	C1469.712646,372.272156 1525.294434,372.260284 1580.876343,372.289520 
	C1589.192505,372.293884 1597.508667,372.491364 1605.824951,372.599518 
z"/>
<path fill="#BC372E" opacity="1.000000" stroke="none" 
	d="
M1699.085938,890.496399 
	C1693.418701,890.236572 1688.793091,889.766296 1684.165283,889.742249 
	C1658.576172,889.609558 1632.986450,889.585571 1606.443604,889.276794 
	C1605.652466,879.729980 1605.942505,870.431030 1605.954224,861.131653 
	C1606.001831,823.573120 1605.963379,786.014465 1606.056152,747.578491 
	C1616.796631,746.506592 1627.437378,746.191040 1638.079102,746.143433 
	C1658.397583,746.052551 1678.716797,746.095398 1699.035645,746.131897 
	C1702.296021,746.137756 1705.556030,746.398499 1709.521484,746.572388 
	C1709.521484,794.270325 1709.521484,841.393616 1709.521484,889.735107 
	C1706.470947,889.980835 1703.298828,890.236389 1699.085938,890.496399 
z"/>
<path fill="#BC372E" opacity="1.000000" stroke="none" 
	d="
M1605.576172,230.901123 
	C1608.833618,229.317032 1612.307861,228.099319 1615.789307,228.078506 
	C1643.013550,227.915726 1670.238892,227.982681 1698.320190,228.020874 
	C1699.494263,230.339249 1700.086792,232.615143 1700.089600,234.891754 
	C1700.142700,278.106537 1700.132202,321.321411 1700.104492,364.536255 
	C1700.103271,366.495728 1699.815918,368.454987 1699.694946,369.992859 
	C1699.126343,370.602844 1698.919922,370.870483 1698.666870,371.082428 
	C1698.422974,371.286530 1698.131470,371.582397 1697.859619,371.583740 
	C1667.956665,371.733337 1638.053589,371.859009 1606.998535,371.468903 
	C1605.846436,370.951752 1605.429077,370.106110 1605.429077,370.106110 
	C1605.603516,368.460602 1605.931030,366.815002 1605.930176,365.169617 
	C1605.906128,320.720398 1605.848267,276.271179 1605.576172,230.901123 
z"/>
<path fill="#BD372E" opacity="1.000000" stroke="none" 
	d="
M1605.559570,622.112122 
	C1605.697510,604.544983 1605.930908,586.977905 1605.951538,569.410645 
	C1605.983398,542.220825 1605.869873,515.030884 1605.766479,486.429657 
	C1605.714844,485.018341 1605.576538,484.040924 1605.576538,484.040924 
	C1605.576538,484.040924 1605.819214,483.741211 1606.009521,483.694824 
	C1625.752808,483.648438 1645.305542,483.648438 1665.551636,483.648438 
	C1665.551636,530.891907 1665.551636,576.661926 1665.551636,623.903137 
	C1646.512817,624.778992 1627.362427,624.151184 1607.104614,623.708008 
	C1605.834839,622.790833 1605.697144,622.451477 1605.559570,622.112122 
z"/>
<path fill="#DA3195" opacity="1.000000" stroke="none" 
	d="
M1604.665039,622.099609 
	C1605.697144,622.451477 1605.834839,622.790833 1606.195801,623.634399 
	C1606.419067,624.138611 1606.014893,624.863342 1605.835205,625.235474 
	C1602.000488,625.484497 1598.345703,625.255432 1594.690796,625.254028 
	C1534.796753,625.230774 1474.902710,625.236206 1415.008667,625.235229 
	C1411.111206,625.235168 1407.213745,625.235229 1402.297363,625.235229 
	C1402.297363,665.638428 1402.297363,704.813232 1402.346191,744.912537 
	C1401.598145,743.818420 1400.114258,741.802490 1400.106445,739.780823 
	C1399.965332,703.468079 1399.945801,667.154602 1400.048584,630.841675 
	C1400.069702,623.367676 1401.296875,622.200684 1408.879028,622.147400 
	C1428.200684,622.011597 1447.523926,622.102600 1466.846558,622.100891 
	C1512.487915,622.096863 1558.129272,622.091736 1604.665039,622.099609 
z"/>
<path fill="#DA3195" opacity="1.000000" stroke="none" 
	d="
M1604.546631,370.092834 
	C1605.429077,370.106110 1605.846436,370.951752 1606.087769,371.358154 
	C1606.329102,371.764526 1606.057983,372.170776 1605.941406,372.385132 
	C1597.508667,372.491364 1589.192505,372.293884 1580.876343,372.289520 
	C1525.294434,372.260284 1469.712646,372.272156 1414.130737,372.270721 
	C1410.560425,372.270630 1406.989990,372.270721 1402.864746,372.270721 
	C1402.604004,375.513153 1402.269409,377.750610 1402.267334,379.988434 
	C1402.236572,412.938110 1402.245117,445.887817 1402.270630,478.837524 
	C1402.271606,480.158051 1402.533813,481.478394 1403.165771,483.495300 
	C1398.297119,482.863434 1400.082886,478.450134 1400.067993,475.167053 
	C1399.941162,447.247467 1399.994019,419.327057 1399.996216,391.406891 
	C1399.996582,386.753601 1400.075195,382.099304 1400.003174,377.447266 
	C1399.926514,372.490723 1402.253296,370.051239 1407.226562,370.109711 
	C1409.885010,370.140961 1412.544312,370.087646 1415.203247,370.087463 
	C1478.023560,370.083618 1540.843994,370.081787 1604.546631,370.092834 
z"/>
<path fill="#DA3195" opacity="1.000000" stroke="none" 
	d="
M1604.683228,483.945862 
	C1605.576538,484.040924 1605.714844,485.018341 1605.618408,485.502747 
	C1542.378784,485.977295 1479.235718,485.978455 1416.092651,485.928955 
	C1412.468140,485.926117 1408.843872,485.510406 1404.579346,484.754822 
	C1407.595703,484.104340 1411.251953,483.884033 1414.908325,483.882507 
	C1477.868896,483.855957 1540.829346,483.856293 1604.683228,483.945862 
z"/>
<path fill="#BC372E" opacity="1.000000" stroke="none" 
	d="
M1601.663818,889.294556 
	C1601.882935,889.568115 1601.384644,890.208008 1600.990479,890.293091 
	C1600.879150,889.925720 1601.161987,889.473389 1601.663818,889.294556 
z"/>
<path fill="#FAAE3C" opacity="1.000000" stroke="none" 
	d="
M1942.501709,1189.370239 
	C1942.623169,1189.134644 1942.940308,1188.442139 1943.015747,1188.821533 
	C1943.091187,1189.201050 1943.034058,1189.780151 1943.034058,1189.780151 
	C1943.034058,1189.780151 1942.380127,1189.605835 1942.501709,1189.370239 
z"/>
<path fill="#FCFDFD" opacity="1.000000" stroke="none" 
	d="
M1245.624756,1143.566406 
	C1264.947021,1096.829102 1283.993896,1050.808716 1304.049683,1002.350586 
	C1330.774658,1066.864258 1356.600220,1129.206543 1382.773682,1192.388672 
	C1329.979370,1192.388672 1278.448364,1192.388672 1225.404053,1192.388672 
	C1232.257446,1175.859375 1238.803345,1160.071411 1245.624756,1143.566406 
z"/>
</svg>