<svg version="1.1" id="Layer_1" xmlns="http://www.w3.org/2000/svg" xmlns:xlink="http://www.w3.org/1999/xlink" x="0px" y="0px"
	 width="100%" viewBox="0 0 360 270" enable-background="new 0 0 360 270" xml:space="preserve">
<path fill="#FEFEFE" opacity="1.000000" stroke="none" 
	d="
M187.000000,271.000000 
	C124.666695,271.000000 62.833393,271.000000 1.000066,271.000000 
	C1.000044,181.000076 1.000044,91.000145 1.000022,1.000163 
	C120.999870,1.000109 240.999741,1.000109 360.999695,1.000054 
	C360.999817,90.999825 360.999817,180.999649 360.999908,270.999756 
	C303.166656,271.000000 245.333328,271.000000 187.000000,271.000000 
M284.028351,171.855347 
	C284.785370,172.528900 286.084167,173.123856 286.195465,173.891098 
	C286.501129,175.998260 286.178802,178.190216 286.384369,180.321671 
	C286.454559,181.049194 287.355286,181.696609 287.876526,182.380630 
	C288.547394,181.855316 289.771027,181.356369 289.797546,180.800308 
	C289.946899,177.668289 290.160187,174.455246 289.579224,171.417572 
	C289.373047,170.339676 287.084045,169.397003 285.578766,168.920105 
	C284.514099,168.582809 283.168365,169.132751 281.096008,169.144714 
	C280.693481,172.740784 280.185211,176.330734 279.976471,179.938019 
	C279.934113,180.670349 281.021149,181.468048 281.587524,182.235611 
	C282.090240,181.403061 282.950562,180.602203 283.027679,179.731949 
	C283.247314,177.253372 283.147888,174.746506 284.028351,171.855347 
M299.097626,181.136612 
	C299.376343,181.030869 299.664307,180.989212 300.482086,181.494064 
	C303.544800,183.319427 306.847992,183.633362 308.660889,180.312653 
	C310.674591,176.624039 307.653900,175.156418 304.633636,174.004715 
	C303.952332,173.744934 303.634064,172.533157 302.471588,170.680466 
	C305.489136,171.875305 307.016083,172.479919 309.267578,173.371429 
	C306.928558,167.905533 304.267853,167.492569 299.340454,170.916794 
	C298.994141,170.951385 298.647858,170.985977 298.384766,170.190521 
	C297.797577,169.468704 297.163147,168.779572 296.635254,168.016724 
	C295.985596,167.077850 295.424774,166.077515 294.825562,165.103729 
	C294.241577,166.077026 293.207825,167.026321 293.154419,168.027908 
	C292.962097,171.632599 292.943146,175.264206 293.154755,178.868240 
	C293.406281,183.151535 295.507172,183.592056 299.097626,181.136612 
M76.236320,169.357788 
	C73.966347,169.357788 71.696373,169.357788 69.092232,169.357788 
	C69.092232,172.459091 68.895996,175.271210 69.171219,178.036407 
	C69.319008,179.521271 70.276680,180.925507 70.868896,182.366135 
	C71.488266,180.939590 72.725494,179.461456 72.611526,178.096130 
	C72.265121,173.945953 73.476059,171.423721 78.315758,172.064316 
	C78.400925,174.216797 78.454552,176.371109 78.578033,178.521393 
	C78.812675,182.607605 79.409866,182.930557 82.862793,181.744507 
	C82.862793,177.702881 82.862793,173.977020 82.862793,170.251160 
	C83.101387,169.273911 82.538193,168.213943 81.899628,167.201508 
	C81.439697,166.472290 80.879333,165.806412 80.363777,165.112289 
	C79.756691,165.878784 79.109894,166.617737 78.553871,167.419647 
	C78.015526,168.196075 77.570541,169.037277 76.236320,169.357788 
M257.233978,169.791763 
	C254.546951,169.550354 251.859909,169.308929 248.847336,169.038269 
	C248.847336,172.952774 248.718109,176.247223 248.928848,179.519791 
	C248.989288,180.458359 250.032349,181.333679 250.624847,182.237991 
	C251.108078,181.393219 251.911743,180.583618 252.009140,179.696472 
	C252.224625,177.733658 251.909576,175.708786 252.166397,173.755966 
	C252.289581,172.819229 253.220505,171.988739 254.298523,170.312683 
	C256.142670,181.739304 256.142670,181.739304 257.568787,181.716171 
	C258.036621,178.334427 258.496979,175.006851 259.848846,171.451431 
	C260.519775,172.332047 261.619629,173.145065 261.771332,174.107529 
	C262.076813,176.045624 261.697540,178.086823 261.949646,180.040482 
	C262.053101,180.842255 263.058899,181.527618 263.654236,182.265930 
	C264.142151,181.587921 264.968689,180.948517 265.051208,180.224319 
	C265.256012,178.427078 265.137817,176.590973 265.119751,174.770767 
	C265.058105,168.555359 263.829956,167.764709 257.233978,169.791763 
M59.569519,173.953430 
	C58.803551,174.650192 58.037582,175.346970 56.731247,176.570511 
	C55.679783,182.252289 55.679783,182.252289 65.994774,181.899323 
	C65.994774,178.772415 66.318871,175.589706 65.845749,172.530289 
	C65.637283,171.182281 63.946419,169.288559 62.681664,169.069733 
	C60.999439,168.778687 58.712044,169.439972 57.382305,170.537430 
	C56.470940,171.289581 55.230080,174.249664 59.569519,173.953430 
M120.879120,174.734497 
	C121.296860,176.251038 121.391396,177.982544 122.218880,179.226532 
	C123.134071,180.602386 124.600128,182.210022 126.047760,182.466476 
	C127.516808,182.726730 129.455246,181.722916 130.769958,180.722961 
	C131.234940,180.369278 130.466980,178.394562 130.425735,178.146194 
	C130.931274,175.639282 131.992508,173.606262 131.444916,172.199448 
	C130.878052,170.743088 128.718872,168.968613 127.313538,169.016510 
	C125.598793,169.074936 123.840019,170.757568 122.300568,171.988297 
	C121.322433,172.770279 120.708618,174.007965 119.249641,174.687897 
	C117.438431,173.572296 115.446716,172.657776 113.889091,171.259644 
	C113.060051,170.515503 112.982399,168.934250 112.565590,167.730865 
	C113.632774,167.928436 114.731606,168.026169 115.758278,168.351562 
	C116.792557,168.679352 117.755150,169.233307 119.079582,169.839371 
	C119.357521,165.286209 116.685577,164.156372 114.044235,164.477158 
	C112.154358,164.706680 109.749771,166.312881 108.871834,167.985580 
	C107.441544,170.710632 108.988754,173.075821 111.811584,174.371658 
	C112.713013,174.785477 113.825455,174.969269 114.484474,175.619812 
	C115.208984,176.335007 115.668365,177.428406 115.934486,178.438385 
	C116.026703,178.788391 115.083054,179.846909 114.805168,179.780151 
	C113.832085,179.546341 112.928413,178.990082 112.025757,178.505295 
	C110.919121,177.910904 109.840034,177.265244 108.147499,176.297958 
	C108.433876,182.027725 111.325027,183.030136 115.048935,182.588013 
	C119.718513,182.033630 120.263329,178.696396 120.879120,174.734497 
M274.692505,93.110771 
	C269.911255,92.140732 267.796326,94.250580 267.199890,98.960060 
	C266.637848,103.398094 265.466278,107.760361 264.533936,112.149818 
	C261.747589,125.267662 258.947113,138.382492 256.020905,152.114365 
	C258.349579,152.114365 260.174255,151.895096 261.926575,152.158020 
	C266.143829,152.790771 267.830231,151.130936 268.292114,146.877991 
	C268.809662,142.112213 270.173645,137.436859 271.194092,132.727539 
	C272.901123,124.849449 274.627869,116.975632 276.346283,109.100006 
	C276.805237,109.141220 277.264160,109.182434 277.723083,109.223640 
	C277.723083,123.421288 277.723083,137.618927 277.723083,151.705475 
	C286.930328,152.611908 286.892395,152.595779 289.971069,145.356476 
	C292.704681,138.928452 295.527985,132.538452 298.325012,126.137520 
	C300.603180,120.923973 302.901154,115.719078 305.190369,110.510353 
	C305.508789,110.624809 305.827240,110.739265 306.145660,110.853729 
	C303.314606,124.400345 300.483551,137.946960 297.579742,151.841782 
	C299.672058,151.962845 300.998749,151.902603 302.270966,152.137405 
	C307.227020,153.052124 309.168854,150.872665 309.991791,146.034576 
	C311.522888,137.033417 313.741547,128.150345 315.622223,119.207230 
	C317.414581,110.684143 319.140991,102.147179 320.904968,93.574593 
	C303.877686,91.543915 303.877869,91.543991 297.825195,106.341522 
	C297.132599,108.034698 296.452240,109.733086 295.739349,111.417686 
	C292.794220,118.376945 289.838715,125.331833 286.887024,132.288330 
	C286.576965,132.220871 286.266907,132.153427 285.956848,132.085968 
	C285.956848,119.258408 285.956848,106.430847 285.956848,93.110847 
	C282.223389,93.110847 278.928589,93.110847 274.692505,93.110771 
M70.559540,136.980881 
	C69.581268,141.801926 68.602997,146.622986 67.489044,152.112671 
	C70.373474,152.112671 72.519249,151.918381 74.616127,152.155869 
	C78.223152,152.564362 79.814117,151.430359 80.469040,147.541122 
	C81.902138,139.030716 84.052193,130.642395 85.854973,122.192581 
	C87.883163,112.686234 89.851479,103.167114 91.959236,93.112579 
	C89.482460,93.112579 87.651215,93.317154 85.882225,93.072197 
	C81.499107,92.465233 79.124710,93.762878 78.649605,98.622681 
	C78.199661,103.225052 77.039902,107.791214 75.795738,112.262955 
	C75.411873,113.642616 73.844170,115.509995 72.614166,115.680573 
	C69.219559,116.151352 65.716949,115.843399 61.539906,115.843399 
	C63.103508,108.021378 64.540871,100.830879 66.036819,93.347313 
	C61.730232,93.347313 58.126568,93.347313 54.081490,93.347313 
	C49.939816,112.837608 45.827396,132.190247 41.653378,151.832764 
	C46.197784,151.832764 49.788029,151.832764 53.596836,151.832764 
	C55.518749,143.107101 57.393150,134.597137 59.196278,126.410774 
	C63.950588,126.410774 67.995964,126.410774 72.481972,126.410774 
	C71.859833,129.980148 71.321838,133.066772 70.559540,136.980881 
M180.000931,151.901352 
	C192.309387,155.865753 203.796890,152.321808 209.117065,142.252823 
	C215.122147,130.887589 217.442917,118.422211 217.695023,105.699837 
	C217.849976,97.879631 213.959747,93.735069 206.856323,92.328972 
	C195.183899,90.018440 184.932831,94.933945 180.269623,105.874947 
	C175.678864,116.645966 173.262421,128.032455 173.113846,139.798935 
	C173.051346,144.748642 174.751358,148.930618 180.000931,151.901352 
M226.545471,152.177399 
	C232.036163,152.177353 237.526871,152.177933 243.017563,152.177094 
	C250.964951,152.175903 252.053635,150.921509 251.269379,142.221619 
	C248.007263,142.221619 244.703506,142.221603 241.399750,142.221603 
	C237.972488,142.221603 234.545227,142.221619 231.131393,142.221619 
	C231.127594,127.988617 232.300385,126.766830 245.232025,126.766167 
	C245.731186,126.766144 246.230331,126.766304 246.729492,126.766090 
	C254.236664,126.762856 255.472122,125.243187 254.386429,116.706970 
	C248.411209,116.706970 242.352234,116.706970 235.865265,116.706970 
	C236.629227,113.037712 237.537262,110.002586 237.830048,106.909233 
	C238.143219,103.600571 239.770859,102.863617 242.769501,102.964523 
	C248.380737,103.153351 254.002869,103.018829 259.740814,103.018829 
	C260.472137,99.491585 261.090088,96.511093 261.802063,93.077133 
	C253.420288,93.077133 245.786667,93.077110 238.153030,93.077141 
	C228.802094,93.077179 228.806351,93.078125 226.758575,102.483307 
	C226.299469,104.592010 225.769333,106.685432 225.322510,108.796600 
	C222.305954,123.048683 219.303040,137.303650 216.164902,152.177658 
	C219.647888,152.177658 222.607788,152.177658 226.545471,152.177399 
M133.063110,130.520340 
	C131.614517,137.561188 130.165909,144.602036 128.580490,152.307861 
	C133.452789,151.335541 138.059021,154.514053 140.850647,149.321075 
	C146.745071,156.134750 157.433716,153.199493 161.026611,147.840546 
	C167.475586,138.221664 170.011734,127.400543 169.292465,116.092346 
	C168.741684,107.433212 160.913315,103.911224 153.179962,108.064217 
	C151.883331,108.760536 150.725571,109.715469 148.970932,110.915131 
	C150.152100,104.816566 151.228683,99.257973 152.368866,93.371086 
	C150.395279,93.251930 149.238663,93.287712 148.120804,93.096710 
	C142.666748,92.164818 140.325287,94.219070 139.440033,99.925064 
	C137.888367,109.926476 135.317017,119.769699 133.063110,130.520340 
M90.761703,135.165237 
	C90.186630,138.259750 89.275879,141.336243 89.108482,144.452652 
	C88.789833,150.385330 91.451714,153.363571 97.354233,153.031296 
	C101.478439,152.799149 105.532379,151.318634 109.801750,150.354111 
	C110.470032,150.719345 111.754181,151.961792 113.140572,152.088898 
	C120.701393,152.782028 120.766869,152.699936 122.417099,145.087799 
	C125.050430,132.940903 127.599548,120.775757 130.342651,107.873337 
	C127.826241,107.873337 125.856018,108.063416 123.936249,107.833031 
	C120.159752,107.379814 118.288124,108.527687 117.634415,112.653397 
	C116.440994,120.185349 114.674713,127.634766 112.920654,135.065079 
	C112.323395,137.595154 111.618080,140.554398 109.899963,142.225372 
	C108.451530,143.634048 105.409561,143.954117 103.190834,143.705215 
	C102.471008,143.624481 101.788467,140.236359 101.704231,138.333801 
	C101.626076,136.568420 102.377449,134.768478 102.748650,132.980667 
	C104.450226,124.785172 106.146568,116.588593 107.952324,107.873405 
	C105.282829,107.873405 103.293076,108.054970 101.349121,107.833870 
	C97.804047,107.430687 95.983711,108.477654 95.364082,112.367928 
	C94.190239,119.737839 92.433609,127.014931 90.761703,135.165237 
M207.190552,180.621658 
	C209.696976,176.075104 210.286652,170.873291 207.310379,166.995361 
	C205.645248,164.825790 201.005127,164.939499 197.297028,163.911087 
	C197.297028,170.775192 197.297028,176.332062 197.297028,182.764969 
	C200.627182,182.200562 203.626526,181.692230 207.190552,180.621658 
M47.785824,179.136429 
	C47.584423,176.800858 47.691925,175.113403 50.959530,175.008179 
	C54.151432,174.905411 55.317822,172.362045 55.076504,169.343231 
	C54.821972,166.159058 52.962158,164.669968 49.803585,164.705887 
	C48.013237,164.726257 46.222466,164.709564 44.322174,164.709564 
	C44.322174,170.791885 44.322174,176.458328 44.322174,182.124756 
	C44.702045,182.358337 45.081913,182.591919 45.461784,182.825485 
	C46.235924,181.870483 47.010063,180.915466 47.785824,179.136429 
M179.691940,168.966888 
	C177.572067,169.773224 173.968491,170.187943 173.631454,171.464859 
	C172.854126,174.409882 173.156586,177.937546 174.109543,180.875809 
	C174.431305,181.867950 178.040955,182.066742 180.126770,181.996658 
	C180.574814,181.981583 180.962906,179.244720 181.310150,177.745804 
	C181.413025,177.301682 181.071991,176.545135 181.289383,176.368332 
	C184.877609,173.450562 182.089386,171.396408 179.691940,168.966888 
M273.904114,182.482361 
	C276.680176,180.447418 278.228699,172.842209 276.133698,170.454590 
	C273.891632,167.899353 270.493378,167.723297 268.902435,170.285538 
	C267.442902,172.636230 267.152313,176.298782 267.733307,179.095215 
	C268.046753,180.603851 271.265930,181.508743 273.904114,182.482361 
M239.054886,174.481384 
	C238.221603,172.725464 241.120956,168.722931 236.072449,169.308075 
	C235.313858,184.956818 235.248444,182.881927 245.704254,181.841110 
	C245.704254,178.966934 245.869705,176.013153 245.631088,173.092392 
	C245.519745,171.729385 244.626022,170.430313 244.086884,169.102264 
	C243.489883,170.373062 242.593979,171.591827 242.361649,172.926147 
	C241.950790,175.285797 241.943741,177.715759 241.767670,180.116302 
	C241.086243,180.121277 240.404800,180.126251 239.723358,180.131226 
	C239.500641,178.547516 239.277924,176.963791 239.054886,174.481384 
M215.597412,182.701935 
	C220.783890,181.682861 222.334595,178.835556 221.149185,172.795349 
	C220.433136,169.146820 217.855209,168.048691 214.913467,169.074280 
	C213.304901,169.635086 211.485672,171.848846 211.224258,173.542938 
	C210.692856,176.986450 209.926834,181.095230 215.597412,182.701935 
M89.093109,173.678223 
	C89.646416,173.007629 90.291481,171.723511 90.734581,171.789795 
	C91.766403,171.944107 92.700966,172.748688 93.674934,173.289810 
	C94.014854,172.680893 94.354774,172.071976 94.694695,171.463058 
	C93.038742,170.569000 91.375229,168.967651 89.729019,168.985229 
	C88.167847,169.001938 86.624802,170.714630 85.073784,171.681488 
	C86.095345,173.313339 87.074844,174.974442 88.172600,176.553314 
	C88.402786,176.884369 89.266098,176.776718 89.493759,177.107742 
	C90.039268,177.900925 90.380241,178.834778 90.803772,179.711853 
	C89.872421,179.482544 88.919495,179.316132 88.015800,179.006195 
	C87.117523,178.698120 86.268730,178.245758 85.146828,177.744293 
	C84.649826,181.924484 87.071266,182.952301 89.595856,182.563980 
	C91.352486,182.293793 93.779228,180.792480 94.311218,179.279999 
	C95.519402,175.845016 92.358788,174.998016 89.093109,173.678223 
M227.129013,168.943726 
	C223.087891,170.542786 223.563370,174.046646 223.646622,177.335434 
	C223.722061,180.315170 224.899933,182.571075 228.228409,182.694901 
	C231.527695,182.817657 233.525925,181.300842 233.559967,176.468246 
	C231.365067,177.993698 229.834686,179.057297 227.796448,180.473862 
	C227.796448,177.174973 227.796448,174.285339 227.796448,171.148636 
	C230.004898,172.434219 231.515198,173.313385 233.976440,174.746124 
	C232.197311,169.257294 232.197311,169.257294 227.129013,168.943726 
M162.046036,181.428345 
	C167.481522,183.798096 169.301102,182.989822 170.712570,176.345749 
	C168.353989,178.026520 166.832413,179.110825 164.115784,181.046738 
	C164.308777,177.100800 164.449448,174.224411 164.614914,170.841171 
	C167.105972,172.433289 168.530655,173.343857 170.689606,174.723709 
	C170.332642,170.379608 168.814957,168.668182 165.534988,168.780960 
	C162.183136,168.896179 160.756683,171.018951 160.724182,174.000916 
	C160.699432,176.270493 161.268967,178.546539 162.046036,181.428345 
M149.041367,182.233246 
	C150.443939,178.026642 151.846497,173.820023 153.249069,169.613419 
	C152.557617,169.281830 151.866150,168.950256 151.174683,168.618668 
	C149.862961,171.123825 148.551224,173.628998 147.404510,175.819000 
	C145.796509,173.986893 148.265579,169.280579 142.485626,168.935730 
	C143.533951,173.226685 144.277298,176.918152 145.422897,180.480209 
	C145.693100,181.320343 147.317886,181.724823 149.041367,182.233246 
M133.998688,174.512512 
	C133.998596,176.496506 133.860489,178.495590 134.075180,180.456070 
	C134.147812,181.119354 135.024536,181.871490 135.715790,182.199280 
	C135.976776,182.323044 137.268692,181.287689 137.213715,180.907455 
	C136.591797,176.605606 137.630341,172.945801 140.919861,169.995941 
	C140.987503,169.935303 140.698593,169.477051 140.656082,169.382477 
	C138.584732,169.382477 136.622223,169.382477 134.272781,169.382477 
	C134.183868,170.729797 134.089828,172.154800 133.998688,174.512512 
M158.107986,172.724976 
	C157.480469,171.527267 156.852966,170.329544 156.225449,169.131836 
	C155.770752,170.340485 155.026031,171.524933 154.922745,172.762909 
	C154.718140,175.215515 154.764175,177.704849 154.935211,180.163101 
	C154.985168,180.881042 155.808380,181.545197 156.277161,182.233994 
	C156.885254,181.520782 157.927979,180.858124 158.017944,180.084641 
	C158.263657,177.972260 158.107590,175.813156 158.107986,172.724976 
z"/>
<path fill="#6B9DE8" opacity="1.000000" stroke="none" 
	d="
M275.163147,93.110809 
	C278.928589,93.110847 282.223389,93.110847 285.956848,93.110847 
	C285.956848,106.430847 285.956848,119.258408 285.956848,132.085968 
	C286.266907,132.153427 286.576965,132.220871 286.887024,132.288330 
	C289.838715,125.331833 292.794220,118.376945 295.739349,111.417686 
	C296.452240,109.733086 297.132599,108.034698 297.825195,106.341522 
	C303.877869,91.543991 303.877686,91.543915 320.904968,93.574593 
	C319.140991,102.147179 317.414581,110.684143 315.622223,119.207230 
	C313.741547,128.150345 311.522888,137.033417 309.991791,146.034576 
	C309.168854,150.872665 307.227020,153.052124 302.270966,152.137405 
	C300.998749,151.902603 299.672058,151.962845 297.579742,151.841782 
	C300.483551,137.946960 303.314606,124.400345 306.145660,110.853729 
	C305.827240,110.739265 305.508789,110.624809 305.190369,110.510353 
	C302.901154,115.719078 300.603180,120.923973 298.325012,126.137520 
	C295.527985,132.538452 292.704681,138.928452 289.971069,145.356476 
	C286.892395,152.595779 286.930328,152.611908 277.723083,151.705475 
	C277.723083,137.618927 277.723083,123.421288 277.723083,109.223640 
	C277.264160,109.182434 276.805237,109.141220 276.346283,109.100006 
	C274.627869,116.975632 272.901123,124.849449 271.194092,132.727539 
	C270.173645,137.436859 268.809662,142.112213 268.292114,146.877991 
	C267.830231,151.130936 266.143829,152.790771 261.926575,152.158020 
	C260.174255,151.895096 258.349579,152.114365 256.020905,152.114365 
	C258.947113,138.382492 261.747589,125.267662 264.533936,112.149818 
	C265.466278,107.760361 266.637848,103.398094 267.199890,98.960060 
	C267.796326,94.250580 269.911255,92.140732 275.163147,93.110809 
z"/>
<path fill="#6A9DE7" opacity="1.000000" stroke="none" 
	d="
M70.671692,136.567139 
	C71.321838,133.066772 71.859833,129.980148 72.481972,126.410774 
	C67.995964,126.410774 63.950588,126.410774 59.196278,126.410774 
	C57.393150,134.597137 55.518749,143.107101 53.596836,151.832764 
	C49.788029,151.832764 46.197784,151.832764 41.653378,151.832764 
	C45.827396,132.190247 49.939816,112.837608 54.081490,93.347313 
	C58.126568,93.347313 61.730232,93.347313 66.036819,93.347313 
	C64.540871,100.830879 63.103508,108.021378 61.539906,115.843399 
	C65.716949,115.843399 69.219559,116.151352 72.614166,115.680573 
	C73.844170,115.509995 75.411873,113.642616 75.795738,112.262955 
	C77.039902,107.791214 78.199661,103.225052 78.649605,98.622681 
	C79.124710,93.762878 81.499107,92.465233 85.882225,93.072197 
	C87.651215,93.317154 89.482460,93.112579 91.959236,93.112579 
	C89.851479,103.167114 87.883163,112.686234 85.854973,122.192581 
	C84.052193,130.642395 81.902138,139.030716 80.469040,147.541122 
	C79.814117,151.430359 78.223152,152.564362 74.616127,152.155869 
	C72.519249,151.918381 70.373474,152.112671 67.489044,152.112671 
	C68.602997,146.622986 69.581268,141.801926 70.671692,136.567139 
z"/>
<path fill="#6A9DE7" opacity="1.000000" stroke="none" 
	d="
M179.652313,151.712799 
	C174.751358,148.930618 173.051346,144.748642 173.113846,139.798935 
	C173.262421,128.032455 175.678864,116.645966 180.269623,105.874947 
	C184.932831,94.933945 195.183899,90.018440 206.856323,92.328972 
	C213.959747,93.735069 217.849976,97.879631 217.695023,105.699837 
	C217.442917,118.422211 215.122147,130.887589 209.117065,142.252823 
	C203.796890,152.321808 192.309387,155.865753 179.652313,151.712799 
M187.556992,121.086235 
	C186.702789,126.498825 185.451981,131.892349 185.190445,137.333435 
	C185.086472,139.496902 186.622559,142.847351 188.385834,143.745453 
	C191.400406,145.280899 195.042328,144.530258 197.210190,141.280472 
	C198.489914,139.362030 199.774231,137.259109 200.299850,135.058426 
	C202.306168,126.658302 204.201447,118.219917 205.723541,109.721565 
	C206.340805,106.275124 206.114243,102.290062 201.681091,101.186768 
	C197.403839,100.122276 193.970245,102.101929 192.368378,106.079369 
	C190.515030,110.681313 189.288910,115.535851 187.556992,121.086235 
z"/>
<path fill="#6B9EE8" opacity="1.000000" stroke="none" 
	d="
M226.056580,152.177521 
	C222.607788,152.177658 219.647888,152.177658 216.164902,152.177658 
	C219.303040,137.303650 222.305954,123.048683 225.322510,108.796600 
	C225.769333,106.685432 226.299469,104.592010 226.758575,102.483307 
	C228.806351,93.078125 228.802094,93.077179 238.153030,93.077141 
	C245.786667,93.077110 253.420288,93.077133 261.802063,93.077133 
	C261.090088,96.511093 260.472137,99.491585 259.740814,103.018829 
	C254.002869,103.018829 248.380737,103.153351 242.769501,102.964523 
	C239.770859,102.863617 238.143219,103.600571 237.830048,106.909233 
	C237.537262,110.002586 236.629227,113.037712 235.865265,116.706970 
	C242.352234,116.706970 248.411209,116.706970 254.386429,116.706970 
	C255.472122,125.243187 254.236664,126.762856 246.729492,126.766090 
	C246.230331,126.766304 245.731186,126.766144 245.232025,126.766167 
	C232.300385,126.766830 231.127594,127.988617 231.131393,142.221619 
	C234.545227,142.221619 237.972488,142.221603 241.399750,142.221603 
	C244.703506,142.221603 248.007263,142.221619 251.269379,142.221619 
	C252.053635,150.921509 250.964951,152.175903 243.017563,152.177094 
	C237.526871,152.177933 232.036163,152.177353 226.056580,152.177521 
z"/>
<path fill="#6A9DE7" opacity="1.000000" stroke="none" 
	d="
M133.117966,130.099762 
	C135.317017,119.769699 137.888367,109.926476 139.440033,99.925064 
	C140.325287,94.219070 142.666748,92.164818 148.120804,93.096710 
	C149.238663,93.287712 150.395279,93.251930 152.368866,93.371086 
	C151.228683,99.257973 150.152100,104.816566 148.970932,110.915131 
	C150.725571,109.715469 151.883331,108.760536 153.179962,108.064217 
	C160.913315,103.911224 168.741684,107.433212 169.292465,116.092346 
	C170.011734,127.400543 167.475586,138.221664 161.026611,147.840546 
	C157.433716,153.199493 146.745071,156.134750 140.850647,149.321075 
	C138.059021,154.514053 133.452789,151.335541 128.580490,152.307861 
	C130.165909,144.602036 131.614517,137.561188 133.117966,130.099762 
M144.702469,130.240158 
	C144.331604,132.358261 143.957886,134.475845 143.590561,136.594574 
	C143.060318,139.652969 142.724670,142.878677 146.341583,144.160461 
	C150.163956,145.515060 152.592331,142.916031 153.533813,139.804169 
	C155.345535,133.815979 156.840088,127.679688 157.736069,121.498970 
	C157.998260,119.690346 155.766708,115.851357 154.724716,115.867950 
	C152.516083,115.903122 149.454300,117.327240 148.347092,119.154297 
	C146.518921,122.171051 145.960800,125.957458 144.702469,130.240158 
z"/>
<path fill="#6A9DE7" opacity="1.000000" stroke="none" 
	d="
M90.840408,134.747910 
	C92.433609,127.014931 94.190239,119.737839 95.364082,112.367928 
	C95.983711,108.477654 97.804047,107.430687 101.349121,107.833870 
	C103.293076,108.054970 105.282829,107.873405 107.952324,107.873405 
	C106.146568,116.588593 104.450226,124.785172 102.748650,132.980667 
	C102.377449,134.768478 101.626076,136.568420 101.704231,138.333801 
	C101.788467,140.236359 102.471008,143.624481 103.190834,143.705215 
	C105.409561,143.954117 108.451530,143.634048 109.899963,142.225372 
	C111.618080,140.554398 112.323395,137.595154 112.920654,135.065079 
	C114.674713,127.634766 116.440994,120.185349 117.634415,112.653397 
	C118.288124,108.527687 120.159752,107.379814 123.936249,107.833031 
	C125.856018,108.063416 127.826241,107.873337 130.342651,107.873337 
	C127.599548,120.775757 125.050430,132.940903 122.417099,145.087799 
	C120.766869,152.699936 120.701393,152.782028 113.140572,152.088898 
	C111.754181,151.961792 110.470032,150.719345 109.801750,150.354111 
	C105.532379,151.318634 101.478439,152.799149 97.354233,153.031296 
	C91.451714,153.363571 88.789833,150.385330 89.108482,144.452652 
	C89.275879,141.336243 90.186630,138.259750 90.840408,134.747910 
z"/>
<path fill="#161616" opacity="1.000000" stroke="none" 
	d="
M206.908218,180.902771 
	C203.626526,181.692230 200.627182,182.200562 197.297028,182.764969 
	C197.297028,176.332062 197.297028,170.775192 197.297028,163.911087 
	C201.005127,164.939499 205.645248,164.825790 207.310379,166.995361 
	C210.286652,170.873291 209.696976,176.075104 206.908218,180.902771 
M200.894653,169.896835 
	C200.894653,173.170670 200.894653,176.444504 200.894653,179.718338 
	C201.397385,179.947769 201.900116,180.177200 202.402847,180.406631 
	C203.312302,179.054291 204.991302,177.691742 204.973541,176.351700 
	C204.934647,173.419250 204.034760,170.498215 203.486526,167.572525 
	C202.625214,168.049774 201.763901,168.527023 200.894653,169.896835 
z"/>
<path fill="#1A1A1A" opacity="1.000000" stroke="none" 
	d="
M119.856842,174.867859 
	C120.263329,178.696396 119.718513,182.033630 115.048935,182.588013 
	C111.325027,183.030136 108.433876,182.027725 108.147499,176.297958 
	C109.840034,177.265244 110.919121,177.910904 112.025757,178.505295 
	C112.928413,178.990082 113.832085,179.546341 114.805168,179.780151 
	C115.083054,179.846909 116.026703,178.788391 115.934486,178.438385 
	C115.668365,177.428406 115.208984,176.335007 114.484474,175.619812 
	C113.825455,174.969269 112.713013,174.785477 111.811584,174.371658 
	C108.988754,173.075821 107.441544,170.710632 108.871834,167.985580 
	C109.749771,166.312881 112.154358,164.706680 114.044235,164.477158 
	C116.685577,164.156372 119.357521,165.286209 119.079582,169.839371 
	C117.755150,169.233307 116.792557,168.679352 115.758278,168.351562 
	C114.731606,168.026169 113.632774,167.928436 112.565590,167.730865 
	C112.982399,168.934250 113.060051,170.515503 113.889091,171.259644 
	C115.446716,172.657776 117.438431,173.572296 119.613541,174.836243 
	C119.977448,174.984589 119.856842,174.867859 119.856842,174.867859 
z"/>
<path fill="#222222" opacity="1.000000" stroke="none" 
	d="
M47.785011,179.548447 
	C47.010063,180.915466 46.235924,181.870483 45.461784,182.825485 
	C45.081913,182.591919 44.702045,182.358337 44.322174,182.124756 
	C44.322174,176.458328 44.322174,170.791885 44.322174,164.709564 
	C46.222466,164.709564 48.013237,164.726257 49.803585,164.705887 
	C52.962158,164.669968 54.821972,166.159058 55.076504,169.343231 
	C55.317822,172.362045 54.151432,174.905411 50.959530,175.008179 
	C47.691925,175.113403 47.584423,176.800858 47.785011,179.548447 
z"/>
<path fill="#1E1E1E" opacity="1.000000" stroke="none" 
	d="
M180.034637,169.079559 
	C182.089386,171.396408 184.877609,173.450562 181.289383,176.368332 
	C181.071991,176.545135 181.413025,177.301682 181.310150,177.745804 
	C180.962906,179.244720 180.574814,181.981583 180.126770,181.996658 
	C178.040955,182.066742 174.431305,181.867950 174.109543,180.875809 
	C173.156586,177.937546 172.854126,174.409882 173.631454,171.464859 
	C173.968491,170.187943 177.572067,169.773224 180.034637,169.079559 
z"/>
<path fill="#1B1B1B" opacity="1.000000" stroke="none" 
	d="
M120.367981,174.801178 
	C119.856842,174.867859 119.977448,174.984589 119.954437,175.012939 
	C120.708618,174.007965 121.322433,172.770279 122.300568,171.988297 
	C123.840019,170.757568 125.598793,169.074936 127.313538,169.016510 
	C128.718872,168.968613 130.878052,170.743088 131.444916,172.199448 
	C131.992508,173.606262 130.931274,175.639282 130.425735,178.146194 
	C130.466980,178.394562 131.234940,180.369278 130.769958,180.722961 
	C129.455246,181.722916 127.516808,182.726730 126.047760,182.466476 
	C124.600128,182.210022 123.134071,180.602386 122.218880,179.226532 
	C121.391396,177.982544 121.296860,176.251038 120.367981,174.801178 
z"/>
<path fill="#202020" opacity="1.000000" stroke="none" 
	d="
M273.539124,182.584198 
	C271.265930,181.508743 268.046753,180.603851 267.733307,179.095215 
	C267.152313,176.298782 267.442902,172.636230 268.902435,170.285538 
	C270.493378,167.723297 273.891632,167.899353 276.133698,170.454590 
	C278.228699,172.842209 276.680176,180.447418 273.539124,182.584198 
z"/>
<path fill="#090909" opacity="1.000000" stroke="none" 
	d="
M239.055054,174.930725 
	C239.277924,176.963791 239.500641,178.547516 239.723358,180.131226 
	C240.404800,180.126251 241.086243,180.121277 241.767670,180.116302 
	C241.943741,177.715759 241.950790,175.285797 242.361649,172.926147 
	C242.593979,171.591827 243.489883,170.373062 244.086884,169.102264 
	C244.626022,170.430313 245.519745,171.729385 245.631088,173.092392 
	C245.869705,176.013153 245.704254,178.966934 245.704254,181.841110 
	C235.248444,182.881927 235.313858,184.956818 236.072449,169.308075 
	C241.120956,168.722931 238.221603,172.725464 239.055054,174.930725 
z"/>
<path fill="#141414" opacity="1.000000" stroke="none" 
	d="
M215.218628,182.651474 
	C209.926834,181.095230 210.692856,176.986450 211.224258,173.542938 
	C211.485672,171.848846 213.304901,169.635086 214.913467,169.074280 
	C217.855209,168.048691 220.433136,169.146820 221.149185,172.795349 
	C222.334595,178.835556 220.783890,181.682861 215.218628,182.651474 
M215.690735,180.202225 
	C219.072556,177.739578 219.131592,173.995163 214.382523,169.906754 
	C214.631088,174.013824 214.803604,176.864182 215.690735,180.202225 
z"/>
<path fill="#1A1A1A" opacity="1.000000" stroke="none" 
	d="
M89.493111,173.857178 
	C92.358788,174.998016 95.519402,175.845016 94.311218,179.279999 
	C93.779228,180.792480 91.352486,182.293793 89.595856,182.563980 
	C87.071266,182.952301 84.649826,181.924484 85.146828,177.744293 
	C86.268730,178.245758 87.117523,178.698120 88.015800,179.006195 
	C88.919495,179.316132 89.872421,179.482544 90.803772,179.711853 
	C90.380241,178.834778 90.039268,177.900925 89.493759,177.107742 
	C89.266098,176.776718 88.402786,176.884369 88.172600,176.553314 
	C87.074844,174.974442 86.095345,173.313339 85.073784,171.681488 
	C86.624802,170.714630 88.167847,169.001938 89.729019,168.985229 
	C91.375229,168.967651 93.038742,170.569000 94.694695,171.463058 
	C94.354774,172.071976 94.014854,172.680893 93.674934,173.289810 
	C92.700966,172.748688 91.766403,171.944107 90.734581,171.789795 
	C90.291481,171.723511 89.646416,173.007629 89.493111,173.857178 
z"/>
<path fill="#161616" opacity="1.000000" stroke="none" 
	d="
M58.972237,173.775909 
	C55.230080,174.249664 56.470940,171.289581 57.382305,170.537430 
	C58.712044,169.439972 60.999439,168.778687 62.681664,169.069733 
	C63.946419,169.288559 65.637283,171.182281 65.845749,172.530289 
	C66.318871,175.589706 65.994774,178.772415 65.994774,181.899323 
	C55.679783,182.252289 55.679783,182.252289 57.338715,176.378967 
	C58.813210,177.772934 59.680244,179.358459 60.867466,181.529495 
	C61.463459,177.562256 61.900970,174.649948 62.473324,170.840042 
	C61.066238,172.019974 60.019234,172.897934 58.972237,173.775909 
z"/>
<path fill="#1D1D1D" opacity="1.000000" stroke="none" 
	d="
M227.478546,168.889496 
	C232.197311,169.257294 232.197311,169.257294 233.976440,174.746124 
	C231.515198,173.313385 230.004898,172.434219 227.796448,171.148636 
	C227.796448,174.285339 227.796448,177.174973 227.796448,180.473862 
	C229.834686,179.057297 231.365067,177.993698 233.559967,176.468246 
	C233.525925,181.300842 231.527695,182.817657 228.228409,182.694901 
	C224.899933,182.571075 223.722061,180.315170 223.646622,177.335434 
	C223.563370,174.046646 223.087891,170.542786 227.478546,168.889496 
z"/>
<path fill="#1D1D1D" opacity="1.000000" stroke="none" 
	d="
M161.810074,181.124023 
	C161.268967,178.546539 160.699432,176.270493 160.724182,174.000916 
	C160.756683,171.018951 162.183136,168.896179 165.534988,168.780960 
	C168.814957,168.668182 170.332642,170.379608 170.689606,174.723709 
	C168.530655,173.343857 167.105972,172.433289 164.614914,170.841171 
	C164.449448,174.224411 164.308777,177.100800 164.115784,181.046738 
	C166.832413,179.110825 168.353989,178.026520 170.712570,176.345749 
	C169.301102,182.989822 167.481522,183.798096 161.810074,181.124023 
z"/>
<path fill="#171717" opacity="1.000000" stroke="none" 
	d="
M299.872620,170.965149 
	C304.267853,167.492569 306.928558,167.905533 309.267578,173.371429 
	C307.016083,172.479919 305.489136,171.875305 302.471588,170.680466 
	C303.634064,172.533157 303.952332,173.744934 304.633636,174.004715 
	C307.653900,175.156418 310.674591,176.624039 308.660889,180.312653 
	C306.847992,183.633362 303.544800,183.319427 300.204407,180.847443 
	C300.730011,179.719254 301.512177,178.890839 302.341736,178.840332 
	C303.484680,178.770752 304.663361,179.288849 305.826752,179.555176 
	C304.970947,178.585495 304.295258,177.152039 303.224396,176.736206 
	C300.409241,175.643005 299.435028,173.792694 299.872620,170.965149 
z"/>
<path fill="#161616" opacity="1.000000" stroke="none" 
	d="
M148.680450,182.281479 
	C147.317886,181.724823 145.693100,181.320343 145.422897,180.480209 
	C144.277298,176.918152 143.533951,173.226685 142.485626,168.935730 
	C148.265579,169.280579 145.796509,173.986893 147.404510,175.819000 
	C148.551224,173.628998 149.862961,171.123825 151.174683,168.618668 
	C151.866150,168.950256 152.557617,169.281830 153.249069,169.613419 
	C151.846497,173.820023 150.443939,178.026642 148.680450,182.281479 
z"/>
<path fill="#040404" opacity="1.000000" stroke="none" 
	d="
M258.957336,171.679276 
	C258.496979,175.006851 258.036621,178.334427 257.568787,181.716171 
	C256.142670,181.739304 256.142670,181.739304 254.298523,170.312683 
	C253.220505,171.988739 252.289581,172.819229 252.166397,173.755966 
	C251.909576,175.708786 252.224625,177.733658 252.009140,179.696472 
	C251.911743,180.583618 251.108078,181.393219 250.624847,182.237991 
	C250.032349,181.333679 248.989288,180.458359 248.928848,179.519791 
	C248.718109,176.247223 248.847336,172.952774 248.847336,169.038269 
	C251.859909,169.308929 254.546951,169.550354 257.720459,170.185028 
	C258.457062,170.945282 258.707214,171.312271 258.957336,171.679276 
z"/>
<path fill="#161616" opacity="1.000000" stroke="none" 
	d="
M77.084564,169.850021 
	C77.570541,169.037277 78.015526,168.196075 78.553871,167.419647 
	C79.109894,166.617737 79.756691,165.878784 80.363777,165.112289 
	C80.879333,165.806412 81.439697,166.472290 81.899628,167.201508 
	C82.538193,168.213943 83.101387,169.273911 82.862793,170.251160 
	C82.862793,173.977020 82.862793,177.702881 82.862793,181.744507 
	C79.409866,182.930557 78.812675,182.607605 78.578033,178.521393 
	C78.454552,176.371109 78.400925,174.216797 78.025558,171.517822 
	C77.518417,170.597565 77.301491,170.223785 77.084564,169.850021 
z"/>
<path fill="#1A1A1A" opacity="1.000000" stroke="none" 
	d="
M298.658875,181.108490 
	C295.507172,183.592056 293.406281,183.151535 293.154755,178.868240 
	C292.943146,175.264206 292.962097,171.632599 293.154419,168.027908 
	C293.207825,167.026321 294.241577,166.077026 294.825562,165.103729 
	C295.424774,166.077515 295.985596,167.077850 296.635254,168.016724 
	C297.163147,168.779572 297.797577,169.468704 297.964050,170.715790 
	C295.699646,174.780655 295.227783,178.165192 298.658875,181.108490 
z"/>
<path fill="#252525" opacity="1.000000" stroke="none" 
	d="
M76.660446,169.603912 
	C77.301491,170.223785 77.518417,170.597565 77.846504,171.096558 
	C73.476059,171.423721 72.265121,173.945953 72.611526,178.096130 
	C72.725494,179.461456 71.488266,180.939590 70.868896,182.366135 
	C70.276680,180.925507 69.319008,179.521271 69.171219,178.036407 
	C68.895996,175.271210 69.092232,172.459091 69.092232,169.357788 
	C71.696373,169.357788 73.966347,169.357788 76.660446,169.603912 
z"/>
<path fill="#2B2B2B" opacity="1.000000" stroke="none" 
	d="
M281.948090,169.286621 
	C283.168365,169.132751 284.514099,168.582809 285.578766,168.920105 
	C287.084045,169.397003 289.373047,170.339676 289.579224,171.417572 
	C290.160187,174.455246 289.946899,177.668289 289.797546,180.800308 
	C289.771027,181.356369 288.547394,181.855316 287.876526,182.380630 
	C287.355286,181.696609 286.454559,181.049194 286.384369,180.321671 
	C286.178802,178.190216 286.501129,175.998260 286.195465,173.891098 
	C286.084167,173.123856 284.785370,172.528900 283.469452,171.756409 
	C282.589722,170.867203 282.268921,170.076904 281.948090,169.286621 
z"/>
<path fill="#111111" opacity="1.000000" stroke="none" 
	d="
M133.997253,174.046173 
	C134.089828,172.154800 134.183868,170.729797 134.272781,169.382477 
	C136.622223,169.382477 138.584732,169.382477 140.656082,169.382477 
	C140.698593,169.477051 140.987503,169.935303 140.919861,169.995941 
	C137.630341,172.945801 136.591797,176.605606 137.213715,180.907455 
	C137.268692,181.287689 135.976776,182.323044 135.715790,182.199280 
	C135.024536,181.871490 134.147812,181.119354 134.075180,180.456070 
	C133.860489,178.495590 133.998596,176.496506 133.997253,174.046173 
z"/>
<path fill="#D2D2D2" opacity="1.000000" stroke="none" 
	d="
M298.878235,181.122559 
	C295.227783,178.165192 295.699646,174.780655 297.922455,171.130798 
	C298.647858,170.985977 298.994141,170.951385 299.606537,170.940979 
	C299.435028,173.792694 300.409241,175.643005 303.224396,176.736206 
	C304.295258,177.152039 304.970947,178.585495 305.826752,179.555176 
	C304.663361,179.288849 303.484680,178.770752 302.341736,178.840332 
	C301.512177,178.890839 300.730011,179.719254 299.944122,180.606232 
	C299.664307,180.989212 299.376343,181.030869 298.878235,181.122559 
z"/>
<path fill="#090909" opacity="1.000000" stroke="none" 
	d="
M259.403076,171.565353 
	C258.707214,171.312271 258.457062,170.945282 258.111572,170.377747 
	C263.829956,167.764709 265.058105,168.555359 265.119751,174.770767 
	C265.137817,176.590973 265.256012,178.427078 265.051208,180.224319 
	C264.968689,180.948517 264.142151,181.587921 263.654236,182.265930 
	C263.058899,181.527618 262.053101,180.842255 261.949646,180.040482 
	C261.697540,178.086823 262.076813,176.045624 261.771332,174.107529 
	C261.619629,173.145065 260.519775,172.332047 259.403076,171.565353 
z"/>
<path fill="#040404" opacity="1.000000" stroke="none" 
	d="
M158.109314,173.198761 
	C158.107590,175.813156 158.263657,177.972260 158.017944,180.084641 
	C157.927979,180.858124 156.885254,181.520782 156.277161,182.233994 
	C155.808380,181.545197 154.985168,180.881042 154.935211,180.163101 
	C154.764175,177.704849 154.718140,175.215515 154.922745,172.762909 
	C155.026031,171.524933 155.770752,170.340485 156.225449,169.131836 
	C156.852966,170.329544 157.480469,171.527267 158.109314,173.198761 
z"/>
<path fill="#010101" opacity="1.000000" stroke="none" 
	d="
M281.522034,169.215668 
	C282.268921,170.076904 282.589722,170.867203 283.042267,171.954132 
	C283.147888,174.746506 283.247314,177.253372 283.027679,179.731949 
	C282.950562,180.602203 282.090240,181.403061 281.587524,182.235611 
	C281.021149,181.468048 279.934113,180.670349 279.976471,179.938019 
	C280.185211,176.330734 280.693481,172.740784 281.522034,169.215668 
z"/>
<path fill="#2F2F2F" opacity="1.000000" stroke="none" 
	d="
M59.270874,173.864670 
	C60.019234,172.897934 61.066238,172.019974 62.473324,170.840042 
	C61.900970,174.649948 61.463459,177.562256 60.867466,181.529495 
	C59.680244,179.358459 58.813210,177.772934 57.608894,176.115570 
	C58.037582,175.346970 58.803551,174.650192 59.270874,173.864670 
z"/>
<path fill="#FBFDFE" opacity="1.000000" stroke="none" 
	d="
M187.673737,120.683479 
	C189.288910,115.535851 190.515030,110.681313 192.368378,106.079369 
	C193.970245,102.101929 197.403839,100.122276 201.681091,101.186768 
	C206.114243,102.290062 206.340805,106.275124 205.723541,109.721565 
	C204.201447,118.219917 202.306168,126.658302 200.299850,135.058426 
	C199.774231,137.259109 198.489914,139.362030 197.210190,141.280472 
	C195.042328,144.530258 191.400406,145.280899 188.385834,143.745453 
	C186.622559,142.847351 185.086472,139.496902 185.190445,137.333435 
	C185.451981,131.892349 186.702789,126.498825 187.673737,120.683479 
z"/>
<path fill="#F9FBFE" opacity="1.000000" stroke="none" 
	d="
M144.784943,129.829834 
	C145.960800,125.957458 146.518921,122.171051 148.347092,119.154297 
	C149.454300,117.327240 152.516083,115.903122 154.724716,115.867950 
	C155.766708,115.851357 157.998260,119.690346 157.736069,121.498970 
	C156.840088,127.679688 155.345535,133.815979 153.533813,139.804169 
	C152.592331,142.916031 150.163956,145.515060 146.341583,144.160461 
	C142.724670,142.878677 143.060318,139.652969 143.590561,136.594574 
	C143.957886,134.475845 144.331604,132.358261 144.784943,129.829834 
z"/>
<path fill="#F2F2F2" opacity="1.000000" stroke="none" 
	d="
M200.898621,169.450562 
	C201.763901,168.527023 202.625214,168.049774 203.486526,167.572525 
	C204.034760,170.498215 204.934647,173.419250 204.973541,176.351700 
	C204.991302,177.691742 203.312302,179.054291 202.402847,180.406631 
	C201.900116,180.177200 201.397385,179.947769 200.894653,179.718338 
	C200.894653,176.444504 200.894653,173.170670 200.898621,169.450562 
z"/>
<path fill="#E0E0E0" opacity="1.000000" stroke="none" 
	d="
M215.333420,179.958389 
	C214.803604,176.864182 214.631088,174.013824 214.382523,169.906754 
	C219.131592,173.995163 219.072556,177.739578 215.333420,179.958389 
z"/>
</svg>