<?xml version="1.0" standalone="no"?>
<!DOCTYPE svg PUBLIC "-//W3C//DTD SVG 20010904//EN"
 "http://www.w3.org/TR/2001/REC-SVG-20010904/DTD/svg10.dtd">
<svg version="1.0" xmlns="http://www.w3.org/2000/svg"
 width="225.000000pt" height="225.000000pt" viewBox="0 0 225.000000 225.000000"
 preserveAspectRatio="xMidYMid meet">

<g transform="translate(0.000000,225.000000) scale(0.100000,-0.100000)"
fill="#000000" stroke="none">
<path d="M320 1185 l0 -255 25 0 25 0 0 255 0 255 -25 0 -25 0 0 -255z"/>
<path d="M843 1420 c-22 -13 -36 -32 -44 -60 -10 -32 -17 -40 -36 -40 -14 0
-23 -6 -23 -15 0 -9 9 -15 25 -15 l25 0 0 -185 0 -185 25 0 25 0 0 185 0 185
65 0 65 0 -33 -46 c-30 -42 -32 -51 -32 -128 0 -73 3 -87 28 -124 45 -69 131
-99 204 -71 66 25 122 109 123 185 l0 41 78 -40 c96 -50 112 -63 112 -96 0
-32 -8 -44 -37 -60 -36 -18 -87 -13 -127 14 l-36 24 0 -29 c0 -36 8 -41 78
-47 99 -9 164 35 164 111 0 53 -16 70 -102 115 -44 23 -84 50 -90 61 -13 24 2
65 29 79 27 15 83 14 104 -1 15 -12 137 -287 137 -310 0 -5 -15 -43 -34 -84
-34 -72 -34 -74 -13 -74 18 0 28 16 61 98 104 260 107 265 123 242 8 -11 42
-34 76 -51 110 -55 129 -88 81 -136 -22 -22 -32 -25 -75 -21 -30 3 -62 14 -80
27 l-29 22 0 -30 c0 -24 6 -31 31 -40 95 -33 201 9 215 84 10 56 -17 90 -105
134 -43 22 -81 47 -85 56 -12 32 -6 54 20 74 31 25 78 27 118 6 36 -19 36 -19
36 9 0 19 -7 25 -35 30 -49 10 -120 -3 -149 -25 -15 -11 -41 -64 -71 -144 -27
-69 -51 -122 -55 -118 -4 4 -31 68 -60 141 -29 73 -56 135 -61 138 -5 2 -31 8
-59 11 -89 10 -170 -35 -170 -97 l0 -25 -19 30 c-24 40 -60 71 -94 84 -16 6
-89 11 -163 11 -107 0 -136 3 -140 14 -6 16 12 56 30 68 19 13 71 9 94 -8 21
-14 22 -14 22 9 0 14 -7 28 -16 31 -31 12 -90 6 -121 -14z m296 -159 c88 -63
86 -248 -3 -302 -111 -67 -225 67 -182 214 30 102 112 141 185 88z"/>
<path d="M550 1309 c-13 -6 -33 -17 -42 -26 -17 -15 -18 -15 -18 5 0 17 -6 22
-25 22 l-25 0 0 -195 0 -195 25 0 25 0 0 153 c0 142 2 155 21 176 31 33 66 44
106 30 18 -6 38 -19 43 -29 6 -10 10 -89 10 -174 l0 -156 25 0 25 0 0 166 c0
94 -4 174 -10 185 -23 42 -102 61 -160 38z"/>
</g>
</svg>
