<svg version="1.1" id="Layer_1" xmlns="http://www.w3.org/2000/svg" xmlns:xlink="http://www.w3.org/1999/xlink" x="0px" y="0px"
	 width="100%" viewBox="0 0 250 166" enable-background="new 0 0 250 166" xml:space="preserve">
<path fill="#FEFEFE" opacity="1.000000" stroke="none" 
	d="
M141.000000,167.000000 
	C94.000000,167.000000 47.500004,167.000000 1.000006,167.000000 
	C1.000004,111.666672 1.000004,56.333347 1.000002,1.000014 
	C84.333321,1.000009 167.666641,1.000009 250.999969,1.000005 
	C250.999985,56.333317 250.999985,111.666634 251.000000,166.999969 
	C214.500000,167.000000 178.000000,167.000000 141.000000,167.000000 
M125.762177,65.384033 
	C125.562645,65.175446 125.326836,65.022972 124.920227,64.191170 
	C124.149734,61.386120 122.632027,60.703457 119.685402,61.495541 
	C117.092728,62.192474 114.225037,61.866302 111.470413,61.992344 
	C110.893127,58.871643 110.443207,56.439449 110.716194,53.990097 
	C111.347771,53.470917 111.979347,52.951740 112.610924,52.432564 
	C111.876503,51.652695 111.260880,50.422165 110.381966,50.190468 
	C108.750381,49.760361 106.965111,49.913307 105.002747,49.810905 
	C105.002747,51.071060 105.002747,52.035225 104.111664,53.004841 
	C101.490601,52.748093 98.857216,52.579441 96.251167,52.215267 
	C91.600494,51.565380 88.215767,53.667233 86.929665,58.544106 
	C86.929665,58.544106 86.799309,59.004322 86.422554,59.282795 
	C86.191345,59.515747 86.066772,59.796097 85.992958,60.499985 
	C85.992958,60.499985 85.956711,60.878532 85.393234,61.134586 
	C85.229683,61.716278 85.066139,62.297974 84.280739,63.170742 
	C82.527924,64.012520 80.775101,64.854294 78.517174,65.256042 
	C76.672745,65.828339 74.828323,66.400635 72.359711,66.860146 
	C71.610519,66.472260 70.861336,66.084381 70.072449,65.140373 
	C70.019058,64.772568 69.965660,64.404755 70.425621,63.562897 
	C67.681084,63.041943 64.955490,62.235931 62.188560,62.052124 
	C52.950829,61.438465 43.862240,60.755764 40.624844,49.225597 
	C35.937782,50.014992 31.421413,50.600582 27.020584,51.664215 
	C26.138145,51.877491 25.324017,53.878967 25.219896,55.118240 
	C25.173681,55.668285 26.971050,56.373222 27.970112,57.943401 
	C27.980452,66.744225 28.224749,75.553268 27.916027,84.342880 
	C27.721443,89.882935 26.699385,95.393913 26.012732,101.663994 
	C25.183029,103.411270 24.353325,105.158554 23.415409,107.133720 
	C24.161726,108.869400 25.035599,110.901726 25.432217,111.824120 
	C28.906559,111.824120 31.569210,112.086876 34.132759,111.697372 
	C35.187168,111.537163 36.314743,110.119652 36.886372,109.005821 
	C37.467876,107.872734 37.406113,106.409523 37.626026,105.090866 
	C38.103905,105.023140 38.581783,104.955414 39.059658,104.887688 
	C39.696358,106.244858 40.327919,107.604477 40.971233,108.958504 
	C41.596737,110.275055 42.234287,111.585892 42.866558,112.899231 
	C44.213352,111.869865 46.332760,111.094070 46.768707,109.765770 
	C48.369747,104.887497 52.275562,103.077965 57.130524,101.133965 
	C57.986244,94.169037 58.881325,86.883751 59.811115,79.315948 
	C63.269470,80.100685 65.262131,81.873863 65.033966,85.783867 
	C64.859711,88.770233 64.669365,91.828003 65.136963,94.749855 
	C65.381821,96.279892 67.027611,97.585716 68.042183,99.664482 
	C68.042542,100.112175 68.042900,100.559875 67.355446,101.105324 
	C67.448341,102.166138 67.130844,103.594261 67.699318,104.229431 
	C72.087463,109.132347 82.276680,110.409386 88.186165,105.223473 
	C88.801292,106.506615 89.381081,107.716034 90.091286,109.197510 
	C94.738655,106.920036 92.366844,102.994530 92.992073,99.981094 
	C92.992073,99.981094 92.962425,99.961075 93.682281,100.114548 
	C94.405609,101.562141 95.128929,103.009735 95.860924,104.474663 
	C97.592888,102.973648 99.314217,101.481857 101.551445,100.535675 
	C103.950371,101.065895 106.592140,101.127693 108.699524,102.220245 
	C113.650398,104.786980 118.266121,103.615952 123.455742,101.668526 
	C123.795197,101.643761 124.134651,101.618996 125.213066,101.859985 
	C125.471725,101.900169 125.730392,101.940346 126.726730,101.996765 
	C128.202148,102.518761 129.677567,103.040764 131.153000,103.562759 
	C131.010757,103.143295 130.868515,102.723824 130.726288,102.304359 
	C133.279755,101.389191 135.833221,100.474030 138.367752,99.617958 
	C138.367752,99.617958 138.353073,99.676208 138.146515,100.458443 
	C138.525391,101.257210 138.708801,102.529625 139.314209,102.779465 
	C143.967178,104.699684 148.636200,105.391144 153.667908,101.816528 
	C154.114761,101.833374 154.561600,101.850220 155.013168,102.620392 
	C156.187317,107.514771 159.524658,106.936264 163.287415,105.281441 
	C163.038406,105.858627 162.789413,106.435814 162.540421,107.013000 
	C163.994308,108.009682 165.448212,109.006355 167.231827,110.610146 
	C169.103958,110.716644 170.976074,110.823151 173.468658,111.018997 
	C174.155182,111.417877 174.841705,111.816757 175.732697,112.334427 
	C177.126709,109.895721 178.541122,107.421356 180.016678,104.364502 
	C180.330444,103.899467 180.644211,103.434433 181.677460,102.919579 
	C184.736877,103.755348 187.796280,104.591110 190.652298,105.371315 
	C190.958862,108.123901 191.201065,110.298569 191.399384,112.079308 
	C194.460785,110.956757 197.035782,110.012558 201.152756,108.502953 
	C197.601532,107.482910 195.476242,106.872444 193.363739,106.265656 
	C194.729721,104.710518 195.870590,103.411652 197.748306,102.128723 
	C200.832230,102.149078 203.916153,102.169441 207.161270,102.898544 
	C208.553284,103.595238 209.906769,104.387589 211.345963,104.967117 
	C213.744919,105.933105 216.198746,106.762810 219.365356,107.918449 
	C221.123398,105.232086 224.404816,102.049934 222.989731,96.202782 
	C222.989731,91.511368 222.989731,86.819954 222.989731,81.429665 
	C220.141068,82.001686 216.357361,78.356598 213.473251,83.519653 
	C213.311783,83.379929 213.150330,83.240204 213.002502,82.307938 
	C213.631622,77.665390 210.233185,78.223343 206.364075,78.499603 
	C207.744598,77.218216 208.217194,76.428223 208.868134,76.233070 
	C212.751282,75.068848 216.740555,74.223923 220.548828,72.864510 
	C221.786285,72.422775 222.865814,70.878868 223.434311,69.583168 
	C223.631470,69.133774 222.102341,67.875084 221.294418,67.052086 
	C220.576202,66.320503 219.764893,65.680321 219.924683,64.995445 
	C223.231842,64.993774 226.868973,65.851707 229.751938,64.744980 
	C232.549606,63.670994 235.299667,60.967594 236.739029,58.269405 
	C238.285507,55.370426 236.111938,52.776829 232.956406,52.070942 
	C230.279144,51.472050 227.433655,51.673786 224.696579,51.283222 
	C219.629486,50.560184 218.076035,53.479748 218.066696,57.702721 
	C218.061325,60.136223 218.668579,62.571079 218.310181,64.654015 
	C211.333969,62.147861 204.477036,61.355865 197.705185,66.247658 
	C197.705185,66.247658 197.368454,66.157784 196.586487,66.039581 
	C196.060837,66.022156 195.535187,66.004723 194.710632,65.542152 
	C194.145340,65.697159 193.580063,65.852165 193.002960,66.001625 
	C193.002960,66.001625 193.007935,66.017700 192.176514,65.903786 
	C187.756165,65.604034 183.337997,65.264915 178.914688,65.018349 
	C175.951752,64.853188 172.949158,65.062904 170.021515,64.674133 
	C164.586105,63.952354 159.185318,62.217228 153.784241,62.272968 
	C150.566010,62.306183 145.868851,61.251434 143.321838,66.021088 
	C141.073654,66.808197 138.825455,67.595299 136.577271,68.382408 
	C136.668854,68.034393 136.760422,67.686378 136.852005,67.338364 
	C133.599609,66.878479 130.347214,66.418594 126.523674,65.908249 
	C126.339699,65.856445 126.155731,65.804642 125.762177,65.384033 
z"/>
<path fill="#F9FDFB" opacity="1.000000" stroke="none" 
	d="
M68.040718,98.992798 
	C67.027611,97.585716 65.381821,96.279892 65.136963,94.749855 
	C64.669365,91.828003 64.859711,88.770233 65.033966,85.783867 
	C65.262131,81.873863 63.269470,80.100685 59.811115,79.315948 
	C58.881325,86.883751 57.986244,94.169037 57.130524,101.133965 
	C52.275562,103.077965 48.369747,104.887497 46.768707,109.765770 
	C46.332760,111.094070 44.213352,111.869865 42.866554,112.899231 
	C42.234287,111.585892 41.596737,110.275055 40.971233,108.958504 
	C40.327919,107.604477 39.696358,106.244858 39.059658,104.887688 
	C38.581783,104.955414 38.103905,105.023140 37.626026,105.090866 
	C37.406113,106.409523 37.467876,107.872734 36.886372,109.005821 
	C36.314743,110.119652 35.187168,111.537163 34.132759,111.697372 
	C31.569210,112.086876 28.906559,111.824120 25.432217,111.824120 
	C25.035599,110.901726 24.161726,108.869400 23.415409,107.133720 
	C24.353325,105.158554 25.183029,103.411270 26.362045,101.309059 
	C27.482449,101.279755 28.253536,101.605377 29.020502,102.273605 
	C29.295696,103.246292 29.575012,103.876366 29.854326,104.506447 
	C30.246744,103.980423 30.639162,103.454407 31.420584,102.929153 
	C35.834633,102.776962 38.520176,100.781891 40.213112,97.021179 
	C40.690258,97.015839 40.880817,97.016968 41.239700,97.267593 
	C41.980312,97.669678 42.552605,97.822258 43.206062,98.277573 
	C43.509499,99.160995 43.731770,99.741699 44.056717,100.659340 
	C48.091953,103.219490 50.839981,101.046547 53.103813,99.191452 
	C52.664867,96.019630 51.991077,93.524658 52.040424,91.044067 
	C52.167622,84.649094 52.614674,78.260490 53.120247,71.639053 
	C53.842377,71.174438 54.378212,70.940117 55.068867,71.045502 
	C56.761848,71.498184 58.491844,72.123604 59.803856,71.632454 
	C64.622665,69.828560 67.708977,71.996727 67.700180,77.009956 
	C67.697784,78.373817 69.528725,79.740906 70.593002,81.559380 
	C70.622406,86.993111 70.577057,91.973969 70.216782,96.969421 
	C69.281471,97.653603 68.661095,98.323204 68.040718,98.992798 
z"/>
<path fill="#EEFAF9" opacity="1.000000" stroke="none" 
	d="
M197.011459,102.112785 
	C195.870590,103.411652 194.729721,104.710518 193.363739,106.265656 
	C195.476242,106.872444 197.601532,107.482910 201.152756,108.502953 
	C197.035782,110.012558 194.460785,110.956757 191.399384,112.079308 
	C191.201065,110.298569 190.958862,108.123901 190.652298,105.371315 
	C187.796280,104.591110 184.736877,103.755348 181.333313,102.554527 
	C181.594299,99.666435 182.199432,97.143394 183.014709,94.344452 
	C184.997971,90.446594 186.771072,86.824646 188.814789,83.027351 
	C190.070343,82.017448 191.055313,81.182884 192.258102,80.648636 
	C198.814941,83.744904 205.070862,86.756821 211.529663,89.241379 
	C214.545059,90.401337 215.338043,92.020683 214.288269,94.993683 
	C205.307159,100.619392 197.181152,98.071823 189.285522,93.084450 
	C188.722641,93.974426 188.159592,94.482704 188.072723,95.062340 
	C187.362549,99.801651 189.872101,101.757675 197.011459,102.112785 
z"/>
<path fill="#F0F9F9" opacity="1.000000" stroke="none" 
	d="
M144.000610,65.995972 
	C145.868851,61.251434 150.566010,62.306183 153.784241,62.272968 
	C159.185318,62.217228 164.586105,63.952354 170.021515,64.674133 
	C172.949158,65.062904 175.951752,64.853188 178.914688,65.018349 
	C183.337997,65.264915 187.756165,65.604034 192.590515,66.301163 
	C193.003036,67.153061 193.001526,67.607582 192.894989,68.332748 
	C192.212265,69.075630 191.634567,69.547859 190.724380,70.149612 
	C189.314362,72.574669 188.236816,74.870201 187.178787,77.114243 
	C187.198288,77.062744 187.217422,77.171196 186.855316,77.120331 
	C182.527283,77.013390 185.322876,79.589676 184.926041,81.270370 
	C184.840149,82.032845 184.812363,82.470673 184.560730,83.155182 
	C183.241364,85.651680 182.145828,87.901497 180.707474,90.152100 
	C179.934357,90.008179 179.504089,89.863472 179.034821,89.377327 
	C177.392578,86.299896 175.789337,83.563904 174.152100,80.470566 
	C172.029388,76.414795 169.940674,72.716362 167.840424,68.690529 
	C166.874786,67.685303 165.920700,67.007484 164.644501,66.204163 
	C163.864594,66.084518 163.406784,66.090363 162.605804,65.895187 
	C158.596161,65.520584 154.929688,65.346977 150.848770,65.105087 
	C148.289749,65.356514 146.145187,65.676247 144.000610,65.995972 
z"/>
<path fill="#CFF0F8" opacity="1.000000" stroke="none" 
	d="
M122.977921,101.858192 
	C118.266121,103.615952 113.650398,104.786980 108.699524,102.220245 
	C106.592140,101.127693 103.950371,101.065895 101.255432,99.903076 
	C98.175262,92.435532 92.404984,86.486130 94.645348,77.931793 
	C93.619659,78.973778 93.032051,80.030464 93.016502,81.095505 
	C92.924728,87.382950 92.965965,93.672340 92.962425,99.961075 
	C92.962425,99.961075 92.992073,99.981094 92.663834,100.120956 
	C84.375778,104.489998 81.993446,103.059853 81.991531,94.048363 
	C81.989983,86.775200 81.991211,79.502037 81.991211,70.853600 
	C77.872795,76.616631 79.387123,82.001259 78.620560,87.005348 
	C78.177948,87.005707 78.000359,87.006668 77.765076,86.616882 
	C77.531937,84.462425 77.356491,82.698708 77.224716,80.623550 
	C77.237206,79.894951 77.206032,79.477783 77.350876,78.727715 
	C78.439751,73.622108 76.988014,69.789925 72.983894,66.972931 
	C74.828323,66.400635 76.672745,65.828339 78.440430,65.681648 
	C78.052773,71.043159 81.942329,68.328636 83.999527,69.340332 
	C84.105072,69.536995 84.341019,69.915924 84.243973,70.345032 
	C84.267273,72.224098 84.387611,73.674057 84.425735,75.494690 
	C84.398079,76.870659 84.452629,77.875954 84.363907,79.331818 
	C84.300667,83.219818 84.380692,86.657257 84.389572,90.344437 
	C84.402359,91.095970 84.486290,91.597763 84.502289,92.533508 
	C84.506073,95.011665 84.577789,97.055870 84.746353,99.401276 
	C85.226173,99.830742 85.609154,99.959023 86.305008,100.154472 
	C87.041557,100.198540 87.465240,100.175430 87.916336,100.132217 
	C87.943748,100.112122 87.907707,100.054497 88.044571,100.192444 
	C88.542908,100.240883 88.904381,100.151367 89.617920,100.054169 
	C90.237289,99.020523 90.504593,97.994560 90.831520,96.509338 
	C90.852165,91.692886 90.813179,87.335701 90.856552,82.656387 
	C90.884727,81.897835 90.830551,81.461426 90.830994,80.567642 
	C90.826805,76.724617 90.768013,73.338959 90.826851,69.648300 
	C91.302826,68.565132 91.661171,67.786980 92.462097,66.981377 
	C94.975319,66.912193 97.045952,66.870461 99.457397,66.893509 
	C100.487396,66.909218 101.176605,66.860130 102.194443,66.863815 
	C102.957001,67.008629 103.390907,67.100677 103.928665,67.449753 
	C104.593102,68.162727 105.153694,68.618668 105.612892,69.336578 
	C104.644508,70.273048 103.777519,70.947533 102.578857,71.729660 
	C101.443977,72.856758 100.640770,73.876228 99.873596,74.938759 
	C99.909637,74.981827 99.894226,74.870575 99.569565,75.045631 
	C95.991478,80.716270 95.899796,84.720612 98.956795,88.468803 
	C100.719772,91.534904 102.476051,94.228935 104.403503,97.211090 
	C110.044434,101.758377 116.474724,101.962196 122.977921,101.858192 
M94.497200,74.857964 
	C94.877197,74.153030 95.257202,73.448097 95.637207,72.743172 
	C95.055290,72.588661 94.473366,72.434151 93.891449,72.279633 
	C93.861496,73.086517 93.831535,73.893394 94.497200,74.857964 
z"/>
<path fill="#E0F5F8" opacity="1.000000" stroke="none" 
	d="
M138.386688,99.558868 
	C135.833221,100.474030 133.279755,101.389191 130.726288,102.304359 
	C130.868515,102.723824 131.010757,103.143295 131.153000,103.562759 
	C129.677567,103.040764 128.202148,102.518761 126.362228,101.739166 
	C125.997726,101.481575 125.999748,100.982117 126.294083,100.819633 
	C127.754211,99.798897 128.920013,98.940651 130.372299,98.049454 
	C131.110062,97.663429 131.561325,97.310356 132.363144,96.968040 
	C138.496201,93.663078 140.555817,88.514961 140.425323,82.035950 
	C147.501816,84.424561 154.190872,86.875404 161.049896,89.611069 
	C161.435501,91.866570 161.651154,93.837250 161.478607,95.864365 
	C153.364319,99.767494 145.938599,98.091370 138.386688,93.531334 
	C138.386688,96.316757 138.386688,97.937813 138.386688,99.558868 
z"/>
<path fill="#E7F7F9" opacity="1.000000" stroke="none" 
	d="
M198.003067,66.067146 
	C204.477036,61.355865 211.333969,62.147861 218.655090,64.826996 
	C219.000000,64.999969 218.994675,64.999794 218.994675,64.999794 
	C219.764893,65.680321 220.576202,66.320503 221.294418,67.052086 
	C222.102341,67.875084 223.631470,69.133774 223.434311,69.583168 
	C222.865814,70.878868 221.786285,72.422775 220.548828,72.864510 
	C216.740555,74.223923 212.751282,75.068848 208.868134,76.233070 
	C208.217194,76.428223 207.744598,77.218216 206.364075,78.499603 
	C210.233185,78.223343 213.631622,77.665390 212.617035,82.683807 
	C206.579788,80.392334 200.927994,77.724983 195.545914,74.834091 
	C196.417175,71.162155 197.877380,68.733978 201.958603,69.068909 
	C205.031830,69.321114 208.119217,69.493080 211.201202,69.507401 
	C212.775833,69.514725 214.352417,69.097115 215.928116,68.871567 
	C214.556580,67.785446 213.234772,65.853378 211.804352,65.769325 
	C207.225571,65.500244 202.606552,65.915833 198.003067,66.067146 
z"/>
<path fill="#E1F7FA" opacity="1.000000" stroke="none" 
	d="
M87.036072,58.077770 
	C88.215767,53.667233 91.600494,51.565380 96.251167,52.215267 
	C98.857216,52.579441 101.490601,52.748093 104.929428,53.003952 
	C107.162560,53.337791 108.577927,53.672523 109.993294,54.007256 
	C110.443207,56.439449 110.893127,58.871643 111.470413,61.992344 
	C114.225037,61.866302 117.092728,62.192474 119.685402,61.495541 
	C122.632027,60.703457 124.149734,61.386120 124.666428,64.607834 
	C124.200172,65.064095 123.987709,65.103691 123.334709,65.144264 
	C119.589767,65.236549 116.285370,65.327850 112.539734,65.368225 
	C109.448624,65.346184 106.798752,65.375069 103.687103,65.289734 
	C99.142960,65.125511 95.060600,65.075500 90.906754,64.996071 
	C90.835266,64.966652 90.740852,65.089066 90.756943,64.675415 
	C92.178955,62.246914 93.584877,60.232059 95.169464,58.331146 
	C95.663818,58.451359 95.900131,58.317387 96.469597,58.067505 
	C100.074028,58.698940 103.265938,59.306034 106.668411,59.953182 
	C106.668411,58.650063 106.668411,57.461216 106.668411,54.980228 
	C99.801010,56.063747 93.418541,57.070759 87.036072,58.077770 
z"/>
<path fill="#CEEEF5" opacity="1.000000" stroke="none" 
	d="
M29.024624,101.931000 
	C28.253536,101.605377 27.482449,101.279755 26.379936,100.936035 
	C26.699385,95.393913 27.721443,89.882935 27.916027,84.342880 
	C28.224749,75.553268 27.980452,66.744225 27.997566,57.173775 
	C28.402292,55.983898 28.779564,55.563644 29.143642,55.600037 
	C29.130447,70.658195 29.130447,85.259720 29.130447,99.949402 
	C31.758833,99.949402 33.681419,99.949402 35.911903,99.949402 
	C35.911903,84.930717 35.911903,70.216484 35.911903,55.157906 
	C33.402061,55.157906 31.274258,55.157906 29.111399,54.753006 
	C30.713766,53.593914 32.698437,51.871819 33.909420,52.306271 
	C35.856827,53.004925 38.126373,54.853180 38.741257,56.716759 
	C39.569088,59.225742 38.954990,62.210491 38.958160,65.460663 
	C38.955120,74.069489 38.885300,82.209618 38.996937,90.347267 
	C39.027538,92.577896 39.601765,94.801056 39.926525,97.027649 
	C38.520176,100.781891 35.834633,102.776962 31.245523,102.693054 
	C30.129181,102.281128 29.576902,102.106064 29.024624,101.931000 
z"/>
<path fill="#418AAF" opacity="1.000000" stroke="none" 
	d="
M72.671799,66.916534 
	C76.988014,69.789925 78.439751,73.622108 77.053192,78.481155 
	C75.443726,75.622826 74.746971,72.380676 73.022163,69.835129 
	C71.816399,68.055603 69.003166,66.604836 68.508408,71.047165 
	C63.772636,68.718399 59.380821,67.874428 54.914051,70.705795 
	C54.378212,70.940117 53.842377,71.174438 52.757515,71.766205 
	C51.531990,73.874695 50.355827,75.602287 50.272270,77.381195 
	C50.017162,82.812248 49.844231,88.290550 50.283363,93.698166 
	C50.690945,98.717224 49.332272,101.225922 43.954041,100.322395 
	C43.731770,99.741699 43.509499,99.160995 43.295204,97.817398 
	C43.310219,86.756302 43.317253,76.458115 43.478516,65.999847 
	C44.005722,65.606682 44.378696,65.373589 45.076115,65.337097 
	C46.880672,66.349808 48.360786,67.165916 49.415600,67.981735 
	C46.886230,67.869316 44.924397,67.799126 44.950237,70.854111 
	C45.017822,78.843750 44.879025,86.836952 45.092648,94.821510 
	C45.123405,95.971252 46.645329,97.081100 47.477173,98.209419 
	C47.989563,97.950790 48.501949,97.692162 49.014339,97.433533 
	C49.014339,93.644958 48.765793,89.836136 49.072456,86.072548 
	C49.535172,80.393738 50.385445,74.746498 51.300385,68.876266 
	C52.525410,67.914139 53.521049,67.161583 54.831230,66.390236 
	C55.738914,66.165771 56.332050,65.960091 57.217346,65.801956 
	C58.031086,65.627739 58.552662,65.405975 59.518021,65.175102 
	C62.627201,65.140099 65.292595,65.114204 68.176147,65.288918 
	C68.966919,65.558517 69.539536,65.627510 70.112144,65.696495 
	C70.861336,66.084381 71.610519,66.472260 72.671799,66.916534 
z"/>
<path fill="#F9FDFB" opacity="1.000000" stroke="none" 
	d="
M78.885574,87.005951 
	C79.387123,82.001259 77.872795,76.616631 81.991211,70.853600 
	C81.991211,79.502037 81.989983,86.775200 81.991531,94.048363 
	C81.993446,103.059853 84.375778,104.489998 92.650894,100.117119 
	C92.366844,102.994530 94.738655,106.920036 90.091286,109.197510 
	C89.381081,107.716034 88.801292,106.506615 88.186165,105.223473 
	C82.276680,110.409386 72.087463,109.132347 67.699318,104.229431 
	C67.130844,103.594261 67.448341,102.166138 67.751686,101.397240 
	C70.398392,102.779373 72.648857,103.869591 75.206940,104.945572 
	C75.651955,104.270660 75.789337,103.610001 76.124939,102.686554 
	C76.789116,101.552742 77.255081,100.681725 77.756737,99.816925 
	C77.792427,99.823143 77.755608,99.884590 78.111534,99.663597 
	C78.606827,95.297050 78.746201,91.151505 78.885574,87.005951 
z"/>
<path fill="#F9FDFB" opacity="1.000000" stroke="none" 
	d="
M56.925186,65.754410 
	C56.332050,65.960091 55.738914,66.165771 54.393150,66.246811 
	C50.677570,65.794952 47.714619,65.467728 44.751671,65.140503 
	C44.378696,65.373589 44.005722,65.606682 43.169880,65.954147 
	C42.500191,66.057343 42.293373,66.046165 41.779030,65.907272 
	C40.634254,65.516716 39.797009,65.253876 38.959759,64.991043 
	C38.954990,62.210491 39.569088,59.225742 38.741257,56.716759 
	C38.126373,54.853180 35.856827,53.004925 33.909420,52.306271 
	C32.698437,51.871819 30.713766,53.593914 29.036407,54.681622 
	C28.996473,55.015133 29.156837,55.143394 29.156837,55.143394 
	C28.779564,55.563644 28.402292,55.983898 27.978302,56.706001 
	C26.971050,56.373222 25.173681,55.668285 25.219896,55.118240 
	C25.324017,53.878967 26.138145,51.877491 27.020584,51.664215 
	C31.421413,50.600582 35.937782,50.014992 40.624844,49.225597 
	C43.862240,60.755764 52.950829,61.438465 62.188560,62.052124 
	C64.955490,62.235931 67.681084,63.041943 69.878204,63.831604 
	C68.873192,64.429642 68.415596,64.758972 67.957993,65.088303 
	C65.292595,65.114204 62.627201,65.140099 59.372017,64.931427 
	C58.163212,65.049370 57.544201,65.401894 56.925186,65.754410 
z"/>
<path fill="#267DAE" opacity="1.000000" stroke="none" 
	d="
M195.276199,75.057640 
	C200.927994,77.724983 206.579788,80.392334 212.610229,83.080078 
	C213.150330,83.240204 213.311783,83.379929 213.966003,83.834145 
	C219.547623,87.929688 220.141113,90.051331 217.484070,96.289368 
	C217.322205,96.693954 217.173309,96.909042 216.786972,97.142807 
	C216.540665,97.155342 216.048187,97.183350 216.005585,96.818970 
	C215.514648,95.922485 215.066284,95.390381 214.617920,94.858284 
	C215.338043,92.020683 214.545059,90.401337 211.529663,89.241379 
	C205.070862,86.756821 198.814941,83.744904 192.144012,80.360329 
	C190.891220,78.288589 189.970306,76.805481 189.165390,75.005875 
	C189.762970,73.945724 190.244537,73.202080 190.915955,72.796936 
	C192.495911,73.776169 193.886063,74.416901 195.276199,75.057640 
z"/>
<path fill="#ECF6F8" opacity="1.000000" stroke="none" 
	d="
M219.000031,65.002647 
	C218.668579,62.571079 218.061325,60.136223 218.066696,57.702721 
	C218.076035,53.479748 219.629486,50.560184 224.696579,51.283222 
	C227.433655,51.673786 230.279144,51.472050 232.956406,52.070942 
	C236.111938,52.776829 238.285507,55.370426 236.739029,58.269405 
	C235.299667,60.967594 232.549606,63.670994 229.751938,64.744980 
	C226.868973,65.851707 223.231842,64.993774 219.459686,64.997620 
	C218.994675,64.999794 219.000000,64.999969 219.000031,65.002647 
M231.005432,59.330750 
	C231.010941,58.919300 231.016449,58.507851 231.359268,57.741581 
	C230.575974,57.161053 229.792679,56.580528 228.241714,55.984280 
	C227.489883,55.871929 226.738052,55.759579 225.658524,55.118401 
	C225.164490,54.505936 224.670456,53.893475 224.176422,53.281010 
	C224.672867,55.612411 218.673889,58.401924 225.289017,60.262615 
	C225.521927,60.187244 225.754837,60.111874 225.825867,60.337997 
	C225.825867,60.337997 225.902481,60.671524 226.115173,61.123821 
	C226.770935,61.015919 227.426697,60.908016 228.537003,60.810940 
	C228.814957,60.682842 229.105240,60.595795 230.039520,60.722843 
	C230.359894,60.465134 230.680283,60.207428 231.005432,59.330750 
z"/>
<path fill="#3E86AA" opacity="1.000000" stroke="none" 
	d="
M214.288269,94.993683 
	C215.066284,95.390381 215.514648,95.922485 215.929535,97.038231 
	C215.883347,98.101997 215.870605,98.582130 215.679871,99.365631 
	C212.667938,100.509262 209.834015,101.349525 207.000076,102.189796 
	C203.916153,102.169441 200.832230,102.149078 197.379883,102.120758 
	C189.872101,101.757675 187.362549,99.801651 188.072723,95.062340 
	C188.159592,94.482704 188.722641,93.974426 189.285522,93.084450 
	C197.181152,98.071823 205.307159,100.619392 214.288269,94.993683 
z"/>
<path fill="#F0FAF8" opacity="1.000000" stroke="none" 
	d="
M166.902100,110.003036 
	C165.448212,109.006355 163.994308,108.009682 162.540421,107.013000 
	C162.789413,106.435814 163.038406,105.858627 163.287415,105.281441 
	C159.524658,106.936264 156.187317,107.514771 155.237762,102.124847 
	C155.780197,101.703087 156.098038,101.776855 156.881226,101.888199 
	C165.427261,101.851006 166.668472,101.066597 167.043091,95.596985 
	C167.467575,94.891182 167.793182,94.448730 168.505219,94.002319 
	C169.977676,93.231651 171.063690,92.464958 172.450714,91.770660 
	C173.224014,92.467491 173.696304,93.091927 174.112030,94.089851 
	C174.396500,95.333900 174.737518,96.204453 175.030670,97.373169 
	C174.422104,98.491730 173.861389,99.312126 172.996185,100.239227 
	C172.563126,100.737167 172.434540,101.128387 172.301514,101.654831 
	C172.297073,101.790039 172.112869,101.988235 171.845764,102.140732 
	C171.459015,102.672058 171.339386,103.050896 171.113220,103.741463 
	C169.638489,106.036469 168.270294,108.019753 166.902100,110.003036 
z"/>
<path fill="#3C87B0" opacity="1.000000" stroke="none" 
	d="
M174.168579,93.716354 
	C173.696304,93.091927 173.224014,92.467491 172.458313,91.420578 
	C171.108612,88.665314 170.052353,86.332535 169.321960,83.996681 
	C170.081207,84.014320 170.514557,84.035034 171.098114,84.362091 
	C173.161865,87.117790 175.075424,89.567131 176.993164,92.007492 
	C176.997330,91.998520 176.979874,92.013123 176.972107,92.419342 
	C176.964340,94.560196 176.964340,96.294830 176.964340,98.350540 
	C178.606644,96.979477 179.801483,95.981972 181.024353,95.359337 
	C181.062485,95.984619 181.072601,96.235031 181.020721,96.814835 
	C179.763458,99.642998 178.568207,102.141754 177.148621,104.868805 
	C175.565582,107.041283 174.206894,108.985466 172.848206,110.929657 
	C170.976074,110.823151 169.103958,110.716644 167.066956,110.306595 
	C168.270294,108.019753 169.638489,106.036469 171.357727,103.568962 
	C171.843460,102.719238 171.978165,102.353737 172.112869,101.988235 
	C172.112869,101.988235 172.297073,101.790039 172.545441,101.485931 
	C172.962769,100.832047 173.131714,100.482277 173.300659,100.132507 
	C173.861389,99.312126 174.422104,98.491730 175.264771,97.193039 
	C175.087326,95.715279 174.627945,94.715820 174.168579,93.716354 
z"/>
<path fill="#418AAB" opacity="1.000000" stroke="none" 
	d="
M156.415863,101.850632 
	C156.098038,101.776855 155.780197,101.703087 155.235413,101.748184 
	C154.561600,101.850220 154.114761,101.833374 152.904053,101.800903 
	C147.544479,101.082260 142.948776,100.379234 138.353073,99.676208 
	C138.353073,99.676208 138.367752,99.617958 138.377228,99.588409 
	C138.386688,97.937813 138.386688,96.316757 138.386688,93.531334 
	C145.938599,98.091370 153.364319,99.767494 161.657135,96.133804 
	C162.810059,96.557884 163.396271,96.768959 164.237122,96.985855 
	C164.831085,96.989998 165.170395,96.988304 165.348236,97.253952 
	C162.263138,98.964409 159.339508,100.407524 156.415863,101.850632 
z"/>
<path fill="#357CA3" opacity="1.000000" stroke="none" 
	d="
M195.545914,74.834091 
	C193.886063,74.416901 192.495911,73.776169 190.911209,72.489494 
	C190.830063,71.235741 190.943466,70.627922 191.056870,70.020096 
	C191.634567,69.547859 192.212265,69.075630 193.241669,68.278778 
	C194.918396,67.355370 196.143417,66.756577 197.368454,66.157791 
	C197.368454,66.157784 197.705185,66.247658 197.854126,66.157402 
	C202.606552,65.915833 207.225571,65.500244 211.804352,65.769325 
	C213.234772,65.853378 214.556580,67.785446 215.928116,68.871567 
	C214.352417,69.097115 212.775833,69.514725 211.201202,69.507401 
	C208.119217,69.493080 205.031830,69.321114 201.958603,69.068909 
	C197.877380,68.733978 196.417175,71.162155 195.545914,74.834091 
z"/>
<path fill="#3D88AE" opacity="1.000000" stroke="none" 
	d="
M130.085800,98.082405 
	C128.920013,98.940651 127.754211,99.798897 126.006058,100.821388 
	C125.107155,101.188499 124.790634,101.391365 124.474106,101.594231 
	C124.134651,101.618996 123.795197,101.643761 123.216827,101.763359 
	C116.474724,101.962196 110.044434,101.758377 104.734131,97.223808 
	C105.663338,96.195747 106.433083,95.443100 107.539444,94.725311 
	C108.913933,95.184563 109.951805,95.608948 111.161026,96.260757 
	C111.870705,96.664932 112.409035,96.841682 113.230103,97.315613 
	C116.703812,97.443825 119.894783,97.274864 123.086792,97.117355 
	C123.087837,97.128815 123.109917,97.136490 123.464371,97.155800 
	C125.482399,96.319443 127.145981,95.463776 128.863312,94.992584 
	C129.306641,96.278839 129.696213,97.180626 130.085800,98.082405 
z"/>
<path fill="#F9FCF7" opacity="1.000000" stroke="none" 
	d="
M207.080673,102.544167 
	C209.834015,101.349525 212.667938,100.509262 215.942535,99.214714 
	C216.599884,98.217041 216.816574,97.673660 217.033279,97.130272 
	C217.173309,96.909042 217.322205,96.693954 217.896576,96.272354 
	C219.868362,96.370628 221.423492,96.681557 222.978638,96.992477 
	C224.404816,102.049934 221.123398,105.232086 219.365356,107.918449 
	C216.198746,106.762810 213.744919,105.933105 211.345963,104.967117 
	C209.906769,104.387589 208.553284,103.595238 207.080673,102.544167 
z"/>
<path fill="#F9FDFB" opacity="1.000000" stroke="none" 
	d="
M93.322357,100.037811 
	C92.965965,93.672340 92.924728,87.382950 93.016502,81.095505 
	C93.032051,80.030464 93.619659,78.973778 94.645348,77.931793 
	C92.404984,86.486130 98.175262,92.435532 100.997482,99.630272 
	C99.314217,101.481857 97.592888,102.973648 95.860924,104.474663 
	C95.128929,103.009735 94.405609,101.562141 93.322357,100.037811 
z"/>
<path fill="#E7F7F9" opacity="1.000000" stroke="none" 
	d="
M222.984192,96.597626 
	C221.423492,96.681557 219.868362,96.370628 217.900696,96.076729 
	C220.141113,90.051331 219.547623,87.929688 214.275940,83.914833 
	C216.357361,78.356598 220.141068,82.001686 222.989731,81.429665 
	C222.989731,86.819954 222.989731,91.511368 222.984192,96.597626 
z"/>
<path fill="#CCEBF4" opacity="1.000000" stroke="none" 
	d="
M143.661224,66.008530 
	C146.145187,65.676247 148.289749,65.356514 150.551544,65.311111 
	C148.443115,66.422455 146.217468,67.259476 143.648315,68.144402 
	C141.304291,69.940742 139.303787,71.689178 137.353241,73.393944 
	C136.198334,72.701996 134.707397,71.808723 133.024872,70.624359 
	C130.904419,69.207733 128.975586,68.082199 127.088234,66.708603 
	C127.118095,66.293259 127.106461,66.125992 127.094818,65.958717 
	C130.347214,66.418594 133.599609,66.878479 136.852005,67.338364 
	C136.760422,67.686378 136.668854,68.034393 136.577271,68.382408 
	C138.825455,67.595299 141.073654,66.808197 143.661224,66.008530 
z"/>
<path fill="#266F99" opacity="1.000000" stroke="none" 
	d="
M86.982864,58.310936 
	C93.418541,57.070759 99.801010,56.063747 106.668411,54.980228 
	C106.668411,57.461216 106.668411,58.650063 106.668411,59.953182 
	C103.265938,59.306034 100.074028,58.698940 96.284386,58.013832 
	C95.414108,57.929314 95.182159,58.023109 94.990799,58.217205 
	C93.584877,60.232059 92.178955,62.246914 90.449417,64.588150 
	C88.736099,63.569191 87.346405,62.223862 85.956711,60.878532 
	C85.956711,60.878532 85.992958,60.499985 86.264343,60.213947 
	C86.623596,59.620049 86.711449,59.312183 86.799309,59.004322 
	C86.799309,59.004322 86.929665,58.544106 86.982864,58.310936 
z"/>
<path fill="#097ABD" opacity="1.000000" stroke="none" 
	d="
M85.674973,61.006561 
	C87.346405,62.223862 88.736099,63.569191 90.433319,65.001793 
	C90.740852,65.089066 90.835266,64.966652 90.906784,65.300423 
	C91.325363,66.092400 91.672440,66.550613 92.019516,67.008820 
	C91.661171,67.786980 91.302826,68.565132 90.500412,69.659546 
	C89.333046,70.364517 88.609764,70.753235 87.617981,70.963409 
	C86.346664,70.495216 85.343842,70.205574 84.341019,69.915924 
	C84.341019,69.915924 84.105072,69.536995 84.027512,68.938049 
	C84.267494,66.519295 84.585045,64.699478 84.902588,62.879669 
	C85.066139,62.297974 85.229683,61.716278 85.674973,61.006561 
z"/>
<path fill="#CEEEF5" opacity="1.000000" stroke="none" 
	d="
M77.721046,99.810699 
	C77.255081,100.681725 76.789116,101.552742 75.888412,102.863907 
	C75.268890,103.855965 75.084106,104.407883 74.899323,104.959808 
	C72.648857,103.869591 70.398392,102.779373 68.095596,101.348358 
	C68.042900,100.559875 68.042542,100.112175 68.041451,99.328644 
	C68.661095,98.323204 69.281471,97.653603 70.340904,97.331451 
	C71.843597,102.459663 75.156548,99.916718 77.721046,99.810699 
z"/>
<path fill="#E0F5F8" opacity="1.000000" stroke="none" 
	d="
M138.249786,100.067322 
	C142.948776,100.379234 147.544479,101.082260 152.576767,101.881073 
	C148.636200,105.391144 143.967178,104.699684 139.314209,102.779465 
	C138.708801,102.529625 138.525391,101.257210 138.249786,100.067322 
z"/>
<path fill="#F9FCF7" opacity="1.000000" stroke="none" 
	d="
M110.354744,53.998676 
	C108.577927,53.672523 107.162560,53.337791 105.374969,53.001228 
	C105.002747,52.035225 105.002747,51.071060 105.002747,49.810905 
	C106.965111,49.913307 108.750381,49.760361 110.381966,50.190468 
	C111.260880,50.422165 111.876503,51.652695 112.610924,52.432564 
	C111.979347,52.951740 111.347771,53.470917 110.354744,53.998676 
z"/>
<path fill="#EEFAF9" opacity="1.000000" stroke="none" 
	d="
M173.158432,110.974327 
	C174.206894,108.985466 175.565582,107.041283 177.574524,104.967255 
	C178.801697,104.873932 179.378601,104.910461 179.955521,104.946991 
	C178.541122,107.421356 177.126709,109.895721 175.732697,112.334427 
	C174.841705,111.816757 174.155182,111.417877 173.158432,110.974327 
z"/>
<path fill="#3F8AB5" opacity="1.000000" stroke="none" 
	d="
M84.591667,63.025208 
	C84.585045,64.699478 84.267494,66.519295 83.921967,68.741386 
	C81.942329,68.328636 78.052773,71.043159 78.692993,65.901657 
	C80.775101,64.854294 82.527924,64.012520 84.591667,63.025208 
z"/>
<path fill="#CEEEF5" opacity="1.000000" stroke="none" 
	d="
M179.986099,104.655746 
	C179.378601,104.910461 178.801697,104.873932 177.798859,104.738968 
	C178.568207,102.141754 179.763458,99.642998 181.222656,96.573853 
	C181.649429,95.624710 181.812271,95.245964 182.185242,94.814835 
	C182.395386,94.762459 182.804550,94.620346 182.804565,94.620346 
	C182.199432,97.143394 181.594299,99.666435 180.973572,102.579437 
	C180.644211,103.434433 180.330444,103.899467 179.986099,104.655746 
z"/>
<path fill="#E7F7F9" opacity="1.000000" stroke="none" 
	d="
M196.977478,66.098686 
	C196.143417,66.756577 194.918396,67.355370 193.346695,68.008133 
	C193.001526,67.607582 193.003036,67.153061 193.006226,66.358116 
	C193.007935,66.017700 193.002960,66.001625 193.341095,66.002457 
	C194.122681,65.997948 194.566101,65.992622 195.009537,65.987297 
	C195.535187,66.004723 196.060837,66.022156 196.977478,66.098686 
z"/>
<path fill="#CCEBF4" opacity="1.000000" stroke="none" 
	d="
M68.176147,65.288918 
	C68.415596,64.758972 68.873192,64.429642 69.621529,64.068634 
	C69.965660,64.404755 70.019058,64.772568 70.092300,65.418434 
	C69.539536,65.627510 68.966919,65.558517 68.176147,65.288918 
z"/>
<path fill="#F0F9F9" opacity="1.000000" stroke="none" 
	d="
M194.860077,65.764725 
	C194.566101,65.992622 194.122681,65.997948 193.347015,66.005226 
	C193.580063,65.852165 194.145340,65.697159 194.860077,65.764725 
z"/>
<path fill="#CCEBF4" opacity="1.000000" stroke="none" 
	d="
M123.775246,65.143280 
	C123.987709,65.103691 124.200172,65.064095 124.733688,64.975555 
	C125.326836,65.022972 125.562645,65.175446 125.874908,65.724182 
	C125.987648,66.064323 126.064903,66.365845 125.726364,66.278580 
	C124.929802,66.107796 124.471771,66.024269 123.982956,65.732758 
	C123.952156,65.524765 123.775246,65.143280 123.775246,65.143280 
z"/>
<path fill="#589EC6" opacity="1.000000" stroke="none" 
	d="
M126.809250,65.933487 
	C127.106461,66.125992 127.118095,66.293259 126.884285,66.687408 
	C126.355530,66.827736 126.164215,66.644928 126.064903,66.365845 
	C126.064903,66.365845 125.987648,66.064323 125.979706,65.908585 
	C126.155731,65.804642 126.339699,65.856445 126.809250,65.933487 
z"/>
<path fill="#CFF0F8" opacity="1.000000" stroke="none" 
	d="
M124.843582,101.727112 
	C124.790634,101.391365 125.107155,101.188499 125.711716,100.983871 
	C125.999748,100.982117 125.997726,101.481575 125.993393,101.731049 
	C125.730392,101.940346 125.471725,101.900169 124.843582,101.727112 
z"/>
<path fill="#E1F7FA" opacity="1.000000" stroke="none" 
	d="
M86.610931,59.143559 
	C86.711449,59.312183 86.623596,59.620049 86.292282,60.025871 
	C86.066772,59.796097 86.191345,59.515747 86.610931,59.143559 
z"/>
<path fill="#FEFEFE" opacity="1.000000" stroke="none" 
	d="
M38.958160,65.460663 
	C39.797009,65.253876 40.634254,65.516716 41.763832,66.371750 
	C42.051212,74.427193 42.126728,81.891846 41.997028,89.352928 
	C41.952534,91.912575 41.394691,94.463303 41.071381,97.018105 
	C40.880817,97.016968 40.690258,97.015839 40.213112,97.021179 
	C39.601765,94.801056 39.027538,92.577896 38.996937,90.347267 
	C38.885300,82.209618 38.955120,74.069489 38.958160,65.460663 
z"/>
<path fill="#CEEEF5" opacity="1.000000" stroke="none" 
	d="
M44.056717,100.659340 
	C49.332272,101.225922 50.690945,98.717224 50.283363,93.698166 
	C49.844231,88.290550 50.017162,82.812248 50.272270,77.381195 
	C50.355827,75.602287 51.531990,73.874695 52.571220,71.996490 
	C52.614674,78.260490 52.167622,84.649094 52.040424,91.044067 
	C51.991077,93.524658 52.664867,96.019630 53.103813,99.191452 
	C50.839981,101.046547 48.091953,103.219490 44.056717,100.659340 
z"/>
<path fill="#418AAF" opacity="1.000000" stroke="none" 
	d="
M77.756737,99.816925 
	C75.156548,99.916718 71.843597,102.459663 70.655838,97.316864 
	C70.577057,91.973969 70.622406,86.993111 70.717445,81.131760 
	C70.759583,77.904541 70.752029,75.557808 71.100517,73.421860 
	C71.634583,80.062927 71.675827,86.501961 72.086609,92.917328 
	C72.189537,94.524857 73.480125,96.056328 74.224884,97.622757 
	C74.837593,96.082916 75.773720,94.588837 75.999367,92.994225 
	C76.564758,88.998749 76.808365,84.957733 77.181046,80.934990 
	C77.356491,82.698708 77.531937,84.462425 77.707970,87.075699 
	C77.724243,91.911697 77.739929,95.898140 77.755608,99.884590 
	C77.755608,99.884590 77.792427,99.823143 77.756737,99.816925 
z"/>
<path fill="#CEEEF5" opacity="1.000000" stroke="none" 
	d="
M70.744469,73.211067 
	C70.752029,75.557808 70.759583,77.904541 70.642700,80.678894 
	C69.528725,79.740906 67.697784,78.373817 67.700180,77.009956 
	C67.708977,71.996727 64.622665,69.828560 59.803856,71.632454 
	C58.491844,72.123604 56.761848,71.498184 55.068867,71.045502 
	C59.380821,67.874428 63.772636,68.718399 68.516205,71.028442 
	C68.896774,71.081451 68.888901,71.097130 68.990685,71.368141 
	C69.647957,72.159050 70.203438,72.678940 70.769493,73.201668 
	C70.780060,73.204498 70.744469,73.211067 70.744469,73.211067 
z"/>
<path fill="#CEEEF5" opacity="1.000000" stroke="none" 
	d="
M41.239700,97.267593 
	C41.394691,94.463303 41.952534,91.912575 41.997028,89.352928 
	C42.126728,81.891846 42.051212,74.427193 42.071358,66.499466 
	C42.293373,66.046165 42.500191,66.057343 43.015648,66.114227 
	C43.317253,76.458115 43.310219,86.756302 43.214039,97.514671 
	C42.552605,97.822258 41.980312,97.669678 41.239700,97.267593 
z"/>
<path fill="#FEFEFE" opacity="1.000000" stroke="none" 
	d="
M29.020502,102.273605 
	C29.576902,102.106064 30.129181,102.281128 30.856518,102.692291 
	C30.639162,103.454407 30.246744,103.980423 29.854326,104.506447 
	C29.575012,103.876366 29.295696,103.246292 29.020502,102.273605 
z"/>
<path fill="#3882A9" opacity="1.000000" stroke="none" 
	d="
M183.014709,94.344452 
	C182.804550,94.620346 182.395386,94.762459 182.185944,94.493149 
	C181.680542,93.477402 181.384598,92.730980 181.058746,91.679169 
	C181.035965,90.966286 181.043137,90.558800 181.050308,90.151314 
	C182.145828,87.901497 183.241364,85.651680 185.031189,83.176620 
	C186.665039,83.035149 187.604614,83.118919 188.544189,83.202682 
	C186.771072,86.824646 184.997971,90.446594 183.014709,94.344452 
z"/>
<path fill="#3F8AB5" opacity="1.000000" stroke="none" 
	d="
M188.814774,83.027344 
	C187.604614,83.118919 186.665039,83.035149 185.255035,82.929932 
	C184.812363,82.470673 184.840149,82.032845 185.220413,81.122650 
	C186.121063,79.490578 186.669235,78.330887 187.217407,77.171188 
	C187.217422,77.171196 187.198288,77.062744 187.426773,76.997192 
	C188.119965,76.395226 188.584671,75.858803 189.049393,75.322380 
	C189.970306,76.805481 190.891220,78.288589 191.926208,80.060013 
	C191.055313,81.182884 190.070343,82.017448 188.814774,83.027344 
z"/>
<path fill="#3E86AA" opacity="1.000000" stroke="none" 
	d="
M143.991821,68.096497 
	C146.217468,67.259476 148.443115,66.422455 150.965988,65.379410 
	C154.929688,65.346977 158.596161,65.520584 162.386658,66.144913 
	C160.489761,67.732979 156.895767,63.834969 155.585541,68.583008 
	C152.203278,69.062111 149.251389,69.582878 146.010406,69.983688 
	C145.144821,69.274658 144.568329,68.685577 143.991821,68.096497 
z"/>
<path fill="#247DAA" opacity="1.000000" stroke="none" 
	d="
M156.015884,68.624680 
	C156.895767,63.834969 160.489761,67.732979 162.729828,66.345924 
	C163.406784,66.090363 163.864594,66.084518 164.650604,66.520973 
	C165.010910,67.596970 165.042999,68.230675 164.813629,69.094833 
	C164.988892,71.924774 165.425598,74.524261 165.575287,76.938660 
	C162.717697,73.450554 161.944702,68.097069 156.015884,68.624680 
z"/>
<path fill="#247DAA" opacity="1.000000" stroke="none" 
	d="
M167.851974,69.017929 
	C169.940674,72.716362 172.029388,76.414795 174.072937,80.543701 
	C174.027786,80.974182 173.869522,81.120468 173.559235,81.025299 
	C171.793060,80.304153 170.337173,79.678192 168.632370,78.915833 
	C167.913101,78.193367 167.442749,77.607285 167.322723,76.959488 
	C167.433273,74.285126 167.193512,71.672470 167.178650,69.057083 
	C167.403580,69.054352 167.851974,69.017929 167.851974,69.017929 
z"/>
<path fill="#247DAA" opacity="1.000000" stroke="none" 
	d="
M174.106934,80.901047 
	C175.789337,83.563904 177.392578,86.299896 178.994598,89.730247 
	C178.322220,90.954109 177.651047,91.483620 176.979874,92.013123 
	C176.979874,92.013123 176.997330,91.998520 176.999268,91.613815 
	C175.957306,87.859558 174.913422,84.490013 173.869537,81.120468 
	C173.869522,81.120468 174.027786,80.974182 174.106934,80.901047 
z"/>
<path fill="#0D7AB7" opacity="1.000000" stroke="none" 
	d="
M176.972107,92.419342 
	C177.651047,91.483620 178.322220,90.954109 179.033600,90.071686 
	C179.504089,89.863472 179.934357,90.008179 180.707474,90.152100 
	C181.043137,90.558800 181.035965,90.966286 181.036041,92.053864 
	C181.027634,93.484123 181.011978,94.234291 180.996338,94.984467 
	C179.801483,95.981972 178.606644,96.979477 176.964340,98.350540 
	C176.964340,96.294830 176.964340,94.560196 176.972107,92.419342 
z"/>
<path fill="#E7F7F9" opacity="1.000000" stroke="none" 
	d="
M189.165390,75.005875 
	C188.584671,75.858803 188.119965,76.395226 187.407272,77.048691 
	C188.236816,74.870201 189.314362,72.574669 190.724380,70.149612 
	C190.943466,70.627922 190.830063,71.235741 190.721375,72.151001 
	C190.244537,73.202080 189.762970,73.945724 189.165390,75.005875 
z"/>
<path fill="#E7F7F9" opacity="1.000000" stroke="none" 
	d="
M186.855316,77.120331 
	C186.669235,78.330887 186.121063,79.490578 185.278519,80.797989 
	C185.322876,79.589676 182.527283,77.013390 186.855316,77.120331 
z"/>
<path fill="#3E86AA" opacity="1.000000" stroke="none" 
	d="
M167.840424,68.690529 
	C167.851974,69.017929 167.403580,69.054352 166.866608,69.015747 
	C165.911438,68.939560 165.493256,68.901970 165.075073,68.864372 
	C165.042999,68.230675 165.010910,67.596970 164.972717,66.646469 
	C165.920700,67.007484 166.874786,67.685303 167.840424,68.690529 
z"/>
<path fill="#0C78B8" opacity="1.000000" stroke="none" 
	d="
M77.224716,80.623550 
	C76.808365,84.957733 76.564758,88.998749 75.999367,92.994225 
	C75.773720,94.588837 74.837593,96.082916 74.224884,97.622757 
	C73.480125,96.056328 72.189537,94.524857 72.086609,92.917328 
	C71.675827,86.501961 71.634583,80.062927 71.100517,73.421860 
	C70.744469,73.211067 70.780060,73.204498 70.809952,72.857407 
	C70.189537,72.039253 69.539223,71.568192 68.888901,71.097130 
	C68.888901,71.097130 68.896774,71.081451 68.888977,71.100174 
	C69.003166,66.604836 71.816399,68.055603 73.022163,69.835129 
	C74.746971,72.380676 75.443726,75.622826 76.877174,78.814064 
	C77.206032,79.477783 77.237206,79.894951 77.224716,80.623550 
z"/>
<path fill="#137CBA" opacity="1.000000" stroke="none" 
	d="
M107.202827,94.690445 
	C106.433083,95.443100 105.663338,96.195747 104.562958,96.935684 
	C102.476051,94.228935 100.719772,91.534904 98.971657,88.009041 
	C99.284630,83.074997 99.589424,78.972786 99.894226,74.870575 
	C99.894226,74.870575 99.909637,74.981827 100.229553,74.935562 
	C101.336487,73.800201 102.123512,72.711113 102.910538,71.622025 
	C103.777519,70.947533 104.644508,70.273048 106.039246,69.382294 
	C107.296051,69.982613 108.025093,70.799202 108.681488,71.601845 
	C108.608841,71.587898 108.486496,71.511497 108.273544,71.405441 
	C107.919510,71.358551 107.778435,71.417725 107.637352,71.476898 
	C107.853523,71.667236 108.069695,71.857574 108.232964,72.298141 
	C108.124001,72.709381 108.067940,72.870399 107.688232,73.079834 
	C106.743149,74.100121 106.121704,75.071999 105.333153,76.296051 
	C105.128571,76.746414 105.091095,76.944588 104.759811,77.267319 
	C103.960091,78.212387 103.454193,79.032898 102.705917,79.964722 
	C102.638786,80.396164 102.814034,80.716301 102.972565,81.393860 
	C101.653915,86.956329 105.186974,90.574394 107.202827,94.690445 
z"/>
<path fill="#1B74A7" opacity="1.000000" stroke="none" 
	d="
M108.754135,71.615791 
	C108.025093,70.799202 107.296051,69.982613 106.140656,69.120316 
	C105.153694,68.618668 104.593102,68.162727 104.018616,67.158401 
	C104.052780,66.207993 104.100830,65.805977 104.148880,65.403954 
	C106.798752,65.375069 109.448624,65.346184 112.869049,65.577240 
	C117.097656,65.871704 120.555702,65.906219 124.013748,65.940742 
	C124.471771,66.024269 124.929802,66.107796 125.726364,66.278580 
	C126.164215,66.644928 126.355530,66.827736 126.842796,66.935478 
	C128.975586,68.082199 130.904419,69.207733 132.618103,70.657761 
	C131.451874,71.767395 130.500824,72.552521 129.223541,73.233688 
	C122.510124,68.271873 115.832077,67.283516 108.754135,71.615791 
M109.427658,67.705574 
	C109.701698,67.991943 109.973045,68.281242 110.263809,68.549461 
	C110.271873,68.556900 110.488281,68.338478 110.607536,68.225380 
	C110.332962,67.938873 110.058388,67.652374 109.427658,67.705574 
z"/>
<path fill="#097ABD" opacity="1.000000" stroke="none" 
	d="
M84.570229,92.099556 
	C84.486290,91.597763 84.402359,91.095970 84.721542,90.177307 
	C84.918839,86.134041 84.713005,82.507645 84.507172,78.881256 
	C84.452629,77.875954 84.398079,76.870659 84.728386,75.399719 
	C86.047859,73.909874 86.982483,72.885666 88.094711,72.251976 
	C88.535515,80.771240 88.798714,88.899994 89.043289,97.027130 
	C89.024666,97.025528 89.002647,97.050529 88.782318,97.133957 
	C88.277786,97.395050 88.106476,97.648911 88.034760,97.994293 
	C88.021477,98.009628 88.007309,98.048157 87.637405,97.959236 
	C86.368401,95.946732 85.469315,94.023140 84.570229,92.099556 
z"/>
<path fill="#2D7EA6" opacity="1.000000" stroke="none" 
	d="
M89.061913,97.028740 
	C88.798714,88.899994 88.535515,80.771240 88.095596,72.072525 
	C87.918869,71.502556 87.886475,71.141953 87.886475,71.141953 
	C88.609764,70.753235 89.333046,70.364517 90.382782,69.964554 
	C90.768013,73.338959 90.826805,76.724617 90.648476,80.723770 
	C90.532303,81.884346 90.653259,82.431435 90.774200,82.978516 
	C90.813179,87.335701 90.852165,91.692886 90.546371,96.521469 
	C89.821701,97.004829 89.441811,97.016785 89.061913,97.028740 
z"/>
<path fill="#2379AA" opacity="1.000000" stroke="none" 
	d="
M99.569565,75.045631 
	C99.589424,78.972786 99.284630,83.074997 98.964966,87.636971 
	C95.899796,84.720612 95.991478,80.716270 99.569565,75.045631 
z"/>
<path fill="#589EC6" opacity="1.000000" stroke="none" 
	d="
M103.687103,65.289734 
	C104.100830,65.805977 104.052780,66.207993 103.914780,66.901367 
	C103.390907,67.100677 102.957001,67.008629 102.028610,66.641937 
	C100.728287,66.521111 99.922440,66.674919 99.116592,66.828720 
	C97.045952,66.870461 94.975319,66.912193 92.462097,66.981377 
	C91.672440,66.550613 91.325363,66.092400 90.978264,65.329842 
	C95.060600,65.075500 99.142960,65.125511 103.687103,65.289734 
z"/>
<path fill="#3F8AB5" opacity="1.000000" stroke="none" 
	d="
M84.363907,79.331818 
	C84.713005,82.507645 84.918839,86.134041 84.792694,89.927567 
	C84.380692,86.657257 84.300667,83.219818 84.363907,79.331818 
z"/>
<path fill="#3F8AB5" opacity="1.000000" stroke="none" 
	d="
M87.617981,70.963409 
	C87.886475,71.141953 87.918869,71.502556 87.917984,71.682007 
	C86.982483,72.885666 86.047859,73.909874 84.810593,75.029053 
	C84.387611,73.674057 84.267273,72.224098 84.243973,70.345032 
	C85.343842,70.205574 86.346664,70.495216 87.617981,70.963409 
z"/>
<path fill="#CEEEF5" opacity="1.000000" stroke="none" 
	d="
M78.111534,99.663597 
	C77.739929,95.898140 77.724243,91.911697 77.765671,87.466431 
	C78.000359,87.006668 78.177948,87.005707 78.620560,87.005348 
	C78.746201,91.151505 78.606827,95.297050 78.111534,99.663597 
z"/>
<path fill="#2D7EA6" opacity="1.000000" stroke="none" 
	d="
M84.502289,92.533508 
	C85.469315,94.023140 86.368401,95.946732 87.644257,98.310150 
	C87.976990,99.217430 87.932961,99.684883 87.888931,100.152328 
	C87.465240,100.175430 87.041557,100.198540 86.158951,99.899330 
	C85.349861,99.418037 84.999687,99.259056 84.649506,99.100075 
	C84.577789,97.055870 84.506073,95.011665 84.502289,92.533508 
z"/>
<path fill="#F9FDFB" opacity="1.000000" stroke="none" 
	d="
M94.149391,74.779121 
	C93.831535,73.893394 93.861496,73.086517 93.891449,72.279633 
	C94.473366,72.434151 95.055290,72.588661 95.637207,72.743172 
	C95.257202,73.448097 94.877197,74.153030 94.149391,74.779121 
z"/>
<path fill="#3F8AB5" opacity="1.000000" stroke="none" 
	d="
M87.916336,100.132225 
	C87.932961,99.684883 87.976990,99.217430 88.014160,98.399071 
	C88.007309,98.048157 88.021477,98.009628 88.249641,97.905472 
	C88.743858,97.614761 88.918808,97.364494 89.002647,97.050529 
	C89.002647,97.050529 89.024666,97.025528 89.043289,97.027130 
	C89.441811,97.016785 89.821701,97.004829 90.486748,96.980736 
	C90.504593,97.994560 90.237289,99.020523 89.277481,100.059380 
	C88.359215,100.066360 88.133461,100.060432 87.907707,100.054497 
	C87.907707,100.054497 87.943748,100.112122 87.916336,100.132225 
z"/>
<path fill="#2379AA" opacity="1.000000" stroke="none" 
	d="
M102.578857,71.729660 
	C102.123512,72.711113 101.336487,73.800201 100.193512,74.892487 
	C100.640770,73.876228 101.443977,72.856758 102.578857,71.729660 
z"/>
<path fill="#2379AA" opacity="1.000000" stroke="none" 
	d="
M99.457397,66.893509 
	C99.922440,66.674919 100.728287,66.521111 101.699966,66.589172 
	C101.176605,66.860130 100.487396,66.909218 99.457397,66.893509 
z"/>
<path fill="#3F8AB5" opacity="1.000000" stroke="none" 
	d="
M90.856552,82.656387 
	C90.653259,82.431435 90.532303,81.884346 90.593872,81.181137 
	C90.830551,81.461426 90.884727,81.897835 90.856552,82.656387 
z"/>
<path fill="#2D7EA6" opacity="1.000000" stroke="none" 
	d="
M88.044571,100.192444 
	C88.133461,100.060432 88.359215,100.066360 88.925407,100.067070 
	C88.904381,100.151367 88.542908,100.240883 88.044571,100.192444 
z"/>
<path fill="#3F8AB5" opacity="1.000000" stroke="none" 
	d="
M84.746346,99.401276 
	C84.999687,99.259056 85.349861,99.418037 85.846092,99.832161 
	C85.609154,99.959023 85.226173,99.830742 84.746346,99.401276 
z"/>
<path fill="#187BB7" opacity="1.000000" stroke="none" 
	d="
M129.549759,73.337646 
	C130.500824,72.552521 131.451874,71.767395 132.809692,70.948860 
	C134.707397,71.808723 136.198334,72.701996 137.353241,73.393944 
	C139.303787,71.689178 141.304291,69.940742 143.648315,68.144402 
	C144.568329,68.685577 145.144821,69.274658 145.850677,70.280090 
	C143.406906,73.957733 144.203949,76.364258 147.858170,78.018738 
	C150.892899,79.392754 153.939743,80.740082 157.065155,82.422195 
	C158.436981,83.447075 159.724869,84.148994 161.005859,85.297974 
	C160.959274,86.938766 160.919601,88.132507 160.879929,89.326248 
	C154.190872,86.875404 147.501816,84.424561 140.183212,81.891319 
	C138.653259,84.776054 137.885483,87.794479 136.770142,90.678482 
	C136.443420,91.523293 135.128891,91.986076 134.267105,92.623955 
	C133.823288,91.722893 133.379471,90.821838 133.106461,89.550827 
	C135.551544,83.408676 133.262344,78.610779 130.200470,73.892143 
	C130.128174,73.610077 129.894180,73.448242 129.634918,73.304214 
	C129.609619,73.322021 129.549759,73.337646 129.549759,73.337646 
z"/>
<path fill="#2379AA" opacity="1.000000" stroke="none" 
	d="
M132.935654,89.920776 
	C133.379471,90.821838 133.823288,91.722893 134.267105,92.623955 
	C135.128891,91.986076 136.443420,91.523293 136.770142,90.678482 
	C137.885483,87.794479 138.653259,84.776054 139.795776,81.953552 
	C140.555817,88.514961 138.496201,93.663078 132.354584,96.624161 
	C131.360275,95.515640 130.725082,94.761765 130.076599,93.833450 
	C130.063309,93.658997 130.040756,93.310234 130.287537,93.089066 
	C131.334778,91.885513 132.135208,90.903145 132.935654,89.920776 
z"/>
<path fill="#0C78B8" opacity="1.000000" stroke="none" 
	d="
M161.049896,89.611069 
	C160.919601,88.132507 160.959274,86.938766 161.406952,85.318748 
	C162.330322,84.759590 162.845657,84.626709 163.355087,84.534653 
	C163.349167,84.575470 163.430847,84.586952 163.413406,84.949860 
	C165.903885,89.085609 168.171906,92.870506 163.982498,96.980026 
	C163.396271,96.768959 162.810059,96.557884 162.045319,96.077377 
	C161.651154,93.837250 161.435501,91.866570 161.049896,89.611069 
z"/>
<path fill="#187BB7" opacity="1.000000" stroke="none" 
	d="
M130.089874,94.007896 
	C130.725082,94.761765 131.360275,95.515640 132.004028,96.613403 
	C131.561325,97.310356 131.110062,97.663429 130.372299,98.049454 
	C129.696213,97.180626 129.306641,96.278839 128.969315,94.826904 
	C129.021576,94.276741 129.354706,94.065163 129.539291,94.060989 
	C129.723877,94.056824 130.089874,94.007896 130.089874,94.007896 
z"/>
<path fill="#589EC6" opacity="1.000000" stroke="none" 
	d="
M123.982956,65.732758 
	C120.555702,65.906219 117.097656,65.871704 113.310287,65.628166 
	C116.285370,65.327850 119.589767,65.236549 123.334709,65.144264 
	C123.775246,65.143280 123.952156,65.524765 123.982956,65.732758 
z"/>
<path fill="#589EC6" opacity="1.000000" stroke="none" 
	d="
M95.169464,58.331146 
	C95.182159,58.023109 95.414108,57.929314 95.871857,57.989494 
	C95.900131,58.317387 95.663818,58.451359 95.169464,58.331146 
z"/>
<path fill="#317EA9" opacity="1.000000" stroke="none" 
	d="
M29.071465,55.086517 
	C31.274258,55.157906 33.402061,55.157906 35.911903,55.157906 
	C35.911903,70.216484 35.911903,84.930717 35.911903,99.949402 
	C33.681419,99.949402 31.758833,99.949402 29.130447,99.949402 
	C29.130447,85.259720 29.130447,70.658195 29.143642,55.600037 
	C29.156837,55.143394 28.996473,55.015133 29.071465,55.086517 
M35.018719,82.493866 
	C34.297329,74.050438 36.609646,65.294769 32.575752,57.020988 
	C31.162603,58.517525 30.129475,60.080181 30.108456,61.656330 
	C29.964668,72.438637 29.911938,83.226593 30.162302,94.005020 
	C30.200510,95.649933 31.957760,97.254921 32.919926,98.878372 
	C33.619663,98.639702 34.319401,98.401031 35.019138,98.162354 
	C35.019138,93.271683 35.019138,88.381004 35.018719,82.493866 
z"/>
<path fill="#0B7AB7" opacity="1.000000" stroke="none" 
	d="
M51.070999,69.085846 
	C50.385445,74.746498 49.535172,80.393738 49.072456,86.072548 
	C48.765793,89.836136 49.014339,93.644958 49.014339,97.433533 
	C48.501949,97.692162 47.989563,97.950790 47.477173,98.209419 
	C46.645329,97.081100 45.123405,95.971252 45.092648,94.821510 
	C44.879025,86.836952 45.017822,78.843750 44.950237,70.854111 
	C44.924397,67.799126 46.886230,67.869316 49.571579,68.218315 
	C50.458908,68.665398 50.764954,68.875626 51.070999,69.085846 
z"/>
<path fill="#CCEBF4" opacity="1.000000" stroke="none" 
	d="
M51.300385,68.876266 
	C50.764954,68.875626 50.458908,68.665398 49.996880,68.218597 
	C48.360786,67.165916 46.880672,66.349808 45.076115,65.337097 
	C47.714619,65.467728 50.677570,65.794952 54.078602,66.265594 
	C53.521049,67.161583 52.525410,67.914139 51.300385,68.876266 
z"/>
<path fill="#CCEBF4" opacity="1.000000" stroke="none" 
	d="
M57.217350,65.801956 
	C57.544201,65.401894 58.163212,65.049370 58.928230,64.940521 
	C58.552662,65.405975 58.031086,65.627739 57.217350,65.801956 
z"/>
<path fill="#FEFEFE" opacity="1.000000" stroke="none" 
	d="
M75.206940,104.945572 
	C75.084106,104.407883 75.268890,103.855965 75.690201,103.126686 
	C75.789337,103.610001 75.651955,104.270660 75.206940,104.945572 
z"/>
<path fill="#BFE9F4" opacity="1.000000" stroke="none" 
	d="
M216.786972,97.142807 
	C216.816574,97.673660 216.599884,98.217041 216.120514,98.911346 
	C215.870605,98.582130 215.883347,98.101997 215.972137,97.402611 
	C216.048187,97.183350 216.540665,97.155342 216.786972,97.142807 
z"/>
<path fill="#CCEBF4" opacity="1.000000" stroke="none" 
	d="
M224.581314,60.061146 
	C218.673889,58.401924 224.672867,55.612411 224.176422,53.281010 
	C224.670456,53.893475 225.164490,54.505936 225.805786,55.526299 
	C225.953049,55.934200 225.997040,56.219719 225.733551,56.124557 
	C225.283676,56.017330 225.097305,56.005260 224.803040,56.057003 
	C224.459412,56.252747 224.371643,56.454830 224.493713,57.140633 
	C224.564178,58.389847 224.572754,59.225498 224.581314,60.061146 
z"/>
<path fill="#7DB0C1" opacity="1.000000" stroke="none" 
	d="
M225.969635,55.790714 
	C226.738052,55.759579 227.489883,55.871929 228.621231,56.257698 
	C228.981750,56.707161 228.962738,56.883209 228.682327,57.265358 
	C228.263306,58.339252 228.105698,59.207039 227.572678,60.062061 
	C226.765671,60.256702 226.334076,60.464111 225.902481,60.671524 
	C225.902481,60.671524 225.825867,60.337997 225.910278,59.804115 
	C225.995483,58.253395 225.996262,57.236557 225.997040,56.219719 
	C225.997040,56.219719 225.953049,55.934200 225.969635,55.790714 
z"/>
<path fill="#418AAB" opacity="1.000000" stroke="none" 
	d="
M227.948090,60.074829 
	C228.105698,59.207039 228.263306,58.339252 228.747009,57.572197 
	C229.165955,58.289959 229.258789,58.906994 229.309967,59.759426 
	C229.268311,59.994827 229.447968,60.437908 229.456696,60.472607 
	C229.465408,60.507305 229.407837,60.549797 229.407837,60.549797 
	C229.105240,60.595795 228.814957,60.682842 228.315292,60.617184 
	C228.093582,60.423428 227.948090,60.074829 227.948090,60.074829 
z"/>
<path fill="#BFE9F4" opacity="1.000000" stroke="none" 
	d="
M229.351639,59.524021 
	C229.258789,58.906994 229.165955,58.289959 229.008423,57.366093 
	C228.962738,56.883209 228.981750,56.707161 229.005066,56.265556 
	C229.792679,56.580528 230.575974,57.161053 230.863922,58.089386 
	C230.029587,58.799465 229.690613,59.161743 229.351639,59.524021 
z"/>
<path fill="#418AAB" opacity="1.000000" stroke="none" 
	d="
M225.733551,56.124557 
	C225.996262,57.236557 225.995483,58.253395 225.991211,59.653366 
	C225.754837,60.111874 225.521927,60.187244 224.935165,60.161880 
	C224.572754,59.225498 224.564178,58.389847 224.660736,56.988232 
	C224.765869,56.422264 224.910934,55.993195 224.910934,55.993195 
	C225.097305,56.005260 225.283676,56.017330 225.733551,56.124557 
z"/>
<path fill="#CCEBF4" opacity="1.000000" stroke="none" 
	d="
M227.572678,60.062061 
	C227.948090,60.074829 228.093582,60.423428 228.088013,60.611771 
	C227.426697,60.908016 226.770935,61.015919 226.008820,60.897675 
	C226.334076,60.464111 226.765671,60.256702 227.572678,60.062061 
z"/>
<path fill="#E1F7FA" opacity="1.000000" stroke="none" 
	d="
M229.309967,59.759422 
	C229.690613,59.161743 230.029587,58.799465 230.695251,58.266792 
	C231.016449,58.507851 231.010941,58.919300 230.603058,59.724945 
	C229.949783,60.225395 229.698868,60.331650 229.447968,60.437908 
	C229.447968,60.437908 229.268311,59.994827 229.309967,59.759422 
z"/>
<path fill="#BFE9F4" opacity="1.000000" stroke="none" 
	d="
M229.456696,60.472607 
	C229.698868,60.331650 229.949783,60.225395 230.600677,60.034428 
	C230.680283,60.207428 230.359894,60.465134 229.723679,60.636322 
	C229.407837,60.549797 229.465408,60.507305 229.456696,60.472607 
z"/>
<path fill="#E8F9F9" opacity="1.000000" stroke="none" 
	d="
M156.981216,82.099228 
	C153.939743,80.740082 150.892899,79.392754 147.858170,78.018738 
	C144.203949,76.364258 143.406906,73.957733 146.139755,70.400040 
	C149.251389,69.582878 152.203278,69.062111 155.585541,68.583008 
	C161.944702,68.097069 162.717697,73.450554 165.555084,76.927872 
	C165.821869,77.102173 165.824249,77.149399 165.842102,77.502365 
	C166.565521,79.236908 167.271088,80.618484 168.007538,82.305206 
	C168.357620,83.073486 168.676849,83.536621 168.996094,83.999756 
	C170.052353,86.332535 171.108612,88.665314 172.157288,91.348175 
	C171.063690,92.464958 169.977676,93.231651 168.412262,93.596909 
	C168.096191,89.455742 167.718002,85.999207 163.430847,84.586952 
	C163.430847,84.586952 163.349167,84.575470 163.214050,84.212456 
	C161.046371,83.266037 159.013794,82.682632 156.981216,82.099228 
z"/>
<path fill="#3D88AE" opacity="1.000000" stroke="none" 
	d="
M163.413406,84.949860 
	C167.718002,85.999207 168.096191,89.455742 168.025818,93.600876 
	C167.793182,94.448730 167.467575,94.891182 166.788254,95.764496 
	C166.126251,96.459106 165.817978,96.722862 165.509720,96.986618 
	C165.170395,96.988304 164.831085,96.989998 164.237122,96.985855 
	C168.171906,92.870506 165.903885,89.085609 163.413406,84.949860 
z"/>
<path fill="#E8F9F9" opacity="1.000000" stroke="none" 
	d="
M165.348236,97.253952 
	C165.817978,96.722862 166.126251,96.459106 166.689362,96.027847 
	C166.668472,101.066597 165.427261,101.851006 156.881226,101.888199 
	C159.339508,100.407524 162.263138,98.964409 165.348236,97.253952 
z"/>
<path fill="#BFE9F4" opacity="1.000000" stroke="none" 
	d="
M174.112030,94.089851 
	C174.627945,94.715820 175.087326,95.715279 175.312622,96.894867 
	C174.737518,96.204453 174.396500,95.333900 174.112030,94.089851 
z"/>
<path fill="#BFE9F4" opacity="1.000000" stroke="none" 
	d="
M171.845764,102.140732 
	C171.978165,102.353737 171.843460,102.719238 171.464264,103.257233 
	C171.339386,103.050896 171.459015,102.672058 171.845764,102.140732 
z"/>
<path fill="#BFE9F4" opacity="1.000000" stroke="none" 
	d="
M172.996185,100.239227 
	C173.131714,100.482277 172.962769,100.832047 172.549896,101.350716 
	C172.434540,101.128387 172.563126,100.737167 172.996185,100.239227 
z"/>
<path fill="#0D7AB7" opacity="1.000000" stroke="none" 
	d="
M173.559235,81.025299 
	C174.913422,84.490013 175.957306,87.859558 176.995087,91.622787 
	C175.075424,89.567131 173.161865,87.117790 171.110092,84.001282 
	C170.306808,82.558113 169.641754,81.782112 168.968781,80.679817 
	C168.934341,79.919754 168.907806,79.485992 168.881287,79.052223 
	C170.337173,79.678192 171.793060,80.304153 173.559235,81.025299 
z"/>
<path fill="#247DAA" opacity="1.000000" stroke="none" 
	d="
M168.976715,81.006104 
	C169.641754,81.782112 170.306808,82.558113 170.959900,83.694931 
	C170.514557,84.035034 170.081207,84.014320 169.321960,83.996689 
	C168.676849,83.536621 168.357620,83.073486 168.228561,82.201057 
	C168.689835,81.590324 168.875824,81.328438 168.976715,81.006104 
z"/>
<path fill="#247DAA" opacity="1.000000" stroke="none" 
	d="
M181.024353,95.359344 
	C181.011978,94.234291 181.027634,93.484123 181.065979,92.359253 
	C181.384598,92.730980 181.680542,93.477402 181.975800,94.545525 
	C181.812271,95.245964 181.649429,95.624710 181.284637,96.244446 
	C181.072601,96.235031 181.062485,95.984619 181.024353,95.359344 
z"/>
<path fill="#FAFDFC" opacity="1.000000" stroke="none" 
	d="
M112.947357,97.018433 
	C112.409035,96.841682 111.870705,96.664932 111.162849,95.893890 
	C107.928680,90.940079 103.681000,87.075989 105.274406,80.874725 
	C106.570816,80.420143 107.618423,79.520424 108.526260,79.644386 
	C111.041336,79.987793 112.258034,79.918610 110.988831,76.840981 
	C110.647911,76.014305 111.512077,74.057312 112.391388,73.469719 
	C116.322365,70.842888 120.081200,70.573967 124.657059,73.146461 
	C132.001572,77.275452 133.390640,85.977043 127.047150,91.713707 
	C125.425941,93.179832 124.406059,95.310913 123.109917,97.136490 
	C123.109917,97.136490 123.087837,97.128815 122.627121,97.067551 
	C119.093391,97.010330 116.020370,97.014381 112.947357,97.018433 
z"/>
<path fill="#D0F0F6" opacity="1.000000" stroke="none" 
	d="
M123.464371,97.155800 
	C124.406059,95.310913 125.425941,93.179832 127.047150,91.713707 
	C133.390640,85.977043 132.001572,77.275452 124.657059,73.146461 
	C120.081200,70.573967 116.322365,70.842888 112.391388,73.469719 
	C111.512077,74.057312 110.647911,76.014305 110.988831,76.840981 
	C112.258034,79.918610 111.041336,79.987793 108.526260,79.644386 
	C107.618423,79.520424 106.570816,80.420143 105.280441,80.502052 
	C105.000465,79.148506 105.027046,78.145630 105.053627,77.142754 
	C105.091095,76.944588 105.128571,76.746414 105.664078,76.271469 
	C106.778709,75.006943 107.395287,74.019173 108.011871,73.031410 
	C108.067940,72.870399 108.124001,72.709381 108.335762,72.184052 
	C108.491455,71.819756 108.486496,71.511497 108.486496,71.511497 
	C108.486496,71.511497 108.608841,71.587898 108.681488,71.601845 
	C115.832077,67.283516 122.510124,68.271873 129.223541,73.233688 
	C129.549759,73.337646 129.609619,73.322021 129.668457,73.516724 
	C129.727280,73.711426 130.038773,74.012375 130.038773,74.012375 
	C133.262344,78.610779 135.551544,83.408676 133.106461,89.550827 
	C132.135208,90.903145 131.334778,91.885513 130.102997,93.135971 
	C129.441025,93.564453 129.335373,93.784821 129.354706,94.065163 
	C129.354706,94.065163 129.021576,94.276741 128.915573,94.442429 
	C127.145981,95.463776 125.482399,96.319443 123.464371,97.155800 
z"/>
<path fill="#BFE9F4" opacity="1.000000" stroke="none" 
	d="
M104.759811,77.267319 
	C105.027046,78.145630 105.000465,79.148506 104.967850,80.524048 
	C103.681000,87.075989 107.928680,90.940079 110.991493,95.666458 
	C109.951805,95.608948 108.913933,95.184563 107.539444,94.725311 
	C105.186974,90.574394 101.653915,86.956329 102.973549,81.097672 
	C102.976952,80.247177 102.962631,80.050293 102.948303,79.853409 
	C103.454193,79.032898 103.960091,78.212387 104.759811,77.267319 
z"/>
<path fill="#D0F0F6" opacity="1.000000" stroke="none" 
	d="
M113.230103,97.315613 
	C116.020370,97.014381 119.093391,97.010330 122.626076,97.056091 
	C119.894783,97.274864 116.703812,97.443825 113.230103,97.315613 
z"/>
<path fill="#418AAF" opacity="1.000000" stroke="none" 
	d="
M68.990685,71.368141 
	C69.539223,71.568192 70.189537,72.039253 70.799393,72.854584 
	C70.203438,72.678940 69.647957,72.159050 68.990685,71.368141 
z"/>
<path fill="#0D7AB7" opacity="1.000000" stroke="none" 
	d="
M164.813629,69.094833 
	C165.493256,68.901970 165.911438,68.939560 166.641678,69.018486 
	C167.193512,71.672470 167.433273,74.285126 167.033203,76.968063 
	C166.203690,77.075363 166.013977,77.112381 165.824249,77.149399 
	C165.824249,77.149399 165.821869,77.102173 165.842087,77.112961 
	C165.425598,74.524261 164.988892,71.924774 164.813629,69.094833 
z"/>
<path fill="#3C87B0" opacity="1.000000" stroke="none" 
	d="
M165.842102,77.502365 
	C166.013977,77.112381 166.203690,77.075363 166.682892,77.029785 
	C167.442749,77.607285 167.913101,78.193367 168.632355,78.915833 
	C168.907806,79.485992 168.934341,79.919754 168.968781,80.679810 
	C168.875824,81.328438 168.689835,81.590324 168.197693,81.895920 
	C167.271088,80.618484 166.565521,79.236908 165.842102,77.502365 
z"/>
<path fill="#BFE9F4" opacity="1.000000" stroke="none" 
	d="
M107.688232,73.079834 
	C107.395287,74.019173 106.778709,75.006943 105.831192,76.019287 
	C106.121704,75.071999 106.743149,74.100121 107.688232,73.079834 
z"/>
<path fill="#1B74A7" opacity="1.000000" stroke="none" 
	d="
M108.273544,71.405441 
	C108.486496,71.511497 108.491455,71.819756 108.388657,71.933838 
	C108.069695,71.857574 107.853523,71.667236 107.637352,71.476898 
	C107.778435,71.417725 107.919510,71.358551 108.273544,71.405441 
z"/>
<path fill="#D0F0F6" opacity="1.000000" stroke="none" 
	d="
M102.705917,79.964722 
	C102.962631,80.050293 102.976952,80.247177 102.990280,80.740250 
	C102.814034,80.716301 102.638786,80.396164 102.705917,79.964722 
z"/>
<path fill="#137CBA" opacity="1.000000" stroke="none" 
	d="
M109.605736,67.535721 
	C110.058388,67.652374 110.332962,67.938873 110.607529,68.225372 
	C110.488281,68.338478 110.271873,68.556900 110.263809,68.549461 
	C109.973045,68.281242 109.701698,67.991943 109.605736,67.535721 
z"/>
<path fill="#2D7EA6" opacity="1.000000" stroke="none" 
	d="
M88.782318,97.133957 
	C88.918808,97.364494 88.743858,97.614761 88.262924,97.890137 
	C88.106476,97.648911 88.277786,97.395050 88.782318,97.133957 
z"/>
<path fill="#3D88AE" opacity="1.000000" stroke="none" 
	d="
M157.065155,82.422195 
	C159.013794,82.682632 161.046371,83.266037 163.219971,84.171631 
	C162.845657,84.626709 162.330322,84.759590 161.413879,84.871689 
	C159.724869,84.148994 158.436981,83.447075 157.065155,82.422195 
z"/>
<path fill="#1B74A7" opacity="1.000000" stroke="none" 
	d="
M130.200470,73.892143 
	C130.038773,74.012375 129.727280,73.711426 129.693741,73.498917 
	C129.894180,73.448242 130.128174,73.610077 130.200470,73.892143 
z"/>
<path fill="#3D88AE" opacity="1.000000" stroke="none" 
	d="
M129.539291,94.060989 
	C129.335373,93.784821 129.441025,93.564453 129.856216,93.357147 
	C130.040756,93.310234 130.063309,93.658997 130.076599,93.833450 
	C130.089874,94.007896 129.723877,94.056824 129.539291,94.060989 
z"/>
<path fill="#0A7ABA" opacity="1.000000" stroke="none" 
	d="
M35.018929,82.992096 
	C35.019138,88.381004 35.019138,93.271683 35.019138,98.162354 
	C34.319401,98.401031 33.619663,98.639702 32.919926,98.878372 
	C31.957760,97.254921 30.200510,95.649933 30.162302,94.005020 
	C29.911938,83.226593 29.964668,72.438637 30.108456,61.656330 
	C30.129475,60.080181 31.162603,58.517525 32.575752,57.020988 
	C36.609646,65.294769 34.297329,74.050438 35.018929,82.992096 
z"/>
<path fill="#ECF6F8" opacity="1.000000" stroke="none" 
	d="
M224.803040,56.057003 
	C224.910934,55.993195 224.765869,56.422264 224.598846,56.574665 
	C224.371643,56.454830 224.459412,56.252747 224.803040,56.057003 
z"/>
</svg>