<svg version="1.1" id="Layer_1" xmlns="http://www.w3.org/2000/svg" xmlns:xlink="http://www.w3.org/1999/xlink" x="0px" y="0px"
	 width="100%" viewBox="0 0 1024 1024" enable-background="new 0 0 1024 1024" xml:space="preserve">
<path fill="#000000" opacity="1.000000" stroke="none" 
	d="
M394.120331,779.259888 
	C356.947266,792.730896 318.882477,798.919617 279.935089,795.899597 
	C189.791290,788.909912 117.555618,748.896240 64.893433,675.100342 
	C38.321194,637.864502 22.189123,596.115356 16.659037,550.634644 
	C5.912837,462.255402 30.661684,384.908997 90.889648,319.416534 
	C131.137558,275.650574 181.241135,248.418762 239.253342,236.159531 
	C369.033905,208.734100 501.419983,276.468170 555.378540,397.567413 
	C567.795898,425.435455 575.635437,454.519531 578.484436,484.980072 
	C585.954041,564.841797 563.627075,635.518188 512.447205,696.881897 
	C480.741516,734.896423 440.879883,761.857849 394.120331,779.259888 
M316.043884,510.082764 
	C319.166870,499.028839 315.560242,493.573395 306.278290,492.659149 
	C302.217224,492.259186 299.131744,489.776947 296.837677,486.033112 
	C290.255951,475.291962 282.796356,472.202362 270.475677,474.531128 
	C269.168152,474.778290 267.838287,474.904633 266.525238,475.125458 
	C258.398041,476.492218 253.332550,481.562744 249.899811,488.720093 
	C246.676147,495.441467 245.842911,502.740204 244.438370,509.920593 
	C242.516113,519.747681 235.950851,527.577576 232.627289,536.823853 
	C231.183304,540.840942 229.886887,544.991394 231.761856,548.953308 
	C234.455521,554.645264 237.475784,560.188904 242.923569,564.013428 
	C249.065109,568.324951 253.465393,573.920715 255.514099,581.429016 
	C258.683685,593.045166 267.426788,600.834717 275.645966,608.814697 
	C278.087830,611.185425 281.772949,611.832825 285.045013,610.389465 
	C288.385986,608.915771 287.928955,605.500183 288.018250,602.517578 
	C288.089813,600.126709 287.274475,597.992126 286.430511,595.785828 
	C283.367859,587.779175 277.232513,581.996948 272.034851,575.545715 
	C264.946747,566.748108 265.545197,556.232361 273.302032,548.118164 
	C279.801666,541.319092 288.092224,536.271851 292.839417,527.736694 
	C295.980164,522.089722 301.271149,518.932739 307.186310,516.755188 
	C310.551880,515.516235 313.378052,513.545959 316.043884,510.082764 
z"/>
<path fill="#000000" opacity="1.000000" stroke="none" 
	d="
M604.979614,578.775208 
	C601.097961,550.558960 599.691711,522.614502 600.948486,494.638580 
	C603.602356,435.565125 614.448303,378.324585 641.874756,325.234955 
	C655.093201,299.647949 671.874939,276.769623 696.007141,260.218536 
	C730.054382,236.867249 768.977539,238.688293 802.493164,265.012360 
	C823.769592,281.723450 838.930969,303.320038 851.089783,327.098328 
	C870.001465,364.082977 880.585876,403.627716 886.418396,444.610046 
	C890.416382,472.701660 892.299805,500.914703 891.129700,529.234192 
	C888.631958,589.686768 877.855652,648.274658 849.448303,702.489441 
	C836.001404,728.152588 819.074890,751.088684 794.421814,767.308411 
	C758.907043,790.674255 718.472473,787.156738 684.969788,757.921509 
	C661.872314,737.766174 646.246887,712.360657 633.910156,684.742310 
	C619.076294,651.533813 610.198547,616.648438 605.452271,580.656616 
	C605.387390,580.165039 605.209167,579.688416 604.979614,578.775208 
z"/>
<path fill="#000000" opacity="1.000000" stroke="none" 
	d="
M919.156433,670.646545 
	C912.953064,636.628540 909.642761,602.721313 907.810791,568.654236 
	C906.262512,539.863159 905.994873,511.024811 906.917114,482.237091 
	C908.595947,429.833221 912.610474,377.626160 925.669373,326.571869 
	C929.469543,311.714661 934.082336,297.101685 942.359314,283.961761 
	C953.064087,266.967773 965.823547,266.881165 976.545959,283.834900 
	C986.312927,299.277924 991.088562,316.647003 995.218201,334.163330 
	C1002.941650,366.923126 1006.794617,400.233124 1009.504944,433.757385 
	C1012.448547,470.166656 1012.961548,506.611267 1012.106323,543.056030 
	C1010.993042,590.497498 1007.125122,637.747009 997.158875,684.262085 
	C992.764160,704.773193 987.587646,725.148804 976.217651,743.248169 
	C975.509827,744.375061 974.773438,745.493774 973.948242,746.535400 
	C964.630127,758.298340 954.444458,758.312622 945.163818,746.491699 
	C937.730774,737.024109 933.683289,725.866638 929.957214,714.644287 
	C925.234436,700.419800 921.931274,685.812805 919.156433,670.646545 
z"/>
</svg>