<svg version="1.1" id="Layer_1" xmlns="http://www.w3.org/2000/svg" xmlns:xlink="http://www.w3.org/1999/xlink" x="0px" y="0px"
	 width="100%" viewBox="0 0 640 400" enable-background="new 0 0 640 400" xml:space="preserve">
<path fill="#FEFEFE" opacity="1.000000" stroke="none" 
	d="
M422.000000,401.000000 
	C281.367004,401.000000 141.234009,401.000000 1.050503,401.000000 
	C1.050503,267.732391 1.050503,134.464737 1.050503,1.098545 
	C214.216354,1.098545 427.432770,1.098545 640.824585,1.098545 
	C640.824585,134.333145 640.824585,267.666565 640.824585,401.000000 
	C568.131348,401.000000 495.315674,401.000000 422.000000,401.000000 
M438.431183,137.699799 
	C438.053711,137.094360 437.676208,136.488922 437.080505,135.922516 
	C437.080505,135.922516 436.896332,136.045914 436.977264,135.365234 
	C436.961945,134.909134 436.946594,134.453033 437.431213,133.627609 
	C436.388275,131.729630 435.345337,129.831650 434.055573,127.410843 
	C433.971863,127.036095 433.888153,126.661346 433.898865,125.504662 
	C431.105988,120.428345 428.313080,115.352028 425.210724,109.862740 
	C424.729431,109.435341 424.248169,109.007942 423.558167,107.938416 
	C423.392334,107.282600 423.226501,106.626793 423.495483,105.653847 
	C423.058258,105.088440 422.621033,104.523033 421.690948,103.494476 
	C420.461884,101.650116 419.232819,99.805756 418.008606,97.258377 
	C417.092010,96.483940 416.175385,95.709496 414.796448,94.449524 
	C413.506866,92.668694 412.217316,90.887863 410.935669,88.427841 
	C410.003998,87.593300 409.072357,86.758759 408.055817,85.937286 
	C408.055817,85.937286 408.077423,85.854141 407.987244,85.254181 
	C407.367798,84.826584 406.748383,84.398979 405.762360,83.588707 
	C405.450775,83.162216 405.139221,82.735725 404.718689,81.734642 
	C404.227814,81.467827 403.736938,81.201012 402.862671,80.446167 
	C402.273621,79.865639 401.684540,79.285110 401.045532,78.028999 
	C400.298828,77.396027 399.552094,76.763054 398.295502,75.965439 
	C397.710785,75.576210 397.126038,75.186989 396.363129,74.115852 
	C394.312927,72.343781 392.262695,70.571709 390.003113,68.997444 
	C390.003113,68.997444 390.201233,68.787697 389.921906,68.167892 
	C385.619141,65.099632 381.316406,62.031368 376.733276,58.342991 
	C369.950714,54.417839 363.168152,50.492687 356.322296,46.577946 
	C356.322296,46.577946 356.315186,46.641697 356.239716,45.938251 
	C355.210480,45.410362 354.181274,44.882469 352.669952,43.933388 
	C340.832794,38.555756 329.165680,32.750473 317.098022,27.952662 
	C309.212006,24.817375 300.745087,23.143091 292.223389,20.241562 
	C291.480621,19.973972 290.737885,19.706385 289.227478,19.163893 
	C287.355347,19.045847 285.483215,18.927801 283.255341,18.262148 
	C282.838715,18.181686 282.422089,18.101225 281.323944,17.791267 
	C280.617920,17.660049 279.911896,17.528831 278.919067,16.769421 
	C275.613739,16.196003 272.308441,15.622587 268.352570,14.843112 
	C267.448853,14.786408 266.545135,14.729705 265.363159,14.059152 
	C264.569733,13.825858 263.776276,13.592564 262.222076,13.112246 
	C261.160034,13.042675 260.098022,12.973105 258.718597,12.516525 
	C258.107239,12.566937 257.495911,12.617350 256.157745,12.531447 
	C255.422409,12.538918 254.687073,12.546389 253.452255,12.169663 
	C252.425323,12.016366 251.398407,11.863068 250.024536,11.114292 
	C248.987411,10.852287 247.950272,10.590282 246.193909,10.159621 
	C245.457413,10.128741 244.720901,10.097862 243.465347,9.531480 
	C240.286758,9.103646 237.108185,8.675813 233.204117,8.104486 
	C232.466171,8.085752 231.728210,8.067019 230.457336,7.561388 
	C229.267776,7.571872 228.078201,7.582357 226.037460,7.316431 
	C223.022186,7.229779 220.006897,7.143127 216.502930,6.578294 
	C214.981903,6.653181 213.460876,6.728068 211.295914,6.743631 
	C210.650162,6.759886 210.004425,6.776140 208.934616,6.109552 
	C202.895340,5.775594 196.857391,5.391258 190.813492,5.232300 
	C190.449234,5.222720 190.037720,7.009494 189.661270,8.900967 
	C189.709747,15.922309 189.758240,22.943651 189.703400,30.632162 
	C189.726852,31.305738 189.750305,31.979313 189.105087,33.084869 
	C188.808701,34.160305 188.256256,35.235065 188.253433,36.311272 
	C188.185867,62.046204 188.154190,87.781357 188.228943,113.516136 
	C188.232498,114.742722 189.272263,115.966293 190.414001,117.660156 
	C192.134003,118.172897 193.835129,118.763466 195.577057,119.185753 
	C206.875671,121.924797 218.183182,124.627213 229.782074,127.896133 
	C230.615616,127.643532 231.449158,127.390930 232.459167,126.314384 
	C232.477234,118.217194 232.495316,110.120003 232.768997,101.130157 
	C232.609695,97.042778 232.450394,92.955406 232.391113,88.236458 
	C232.339294,87.814545 232.287476,87.392624 232.410156,86.094818 
	C232.417099,83.450989 232.424042,80.807152 232.782837,77.399284 
	C232.876755,68.086082 232.970688,58.772881 233.966064,49.518791 
	C236.975372,49.731495 239.984665,49.944202 243.592438,50.642277 
	C250.918640,51.828350 258.244843,53.014423 265.955322,54.801929 
	C267.295105,55.099808 268.634918,55.397686 270.739655,55.974327 
	C273.126740,56.405106 275.513824,56.835884 278.203979,57.903454 
	C285.485901,60.009510 292.767792,62.115566 300.320465,64.544296 
	C300.320465,64.544296 300.741699,64.546791 301.219971,64.892090 
	C301.798920,64.969414 302.377869,65.046738 303.449280,65.637627 
	C305.282837,66.157997 307.116394,66.678375 309.280304,67.842049 
	C311.145447,68.412689 313.010559,68.983330 315.047028,70.202888 
	C317.596588,71.180489 320.146149,72.158081 323.045715,73.700760 
	C323.987457,74.232773 324.929230,74.764786 326.291534,75.725670 
	C326.867889,75.863785 327.444214,76.001900 328.548615,76.555084 
	C331.022186,77.750679 333.495758,78.946274 336.248657,80.750488 
	C338.029877,81.619759 339.811066,82.489029 341.807770,83.967384 
	C342.533447,84.337059 343.259155,84.706734 344.420441,85.345192 
	C344.579529,85.406815 344.738647,85.468445 345.281433,86.038567 
	C349.444641,88.765968 353.607880,91.493378 358.116119,94.784340 
	C360.996552,97.239159 363.876984,99.693977 367.086792,102.743042 
	C371.032257,106.933098 374.977692,111.123154 379.003021,115.990295 
	C381.367950,119.546509 383.988586,122.962364 386.036591,126.692596 
	C388.946198,131.992203 391.434570,137.523056 394.049988,143.720383 
	C396.048737,150.124725 398.013519,156.540100 400.089050,162.919434 
	C400.349792,163.720871 401.194153,164.332397 401.952179,165.677673 
	C401.948792,166.122665 401.945374,166.567657 401.407959,167.536163 
	C401.832458,169.673126 402.256989,171.810104 402.997253,174.257065 
	C402.997253,174.257065 403.146210,174.673706 403.365021,175.309555 
	C404.915070,175.517532 406.465088,175.725525 408.766113,175.940704 
	C409.497223,176.099350 410.228363,176.257980 411.104919,177.010025 
	C412.405762,177.316666 413.706573,177.623322 415.820312,177.914139 
	C418.196350,178.401031 420.572418,178.887924 423.069885,179.974792 
	C424.376190,180.311630 425.682495,180.648468 427.662415,180.936554 
	C428.093536,181.054794 428.524689,181.173035 429.151306,181.978989 
	C433.764008,182.989120 438.376709,183.999252 443.765472,184.988892 
	C444.554260,183.969986 445.343048,182.951080 446.664673,181.336182 
	C446.657837,176.757401 448.466400,171.875732 444.243073,167.154083 
	C444.175720,165.765671 444.108337,164.377258 444.589630,162.482269 
	C443.255585,155.497482 441.975220,148.501343 440.502655,141.545898 
	C440.358948,140.867004 439.030823,140.438858 438.029480,139.936356 
	C438.029480,139.936356 437.843475,140.066330 437.983368,139.386200 
	C437.982788,138.923386 437.982239,138.460556 438.431183,137.699799 
M329.662445,247.217377 
	C327.105347,246.167480 324.548279,245.117599 321.246979,244.003357 
	C318.535645,242.915939 315.824280,241.828506 312.640533,240.262756 
	C307.424530,237.526932 302.208527,234.791122 296.338226,231.818741 
	C291.259644,228.841827 286.181030,225.864914 281.078552,222.916397 
	C281.078552,222.916397 281.085022,222.929260 280.802399,222.352631 
	C279.912109,221.793915 279.021790,221.235199 277.757019,220.141891 
	C275.839813,218.760773 273.922577,217.379654 271.733124,215.376953 
	C264.910797,207.833206 257.642273,200.640442 251.368179,192.665405 
	C241.358139,179.941635 237.535370,164.505539 233.907654,148.314575 
	C230.840820,147.427856 227.762634,146.578354 224.709229,145.647629 
	C214.323273,142.481827 203.956024,139.253860 193.548965,136.159500 
	C192.585800,135.873123 191.390747,136.366592 190.156433,136.515686 
	C190.079620,138.158676 189.976624,139.466492 189.963760,140.775208 
	C189.833176,154.057495 193.991180,166.430725 197.921768,178.878464 
	C202.411911,193.098206 209.198380,206.195816 218.754089,217.487701 
	C226.948990,227.171555 235.730927,236.626480 245.540695,244.598419 
	C254.821854,252.140778 265.778076,257.621887 276.595581,264.331238 
	C279.708649,265.933807 282.821716,267.536407 286.291504,269.743561 
	C290.501221,271.540955 294.710938,273.338348 299.390564,275.664764 
	C302.574615,276.804932 305.758636,277.945068 309.441162,279.615723 
	C316.604034,281.807922 323.766937,284.000092 331.496918,286.654358 
	C336.996368,288.113037 342.495850,289.571716 348.682587,291.409424 
	C353.796997,292.514893 358.911438,293.620361 364.839111,294.928162 
	C373.569336,296.515381 382.299591,298.102600 391.891327,299.894226 
	C399.412567,300.333252 406.933807,300.772278 414.823151,301.902496 
	C416.550079,302.148041 418.277039,302.393585 420.839050,302.865997 
	C425.016113,302.727844 429.193176,302.589691 434.164520,302.602905 
	C436.316254,302.691406 438.533295,302.480347 440.605927,302.931915 
	C444.696930,303.823242 446.257935,302.736084 446.148254,298.268066 
	C445.835266,285.521698 445.930908,272.765320 446.029053,259.095184 
	C445.984497,255.066757 445.939972,251.038330 446.029968,246.081024 
	C445.989777,240.389801 445.949585,234.698578 446.033478,228.085526 
	C445.774170,223.033005 445.514893,217.980469 445.620300,212.223969 
	C447.059174,207.278397 446.152405,203.687790 440.491516,202.229492 
	C429.037109,199.278687 417.639862,196.106445 406.198761,193.102631 
	C405.359924,192.882401 404.358154,193.282791 403.212097,193.421234 
	C403.212097,199.494812 403.212097,205.259995 403.071594,211.934021 
	C403.129150,215.629028 403.186707,219.324036 403.093262,223.937759 
	C403.153015,228.631607 403.212799,233.325470 403.097473,238.932526 
	C403.162445,243.297287 403.227417,247.662064 403.115967,252.921341 
	C403.032135,256.262360 402.948273,259.603394 402.030273,262.967346 
	C397.683472,262.319824 393.336639,261.672272 388.092377,260.996674 
	C382.724823,260.343719 377.357300,259.690735 371.325134,258.703339 
	C366.221008,257.451843 361.116852,256.200317 355.332123,254.642944 
	C353.612091,254.397507 351.892090,254.152069 350.001343,253.287216 
	C349.329285,252.896622 348.657196,252.506012 347.211365,252.010666 
	C344.479736,251.317719 341.748138,250.624771 338.501587,249.397141 
	C335.709442,248.837494 332.917328,248.277847 329.662445,247.217377 
M87.439903,334.077148 
	C83.018463,330.094086 78.188545,326.471436 74.277023,322.038422 
	C69.169930,316.250458 63.140972,316.088135 57.909382,316.900940 
	C58.061932,340.241028 58.042934,363.031372 57.930943,385.911804 
	C60.443764,385.911804 63.665745,385.911804 66.440056,385.911804 
	C66.440056,366.677948 66.440056,347.802277 66.440056,327.637360 
	C89.661232,348.287689 111.944008,368.103546 134.226791,387.919373 
	C134.684464,387.728821 135.142151,387.538239 135.599823,387.347656 
	C135.599823,364.003540 135.599823,340.659424 135.599823,317.074310 
	C133.138138,317.074310 129.976990,317.074310 126.688011,317.074310 
	C126.688011,334.766022 126.688011,352.083679 126.688011,370.455963 
	C123.911919,367.813019 121.951347,365.889404 119.930122,364.031799 
	C109.256371,354.222107 98.567368,344.428955 87.439903,334.077148 
M280.985046,352.681610 
	C288.040253,340.828735 295.095490,328.975861 302.152618,317.119781 
	C298.416809,317.119781 294.536163,317.119781 291.351257,317.119781 
	C290.030640,320.058167 289.141479,322.534607 287.865784,324.792633 
	C280.564484,337.716339 273.065247,350.529114 265.847565,363.498840 
	C261.248138,371.763733 261.212219,371.978424 256.473541,364.124725 
	C246.990372,348.407776 237.752106,332.543091 228.575089,317.014099 
	C224.680923,317.014099 221.081375,317.014099 217.417633,317.014099 
	C231.699097,340.447693 245.816605,363.612274 260.652374,387.955383 
	C267.652130,375.791046 274.120270,364.550598 280.985046,352.681610 
M201.424118,361.395782 
	C202.358322,371.971954 197.999298,376.578003 188.825455,380.101562 
	C174.931686,385.437958 160.406693,375.917297 160.315704,361.312408 
	C160.241196,349.354126 160.300522,337.395020 160.300522,325.268585 
	C157.399506,325.268585 154.356750,325.268585 151.328415,325.268585 
	C151.488480,328.087494 151.736633,330.529266 151.747009,332.972046 
	C151.793655,343.961517 151.863922,354.952271 151.738205,365.940460 
	C151.674606,371.499512 153.741806,375.801208 157.995544,379.326691 
	C170.301559,389.526001 190.660446,389.588196 203.426895,380.094086 
	C207.868881,376.790649 210.352112,371.956055 210.250610,365.904175 
	C210.025162,352.462982 210.180298,339.015381 210.180298,325.234009 
	C207.270767,325.234009 204.235535,325.234009 201.423187,325.234009 
	C201.423187,337.162292 201.423187,348.792938 201.424118,361.395782 
M573.234741,325.003937 
	C562.856323,325.003937 552.477905,325.003937 542.479126,325.003937 
	C542.479126,345.750671 542.479126,365.779968 542.479126,386.210907 
	C556.171265,386.210907 569.635620,386.382629 583.090698,386.106934 
	C587.159058,386.023560 587.813660,382.599518 587.994385,378.969910 
	C576.250793,382.603271 564.777588,380.184814 553.314880,380.979370 
	C553.314880,372.090698 553.314880,363.680450 553.314880,355.080444 
	C562.346497,355.080444 571.059448,355.080444 580.146545,355.080444 
	C580.046387,353.097412 579.959106,351.369110 579.844238,349.094971 
	C570.602295,349.094971 561.876953,349.094971 553.147766,349.094971 
	C553.147766,342.461700 553.147766,336.410675 553.147766,330.709442 
	C562.203674,330.709442 570.886230,330.709442 579.670044,330.709442 
	C580.730835,325.076843 580.653870,324.987976 573.234741,325.003937 
M303.295502,355.596985 
	C297.662964,365.705780 292.030426,375.814575 286.293182,386.111328 
	C287.226471,386.111328 288.358978,385.941711 289.422638,386.140564 
	C294.125519,387.019806 296.462219,385.134369 298.070892,380.557190 
	C299.909821,375.324890 302.759399,370.410278 305.538727,365.569427 
	C306.349365,364.157440 308.391266,362.641815 309.919098,362.587433 
	C318.067657,362.297272 326.233368,362.386780 334.389954,362.529144 
	C335.686737,362.551758 337.623352,363.145111 338.150452,364.093536 
	C342.033661,371.080444 345.633911,378.224579 349.635406,385.919495 
	C352.665192,385.919495 356.828247,385.919495 361.517853,385.919495 
	C359.516571,383.375000 357.591888,381.517365 356.367584,379.277039 
	C347.452698,362.963898 338.583252,346.623932 329.932068,330.170135 
	C327.947754,326.396179 325.731750,324.559875 321.186981,324.388428 
	C316.130280,324.197723 317.475006,328.131958 316.307251,330.323914 
	C311.970062,338.465454 307.861389,346.728699 303.295502,355.596985 
M418.534027,373.509888 
	C419.513885,366.842560 417.782867,361.224670 411.511505,358.038300 
	C403.573517,354.005157 395.251617,350.699860 387.469635,346.402649 
	C384.785950,344.920746 382.060852,341.655487 381.439972,338.757996 
	C380.630005,334.978180 383.856110,332.007843 387.338898,330.485596 
	C389.559113,329.515198 392.211212,328.937073 394.610992,329.092010 
	C400.358459,329.463074 406.071228,330.371124 412.002228,331.087067 
	C413.276093,327.621124 411.370453,325.364624 407.484650,324.761536 
	C398.329346,323.340637 389.031006,323.053192 380.649048,327.397400 
	C377.385437,329.088867 374.230988,332.878143 373.091858,336.382996 
	C370.817505,343.380768 374.107574,348.693237 381.329132,352.284821 
	C389.313629,356.255768 397.472717,359.910858 405.245392,364.258453 
	C409.461609,366.616791 410.675781,373.946564 407.240509,376.871765 
	C404.284546,379.388916 400.120056,381.401428 396.299408,381.796997 
	C388.504852,382.604065 380.464325,383.165466 373.217377,378.782440 
	C371.758667,383.395569 373.009125,386.366180 377.496552,386.644073 
	C388.098206,387.300537 398.800079,388.280731 409.019409,384.147552 
	C413.584076,382.301422 417.498627,379.658234 418.534027,373.509888 
M471.829102,332.529236 
	C470.522308,330.106354 469.215515,327.683472 467.733002,324.934814 
	C464.850464,324.934814 461.460388,324.934814 457.286652,324.934814 
	C470.077454,345.966187 482.509583,366.407898 495.365204,387.545868 
	C507.913849,366.267578 519.976746,345.812988 532.143311,325.182556 
	C528.680115,325.182556 525.608215,325.182556 523.510437,325.182556 
	C514.188904,341.401093 505.235046,356.979919 495.827850,373.347534 
	C493.842407,369.890625 492.357483,367.233124 490.805389,364.615479 
	C484.594910,354.141205 478.363556,343.679291 471.829102,332.529236 
M443.041504,382.704285 
	C443.041504,363.641083 443.041504,344.577881 443.041504,325.442078 
	C439.759094,325.442078 436.103729,325.442078 433.761932,325.442078 
	C434.110321,345.881592 433.922272,365.901245 433.905731,386.179565 
	C435.958008,386.179565 438.623535,386.370392 441.228790,386.058075 
	C441.966553,385.969604 442.528229,384.412079 443.041504,382.704285 
z"/>
<path fill="#D1D2D4" opacity="1.000000" stroke="none" 
	d="
M275.997559,264.009583 
	C265.778076,257.621887 254.821854,252.140778 245.540695,244.598419 
	C235.730927,236.626480 226.948990,227.171555 218.754089,217.487701 
	C209.198380,206.195816 202.411911,193.098206 197.921768,178.878464 
	C193.991180,166.430725 189.833176,154.057495 189.963760,140.775208 
	C189.976624,139.466492 190.079620,138.158676 190.156433,136.515686 
	C191.390747,136.366592 192.585800,135.873123 193.548965,136.159500 
	C203.956024,139.253860 214.323273,142.481827 224.709229,145.647629 
	C227.762634,146.578354 230.840820,147.427856 233.645966,148.981903 
	C233.389496,152.613159 232.921494,155.671402 233.489929,158.523041 
	C235.099533,166.597900 236.715485,174.714096 239.086884,182.585693 
	C244.080643,199.161850 252.341507,213.834229 265.896484,225.471588 
	C269.586578,229.245056 273.232574,232.671997 276.945618,236.435822 
	C278.694122,238.817734 280.375519,240.862747 282.034546,243.306412 
	C281.892670,244.343704 281.832794,245.000519 281.644501,245.618195 
	C279.774292,251.752350 277.882935,257.880066 275.997559,264.009583 
z"/>
<path fill="#191919" opacity="1.000000" stroke="none" 
	d="
M87.661774,334.353638 
	C98.567368,344.428955 109.256371,354.222107 119.930122,364.031799 
	C121.951347,365.889404 123.911919,367.813019 126.688011,370.455963 
	C126.688011,352.083679 126.688011,334.766022 126.688011,317.074310 
	C129.976990,317.074310 133.138138,317.074310 135.599823,317.074310 
	C135.599823,340.659424 135.599823,364.003540 135.599823,387.347656 
	C135.142151,387.538239 134.684464,387.728821 134.226791,387.919373 
	C111.944008,368.103546 89.661232,348.287689 66.440056,327.637360 
	C66.440056,347.802277 66.440056,366.677948 66.440056,385.911804 
	C63.665745,385.911804 60.443764,385.911804 57.930943,385.911804 
	C58.042934,363.031372 58.061932,340.241028 57.909382,316.900940 
	C63.140972,316.088135 69.169930,316.250458 74.277023,322.038422 
	C78.188545,326.471436 83.018463,330.094086 87.661774,334.353638 
z"/>
<path fill="#966699" opacity="1.000000" stroke="none" 
	d="
M279.205872,17.397610 
	C279.911896,17.528831 280.617920,17.660049 281.862915,18.151764 
	C282.804932,18.611425 283.208008,18.710588 283.611084,18.809753 
	C285.483215,18.927801 287.355347,19.045847 289.709839,19.611719 
	C290.974274,20.311161 291.756317,20.562777 292.538391,20.814392 
	C300.745087,23.143091 309.212006,24.817375 317.098022,27.952662 
	C329.165680,32.750473 340.832794,38.555756 352.901947,44.564587 
	C354.194366,45.677757 355.254761,46.159729 356.315186,46.641701 
	C356.315186,46.641697 356.322296,46.577946 356.260925,46.962025 
	C357.578064,48.321621 358.952698,49.302761 360.336121,50.271324 
	C362.367340,51.693481 362.618164,53.187569 360.203522,54.313461 
	C356.652679,55.969170 353.120209,58.140362 349.362396,58.748810 
	C345.200836,59.422642 344.190643,61.598530 343.648315,65.034698 
	C342.878998,65.008217 342.439301,64.993210 341.847290,64.676361 
	C338.796326,62.584492 335.897675,60.794476 332.841980,58.695850 
	C329.795166,56.811237 326.905396,55.235233 323.639984,53.454357 
	C322.961731,57.722855 322.917145,60.962952 321.881531,63.847225 
	C320.204895,68.517014 322.412109,70.952438 326.001801,72.998581 
	C326.000000,73.000153 325.996338,73.003197 325.584656,73.003738 
	C324.347198,73.048088 323.521454,73.091888 322.695709,73.135681 
	C320.146149,72.158081 317.596588,71.180489 314.962524,69.478317 
	C310.685638,64.609985 310.641418,59.317661 311.050903,54.035278 
	C311.410126,49.401646 309.594818,46.741249 304.695282,45.843346 
	C301.919861,44.467087 299.454712,43.243027 296.632812,42.008034 
	C294.513702,41.011703 292.751434,40.026302 290.985291,38.658318 
	C290.784546,37.660156 290.662720,37.006821 290.375824,36.436531 
	C289.686523,35.066429 288.919830,33.735287 288.184357,32.388420 
	C289.631836,31.886322 291.089935,31.411938 292.520142,30.864685 
	C292.931183,30.707413 293.261780,30.339865 294.192932,29.652824 
	C292.412811,28.360687 289.528473,27.099371 289.639404,26.212885 
	C290.375854,20.328079 285.089172,22.206692 282.764893,20.399075 
	C281.540833,19.447113 280.389862,18.401136 279.205872,17.397610 
M317.051147,69.158676 
	C317.201843,69.411476 317.302765,69.791367 317.519257,69.876144 
	C317.687012,69.941841 317.999298,69.638573 318.247314,69.499313 
	C317.998840,69.359276 317.750397,69.219246 317.051147,69.158676 
z"/>
<path fill="#AB84AE" opacity="1.000000" stroke="none" 
	d="
M216.991623,7.056476 
	C220.006897,7.143127 223.022186,7.229779 226.531952,7.667254 
	C227.346130,8.330192 227.665833,8.642305 228.046722,9.314280 
	C230.127502,10.640668 232.076294,11.818440 234.183182,12.524345 
	C237.365204,13.590468 238.811859,15.382054 236.755859,18.377714 
	C234.502121,21.661512 235.523590,23.780329 238.437546,25.773153 
	C239.148758,26.259546 239.481125,27.299904 239.562347,28.078979 
	C237.342224,28.061489 235.535873,27.939840 233.761398,28.124441 
	C233.362015,28.165987 233.073837,29.276381 232.739868,30.368889 
	C232.851715,37.048592 232.958160,43.254135 233.064606,49.459679 
	C232.970688,58.772881 232.876755,68.086082 232.253052,77.567062 
	C231.483398,76.154518 231.243530,74.574196 231.004959,72.525940 
	C231.006256,64.954597 231.006256,57.851181 231.006256,49.243412 
	C224.870331,53.580547 219.886642,57.220444 214.769287,60.661560 
	C212.775726,62.002125 210.548309,63.639545 208.309952,63.841835 
	C203.107452,64.312004 197.833511,63.991615 192.000153,63.991615 
	C192.000153,61.885193 192.215179,59.403641 191.916458,56.985554 
	C191.747559,55.618389 190.734360,54.355526 190.076050,52.575069 
	C189.958344,45.620602 189.866043,39.136745 189.773743,32.652889 
	C189.750305,31.979313 189.726852,31.305738 190.164459,30.381615 
	C191.341156,33.198036 192.056808,36.265003 192.707626,39.054195 
	C196.180481,39.054195 199.827515,39.577278 203.263214,38.947472 
	C210.883926,37.550495 214.861832,31.704460 217.693146,25.208302 
	C219.040009,22.118078 219.960175,18.490871 219.753021,15.189794 
	C219.598236,12.723474 217.327362,10.389950 216.213379,7.897513 
	C216.703064,7.616971 216.890945,7.369884 216.991623,7.056476 
z"/>
<path fill="#711A72" opacity="1.000000" stroke="none" 
	d="
M422.948456,179.374817 
	C420.572418,178.887924 418.196350,178.401031 415.255768,177.660645 
	C413.794098,176.940018 412.896942,176.472900 411.757050,175.724274 
	C410.284119,175.322830 409.053955,175.202896 407.431732,175.084671 
	C405.741852,174.948822 404.444031,174.811264 403.146210,174.673706 
	C403.146210,174.673706 402.997253,174.257065 403.034485,174.175079 
	C403.071747,174.093094 403.479645,174.008514 403.564453,173.857391 
	C403.452240,173.468979 403.255219,173.231705 402.933746,172.588776 
	C402.789276,170.492676 402.769257,168.802231 403.025452,166.946442 
	C403.003448,165.842102 402.705261,164.903107 402.297729,163.652359 
	C402.213074,162.905060 402.237732,162.469513 402.460693,162.034302 
	C402.659027,162.034622 403.054596,162.002396 403.384521,162.056183 
	C404.621918,162.570877 405.529419,163.031784 405.251740,162.890747 
	C407.386566,160.398514 408.953033,158.434860 410.662811,156.605103 
	C413.264221,153.821106 413.699921,150.836670 412.528198,148.064880 
	C409.215179,150.478134 406.105743,152.743088 402.640137,155.037384 
	C402.049133,155.107101 401.814301,155.147491 401.382080,154.967453 
	C401.098663,154.173386 401.012634,153.599762 401.191376,152.855988 
	C401.077698,151.779724 400.699249,150.873611 400.182678,149.596161 
	C399.942932,148.175995 399.841278,147.127182 400.113159,146.086792 
	C401.735992,147.233185 402.985352,148.371185 404.998383,150.204773 
	C405.716797,148.598450 406.886841,147.173294 406.901520,145.736374 
	C406.955017,140.481064 409.744415,137.819534 414.526703,136.716125 
	C416.929169,136.161835 419.843658,136.315186 421.644226,134.968643 
	C425.776123,131.878586 430.252899,131.842270 435.031006,132.175629 
	C435.133148,132.339081 435.131531,132.724548 435.086121,133.093964 
	C435.659241,134.324219 436.277802,135.185059 436.896332,136.045914 
	C436.896332,136.045914 437.080505,135.922516 437.125305,136.210831 
	C437.161194,136.918243 437.152283,137.337341 437.025452,138.016296 
	C437.219482,138.872894 437.531464,139.469620 437.843445,140.066345 
	C437.843475,140.066330 438.029480,139.936356 438.079285,140.296814 
	C438.843353,143.575470 439.557648,146.493668 440.198181,149.812103 
	C440.458710,151.145676 440.792969,152.078995 441.296875,153.346161 
	C442.038727,156.649826 442.610931,159.619644 443.115234,163.041046 
	C443.385193,165.664337 443.723053,167.836044 444.161591,170.373367 
	C444.551147,172.477020 444.840027,174.215057 444.832520,176.180786 
	C444.896515,178.308365 445.256836,180.208252 445.762451,182.112732 
	C445.907745,182.117340 446.131836,181.932159 446.131836,181.932159 
	C445.343048,182.951080 444.554260,183.969986 443.107849,184.747406 
	C437.952057,183.434357 433.453949,182.362808 428.955811,181.291260 
	C428.524689,181.173035 428.093536,181.054794 427.103516,180.722672 
	C425.345886,180.130798 424.147186,179.752808 422.948456,179.374817 
M414.973358,147.877014 
	C415.093475,149.419830 415.213623,150.962662 415.259491,151.551758 
	C421.846558,148.014069 428.252563,144.573624 434.962769,140.969818 
	C428.018158,137.748032 419.263641,139.298477 414.831146,144.364471 
	C414.384521,144.874924 414.846283,146.180176 414.973358,147.877014 
M406.296204,169.433167 
	C406.011414,169.705170 405.723938,169.974686 405.456909,170.263107 
	C405.450073,170.270493 405.667206,170.485199 405.779877,170.603165 
	C406.064667,170.330826 406.349457,170.058487 406.296204,169.433167 
z"/>
<path fill="#151515" opacity="1.000000" stroke="none" 
	d="
M280.786743,352.995850 
	C274.120270,364.550598 267.652130,375.791046 260.652374,387.955383 
	C245.816605,363.612274 231.699097,340.447693 217.417633,317.014099 
	C221.081375,317.014099 224.680923,317.014099 228.575089,317.014099 
	C237.752106,332.543091 246.990372,348.407776 256.473541,364.124725 
	C261.212219,371.978424 261.248138,371.763733 265.847565,363.498840 
	C273.065247,350.529114 280.564484,337.716339 287.865784,324.792633 
	C289.141479,322.534607 290.030640,320.058167 291.351257,317.119781 
	C294.536163,317.119781 298.416809,317.119781 302.152618,317.119781 
	C295.095490,328.975861 288.040253,340.828735 280.786743,352.995850 
z"/>
<path fill="#151515" opacity="1.000000" stroke="none" 
	d="
M201.423645,360.909668 
	C201.423187,348.792938 201.423187,337.162292 201.423187,325.234009 
	C204.235535,325.234009 207.270767,325.234009 210.180298,325.234009 
	C210.180298,339.015381 210.025162,352.462982 210.250610,365.904175 
	C210.352112,371.956055 207.868881,376.790649 203.426895,380.094086 
	C190.660446,389.588196 170.301559,389.526001 157.995544,379.326691 
	C153.741806,375.801208 151.674606,371.499512 151.738205,365.940460 
	C151.863922,354.952271 151.793655,343.961517 151.747009,332.972046 
	C151.736633,330.529266 151.488480,328.087494 151.328415,325.268585 
	C154.356750,325.268585 157.399506,325.268585 160.300522,325.268585 
	C160.300522,337.395020 160.241196,349.354126 160.315704,361.312408 
	C160.406693,375.917297 174.931686,385.437958 188.825455,380.101562 
	C197.999298,376.578003 202.358322,371.971954 201.423645,360.909668 
z"/>
<path fill="#1F1F1F" opacity="1.000000" stroke="none" 
	d="
M573.687561,325.002808 
	C580.653870,324.987976 580.730835,325.076843 579.670044,330.709442 
	C570.886230,330.709442 562.203674,330.709442 553.147766,330.709442 
	C553.147766,336.410675 553.147766,342.461700 553.147766,349.094971 
	C561.876953,349.094971 570.602295,349.094971 579.844238,349.094971 
	C579.959106,351.369110 580.046387,353.097412 580.146545,355.080444 
	C571.059448,355.080444 562.346497,355.080444 553.314880,355.080444 
	C553.314880,363.680450 553.314880,372.090698 553.314880,380.979370 
	C564.777588,380.184814 576.250793,382.603271 587.994385,378.969910 
	C587.813660,382.599518 587.159058,386.023560 583.090698,386.106934 
	C569.635620,386.382629 556.171265,386.210907 542.479126,386.210907 
	C542.479126,365.779968 542.479126,345.750671 542.479126,325.003937 
	C552.477905,325.003937 562.856323,325.003937 573.687561,325.002808 
z"/>
<path fill="#191919" opacity="1.000000" stroke="none" 
	d="
M303.481201,355.271606 
	C307.861389,346.728699 311.970062,338.465454 316.307251,330.323914 
	C317.475006,328.131958 316.130280,324.197723 321.186981,324.388428 
	C325.731750,324.559875 327.947754,326.396179 329.932068,330.170135 
	C338.583252,346.623932 347.452698,362.963898 356.367584,379.277039 
	C357.591888,381.517365 359.516571,383.375000 361.517853,385.919495 
	C356.828247,385.919495 352.665192,385.919495 349.635406,385.919495 
	C345.633911,378.224579 342.033661,371.080444 338.150452,364.093536 
	C337.623352,363.145111 335.686737,362.551758 334.389954,362.529144 
	C326.233368,362.386780 318.067657,362.297272 309.919098,362.587433 
	C308.391266,362.641815 306.349365,364.157440 305.538727,365.569427 
	C302.759399,370.410278 299.909821,375.324890 298.070892,380.557190 
	C296.462219,385.134369 294.125519,387.019806 289.422638,386.140564 
	C288.358978,385.941711 287.226471,386.111328 286.293182,386.111328 
	C292.030426,375.814575 297.662964,365.705780 303.481201,355.271606 
M314.729980,358.062714 
	C321.388489,358.062714 328.046967,358.062714 335.618439,358.062714 
	C330.635895,349.537781 326.348938,342.202972 321.629608,334.128387 
	C317.283356,342.401764 313.422882,349.750336 309.277344,357.641571 
	C311.285461,357.828156 312.542450,357.944977 314.729980,358.062714 
z"/>
<path fill="#999A9D" opacity="1.000000" stroke="none" 
	d="
M414.455048,301.211304 
	C406.933807,300.772278 399.412567,300.333252 391.369385,299.467712 
	C388.940735,298.123077 387.034027,297.204956 384.866364,296.161163 
	C387.618378,296.003937 390.057190,295.864594 392.609222,295.718781 
	C393.182831,290.001099 391.133179,285.614990 388.246338,281.550049 
	C389.679077,281.392303 390.783112,281.300537 392.000458,281.555206 
	C393.484924,282.172394 394.856018,282.443085 396.656189,282.744904 
	C398.985626,282.776001 400.886017,282.776001 403.390289,282.776001 
	C403.390289,276.637726 403.390289,271.327820 403.800171,266.015076 
	C408.818481,266.342987 413.432861,266.611481 418.030762,267.052002 
	C419.073486,267.151886 420.172333,267.687225 421.048889,268.302155 
	C423.333649,269.904907 425.387543,271.860565 427.752960,273.319672 
	C433.385681,276.794220 433.074097,282.959259 434.340515,288.223969 
	C434.741302,289.890137 432.376465,292.225037 431.269196,294.249481 
	C430.193359,296.216553 429.107025,298.177887 428.108063,299.991455 
	C430.217712,300.977753 431.793976,301.714661 433.370239,302.451569 
	C429.193176,302.589691 425.016113,302.727844 420.302002,302.404022 
	C417.994965,301.698456 416.225006,301.454895 414.455048,301.211304 
z"/>
<path fill="#1A1A1A" opacity="1.000000" stroke="none" 
	d="
M418.450806,373.873901 
	C417.498627,379.658234 413.584076,382.301422 409.019409,384.147552 
	C398.800079,388.280731 388.098206,387.300537 377.496552,386.644073 
	C373.009125,386.366180 371.758667,383.395569 373.217377,378.782440 
	C380.464325,383.165466 388.504852,382.604065 396.299408,381.796997 
	C400.120056,381.401428 404.284546,379.388916 407.240509,376.871765 
	C410.675781,373.946564 409.461609,366.616791 405.245392,364.258453 
	C397.472717,359.910858 389.313629,356.255768 381.329132,352.284821 
	C374.107574,348.693237 370.817505,343.380768 373.091858,336.382996 
	C374.230988,332.878143 377.385437,329.088867 380.649048,327.397400 
	C389.031006,323.053192 398.329346,323.340637 407.484650,324.761536 
	C411.370453,325.364624 413.276093,327.621124 412.002228,331.087067 
	C406.071228,330.371124 400.358459,329.463074 394.610992,329.092010 
	C392.211212,328.937073 389.559113,329.515198 387.338898,330.485596 
	C383.856110,332.007843 380.630005,334.978180 381.439972,338.757996 
	C382.060852,341.655487 384.785950,344.920746 387.469635,346.402649 
	C395.251617,350.699860 403.573517,354.005157 411.511505,358.038300 
	C417.782867,361.224670 419.513885,366.842560 418.450806,373.873901 
z"/>
<path fill="#191919" opacity="1.000000" stroke="none" 
	d="
M471.984497,332.871033 
	C478.363556,343.679291 484.594910,354.141205 490.805389,364.615479 
	C492.357483,367.233124 493.842407,369.890625 495.827850,373.347534 
	C505.235046,356.979919 514.188904,341.401093 523.510437,325.182556 
	C525.608215,325.182556 528.680115,325.182556 532.143311,325.182556 
	C519.976746,345.812988 507.913849,366.267578 495.365204,387.545868 
	C482.509583,366.407898 470.077454,345.966187 457.286652,324.934814 
	C461.460388,324.934814 464.850464,324.934814 467.733002,324.934814 
	C469.215515,327.683472 470.522308,330.106354 471.984497,332.871033 
z"/>
<path fill="#9EA0A3" opacity="1.000000" stroke="none" 
	d="
M433.767395,302.527222 
	C431.793976,301.714661 430.217712,300.977753 428.108063,299.991455 
	C429.107025,298.177887 430.193359,296.216553 431.269196,294.249481 
	C432.376465,292.225037 434.741302,289.890137 434.340515,288.223969 
	C433.074097,282.959259 433.385681,276.794220 427.752960,273.319672 
	C425.387543,271.860565 423.333649,269.904907 421.048889,268.302155 
	C420.172333,267.687225 419.073486,267.151886 418.030762,267.052002 
	C413.432861,266.611481 408.818481,266.342987 403.687805,265.640015 
	C403.065216,264.493317 402.964844,263.718872 402.864441,262.944397 
	C402.948273,259.603394 403.032135,256.262360 403.582031,252.479294 
	C408.750610,252.691299 413.488983,253.156235 418.147980,254.039978 
	C426.996460,255.718414 435.358765,258.380737 440.528564,266.693726 
	C440.884277,267.265747 442.028320,267.347504 442.681610,267.607819 
	C444.650848,265.120361 440.087372,260.495514 445.865784,260.012878 
	C445.930908,272.765320 445.835266,285.521698 446.148254,298.268066 
	C446.257935,302.736084 444.696930,303.823242 440.605927,302.931915 
	C438.533295,302.480347 436.316254,302.691406 433.767395,302.527222 
z"/>
<path fill="#7A317B" opacity="1.000000" stroke="none" 
	d="
M434.928894,132.012177 
	C430.252899,131.842270 425.776123,131.878586 421.644226,134.968643 
	C419.843658,136.315186 416.929169,136.161835 414.526703,136.716125 
	C409.744415,137.819534 406.955017,140.481064 406.901520,145.736374 
	C406.886841,147.173294 405.716797,148.598450 404.998383,150.204773 
	C402.985352,148.371185 401.735992,147.233185 399.764343,145.983292 
	C396.801575,138.537033 394.561096,131.202682 392.213257,123.524948 
	C391.095795,120.788269 390.085754,118.394958 389.440948,116.001526 
	C390.537079,116.000938 391.267914,116.000465 392.248871,116.002007 
	C392.665680,116.005302 392.832428,116.006592 392.999634,116.403503 
	C393.075073,117.625175 392.915558,118.573463 393.270172,119.253723 
	C394.232300,121.099335 395.479980,124.341751 396.492188,124.296486 
	C398.654785,124.199760 400.803101,122.480042 402.839539,121.232880 
	C404.885071,119.980133 406.667084,117.556595 408.775391,117.285446 
	C415.143494,116.466438 420.517548,114.513573 423.766876,108.580544 
	C424.248169,109.007942 424.729431,109.435341 425.411316,110.445618 
	C428.342773,116.114525 431.073608,121.200562 433.804474,126.286591 
	C433.888153,126.661346 433.971863,127.036095 434.129272,128.017273 
	C434.444977,129.753189 434.686920,130.882690 434.928894,132.012177 
z"/>
<path fill="#AF8AB1" opacity="1.000000" stroke="none" 
	d="
M215.998779,7.997291 
	C217.327362,10.389950 219.598236,12.723474 219.753021,15.189794 
	C219.960175,18.490871 219.040009,22.118078 217.693146,25.208302 
	C214.861832,31.704460 210.883926,37.550495 203.263214,38.947472 
	C199.827515,39.577278 196.180481,39.054195 192.707626,39.054195 
	C192.056808,36.265003 191.341156,33.198036 190.216125,30.048031 
	C189.758240,22.943651 189.709747,15.922309 190.022110,8.621639 
	C191.216263,13.754697 192.049591,19.167082 192.927841,24.871368 
	C197.408615,23.879705 201.301270,22.178303 201.862503,17.051846 
	C202.103180,14.853489 201.888611,11.984461 200.633087,10.424377 
	C199.466370,8.974634 196.639908,8.860608 194.544205,8.158495 
	C194.589203,7.703128 194.634201,7.247761 194.679199,6.792395 
	C199.572357,6.792395 204.465515,6.792395 209.358673,6.792395 
	C210.004425,6.776140 210.650162,6.759886 211.834152,7.078605 
	C213.581192,7.608149 214.789978,7.802719 215.998779,7.997291 
z"/>
<path fill="#97699A" opacity="1.000000" stroke="none" 
	d="
M229.487778,127.341621 
	C218.183182,124.627213 206.875671,121.924797 195.577057,119.185753 
	C193.835129,118.763466 192.134003,118.172897 190.173279,116.942932 
	C190.005325,104.826843 190.078094,93.427971 190.425293,82.290329 
	C191.133545,88.034378 191.567383,93.517181 192.000641,99.461456 
	C192.002319,102.588730 192.038010,105.255028 191.997757,107.920189 
	C191.955261,110.733635 193.529114,111.938385 195.698792,110.397606 
	C198.639694,108.309151 200.620132,109.525764 202.776703,111.293236 
	C205.599014,113.606331 208.178223,113.907494 211.112885,111.162300 
	C212.409042,109.949806 214.564590,109.225830 216.389481,109.092102 
	C221.216690,108.738380 225.419403,107.465584 228.742798,103.672318 
	C229.561142,102.738281 231.233597,102.552551 232.513397,102.022812 
	C232.495316,110.120003 232.477234,118.217194 231.900543,126.691566 
	C230.723862,127.159706 230.105820,127.250664 229.487778,127.341621 
z"/>
<path fill="#B8B8BC" opacity="1.000000" stroke="none" 
	d="
M403.212097,211.025177 
	C403.212097,205.259995 403.212097,199.494812 403.212097,193.421234 
	C404.358154,193.282791 405.359924,192.882401 406.198761,193.102631 
	C417.639862,196.106445 429.037109,199.278687 440.491516,202.229492 
	C446.152405,203.687790 447.059174,207.278397 445.054260,212.627716 
	C441.468323,215.400421 438.582031,215.737350 434.577606,214.603683 
	C428.637024,212.921921 422.266449,212.709625 416.061890,212.026764 
	C411.793579,211.556992 407.496368,211.349762 403.212097,211.025177 
z"/>
<path fill="#191919" opacity="1.000000" stroke="none" 
	d="
M443.106079,383.116333 
	C442.528229,384.412079 441.966553,385.969604 441.228790,386.058075 
	C438.623535,386.370392 435.958008,386.179565 433.905731,386.179565 
	C433.922272,365.901245 434.110321,345.881592 433.761932,325.442078 
	C436.103729,325.442078 439.759094,325.442078 443.041504,325.442078 
	C443.041504,344.577881 443.041504,363.641083 443.106079,383.116333 
z"/>
<path fill="#ABACB0" opacity="1.000000" stroke="none" 
	d="
M445.909363,229.007355 
	C445.949585,234.698578 445.989777,240.389801 445.608154,246.548737 
	C443.677765,247.575806 442.169189,248.135147 441.400879,248.420029 
	C437.982849,246.603790 435.102325,244.901611 432.072662,243.528473 
	C430.291138,242.721039 428.124359,242.730789 426.390747,241.857239 
	C422.411499,239.852020 418.937286,236.636887 413.936829,240.015335 
	C411.478180,241.676422 408.310059,242.039200 406.014984,238.803864 
	C405.585571,238.198486 404.210968,238.263611 403.272583,238.019318 
	C403.212799,233.325470 403.153015,228.631607 403.521240,223.481171 
	C409.527496,224.382034 415.058411,226.009506 420.701111,226.999878 
	C424.328979,227.636627 428.809052,226.112518 431.686432,227.729355 
	C436.578644,230.478363 440.872406,231.638916 445.909363,229.007355 
z"/>
<path fill="#9E72A1" opacity="1.000000" stroke="none" 
	d="
M192.001221,98.999992 
	C191.567383,93.517181 191.133545,88.034378 190.380951,81.831573 
	C190.079544,77.752831 190.096909,74.394073 190.496643,71.124718 
	C191.251678,72.226631 191.893646,73.223213 191.954636,74.254173 
	C192.471985,82.998108 192.440231,82.999992 201.119202,83.000008 
	C201.781937,83.000008 202.459641,83.091324 203.105057,82.985596 
	C208.407074,82.117058 214.569275,82.569366 218.739670,79.908356 
	C222.382660,77.583870 224.851303,76.584900 227.812485,78.275627 
	C229.025879,76.267311 230.014771,74.630585 231.003662,72.993866 
	C231.243530,74.574196 231.483398,76.154518 232.077133,77.949081 
	C232.424042,80.807152 232.417099,83.450989 231.951416,86.548752 
	C227.593018,87.065819 230.282639,89.589043 229.945099,91.350090 
	C224.211166,97.778130 216.529434,97.538750 209.310211,97.431000 
	C203.409637,97.342926 197.578934,96.143600 192.001221,98.999992 
z"/>
<path fill="#A5A6A9" opacity="1.000000" stroke="none" 
	d="
M403.184998,238.475922 
	C404.210968,238.263611 405.585571,238.198486 406.014984,238.803864 
	C408.310059,242.039200 411.478180,241.676422 413.936829,240.015335 
	C418.937286,236.636887 422.411499,239.852020 426.390747,241.857239 
	C428.124359,242.730789 430.291138,242.721039 432.072662,243.528473 
	C435.102325,244.901611 437.982849,246.603790 441.400879,248.420029 
	C442.169189,248.135147 443.677765,247.575806 445.540894,247.013184 
	C445.939972,251.038330 445.984497,255.066757 445.947418,259.554016 
	C440.087372,260.495514 444.650848,265.120361 442.681610,267.607819 
	C442.028320,267.347504 440.884277,267.265747 440.528564,266.693726 
	C435.358765,258.380737 426.996460,255.718414 418.147980,254.039978 
	C413.488983,253.156235 408.750610,252.691299 403.670227,252.032043 
	C403.227417,247.662064 403.162445,243.297287 403.184998,238.475922 
z"/>
<path fill="#B0B1B5" opacity="1.000000" stroke="none" 
	d="
M445.971436,228.546448 
	C440.872406,231.638916 436.578644,230.478363 431.686432,227.729355 
	C428.809052,226.112518 424.328979,227.636627 420.701111,226.999878 
	C415.058411,226.009506 409.527496,224.382034 403.596741,223.021820 
	C403.186707,219.324036 403.129150,215.629028 403.141846,211.479599 
	C407.496368,211.349762 411.793579,211.556992 416.061890,212.026764 
	C422.266449,212.709625 428.637024,212.921921 434.577606,214.603683 
	C438.582031,215.737350 441.468323,215.400421 444.871887,212.979706 
	C445.514893,217.980469 445.774170,223.033005 445.971436,228.546448 
z"/>
<path fill="#813F84" opacity="1.000000" stroke="none" 
	d="
M392.999146,116.007889 
	C392.832428,116.006592 392.665680,116.005302 392.245514,115.635498 
	C391.393341,113.046104 391.175568,110.249550 387.429138,112.178848 
	C385.416809,109.306885 383.652100,106.667526 381.777954,103.711227 
	C380.662567,101.639641 379.656616,99.884987 379.104614,98.095215 
	C387.732513,98.945946 393.441772,93.648468 399.523621,89.688103 
	C401.818390,88.193817 404.136993,85.498360 403.336182,81.971046 
	C404.030060,82.140427 404.428864,82.224831 404.827667,82.309235 
	C405.139221,82.735725 405.450775,83.162216 405.917725,84.116913 
	C406.741211,85.048126 407.409332,85.451134 408.077423,85.854141 
	C408.077423,85.854141 408.055817,85.937286 408.120239,86.259537 
	C409.098999,87.423531 410.013367,88.265282 410.927734,89.107033 
	C412.217316,90.887863 413.506866,92.668694 414.985168,94.941452 
	C415.204254,95.767433 415.234619,96.101479 415.197693,96.874054 
	C415.320648,100.913750 414.042084,103.220642 410.587799,105.134476 
	C404.574188,108.466293 397.403076,110.057365 392.999146,116.007889 
z"/>
<path fill="#BABBBF" opacity="1.000000" stroke="none" 
	d="
M330.929810,286.192261 
	C323.766937,284.000092 316.604034,281.807922 309.374359,279.016846 
	C318.773102,276.076965 313.108643,267.806824 315.725372,263.031281 
	C312.269531,260.175781 309.134155,257.585114 306.039948,254.621307 
	C308.425049,249.745834 310.769012,245.243469 313.112946,240.741089 
	C315.824280,241.828506 318.535645,242.915939 321.616211,244.405838 
	C321.091980,250.276855 320.198517,255.745392 319.463440,260.244568 
	C323.596527,263.025757 327.299744,265.517670 330.993317,268.423981 
	C330.965698,274.622986 330.947754,280.407623 330.929810,286.192261 
z"/>
<path fill="#8C538E" opacity="1.000000" stroke="none" 
	d="
M377.013641,58.963104 
	C381.316406,62.031368 385.619141,65.099632 389.762268,68.569550 
	C389.244690,69.394463 388.886719,69.817726 388.528748,70.240990 
	C388.768494,70.395798 389.008240,70.550606 389.247986,70.705414 
	C389.569489,70.070160 389.890991,69.434898 390.212494,68.799644 
	C392.262695,70.571709 394.312927,72.343781 396.026367,74.535652 
	C393.635895,75.075188 391.561371,75.058609 389.536713,75.368088 
	C388.403595,75.541267 386.716797,75.973366 386.364594,76.769104 
	C383.109741,84.122482 375.970123,84.962585 369.317902,86.964188 
	C368.050537,86.459190 367.058899,86.098152 366.015625,85.413857 
	C363.325378,82.650238 360.686798,80.209869 358.002899,77.452759 
	C357.303986,76.092941 356.650360,75.049873 356.052460,73.669548 
	C361.552368,73.353340 364.803864,69.117805 368.656525,66.384636 
	C371.621735,64.281067 376.517303,63.936985 377.013641,58.963104 
M393.591309,73.518517 
	C393.591309,73.518517 393.476166,73.588432 393.591309,73.518517 
z"/>
<path fill="#9EA0A3" opacity="1.000000" stroke="none" 
	d="
M265.852356,225.125031 
	C252.341507,213.834229 244.080643,199.161850 239.086884,182.585693 
	C236.715485,174.714096 235.099533,166.597900 233.489929,158.523041 
	C232.921494,155.671402 233.389496,152.613159 233.665726,149.367371 
	C237.535370,164.505539 241.358139,179.941635 251.368179,192.665405 
	C257.642273,200.640442 264.910797,207.833206 271.484558,215.729950 
	C268.129700,216.647476 266.416504,218.147186 266.914307,221.658554 
	C267.067902,222.742081 266.234070,223.965607 265.852356,225.125031 
z"/>
<path fill="#9B6B9E" opacity="1.000000" stroke="none" 
	d="
M192.000641,99.461456 
	C197.578934,96.143600 203.409637,97.342926 209.310211,97.431000 
	C216.529434,97.538750 224.211166,97.778130 230.207275,91.172333 
	C231.112854,90.053894 231.701981,89.460960 232.291092,88.868027 
	C232.450394,92.955406 232.609695,97.042778 232.641205,101.576492 
	C231.233597,102.552551 229.561142,102.738281 228.742798,103.672318 
	C225.419403,107.465584 221.216690,108.738380 216.389481,109.092102 
	C214.564590,109.225830 212.409042,109.949806 211.112885,111.162300 
	C208.178223,113.907494 205.599014,113.606331 202.776703,111.293236 
	C200.620132,109.525764 198.639694,108.309151 195.698792,110.397606 
	C193.529114,111.938385 191.955261,110.733635 191.997757,107.920189 
	C192.038010,105.255028 192.002319,102.588730 192.000641,99.461456 
z"/>
<path fill="#A5A6A9" opacity="1.000000" stroke="none" 
	d="
M387.917572,281.615997 
	C391.133179,285.614990 393.182831,290.001099 392.609222,295.718781 
	C390.057190,295.864594 387.618378,296.003937 384.866364,296.161163 
	C387.034027,297.204956 388.940735,298.123077 390.938660,299.365509 
	C382.299591,298.102600 373.569336,296.515381 364.435089,294.466003 
	C364.147583,292.270294 364.939728,290.184692 364.254242,288.868988 
	C362.174255,284.876953 362.312012,281.096252 364.348328,277.128540 
	C365.117126,277.069885 365.556732,277.040436 366.357605,277.159027 
	C372.147430,278.198303 377.575989,279.089539 383.356110,280.009766 
	C385.110962,280.564453 386.514282,281.090240 387.917572,281.615997 
z"/>
<path fill="#854A88" opacity="1.000000" stroke="none" 
	d="
M369.593658,87.108154 
	C375.970123,84.962585 383.109741,84.122482 386.364594,76.769104 
	C386.716797,75.973366 388.403595,75.541267 389.536713,75.368088 
	C391.561371,75.058609 393.635895,75.075188 396.115448,74.876602 
	C397.126038,75.186989 397.710785,75.576210 398.634399,76.346924 
	C399.680664,77.387131 400.388062,78.045860 401.095459,78.704590 
	C401.684540,79.285110 402.273621,79.865639 402.975220,80.922134 
	C403.087769,81.398109 403.041138,81.886070 403.041138,81.886070 
	C404.136993,85.498360 401.818390,88.193817 399.523621,89.688103 
	C393.441772,93.648468 387.732513,98.945946 378.799805,98.005981 
	C375.225311,94.337280 372.409485,90.722717 369.593658,87.108154 
z"/>
<path fill="#905D93" opacity="1.000000" stroke="none" 
	d="
M376.873474,58.653049 
	C376.517303,63.936985 371.621735,64.281067 368.656525,66.384636 
	C364.803864,69.117805 361.552368,73.353340 355.739807,73.514832 
	C351.573608,70.813637 347.775757,67.929909 343.977936,65.046181 
	C344.190643,61.598530 345.200836,59.422642 349.362396,58.748810 
	C353.120209,58.140362 356.652679,55.969170 360.203522,54.313461 
	C362.618164,53.187569 362.367340,51.693481 360.336121,50.271324 
	C358.952698,49.302761 357.578064,48.321621 356.292542,46.956821 
	C363.168152,50.492687 369.950714,54.417839 376.873474,58.653049 
z"/>
<path fill="#854A88" opacity="1.000000" stroke="none" 
	d="
M290.989136,39.040901 
	C292.751434,40.026302 294.513702,41.011703 296.641846,42.388542 
	C297.007721,45.221870 297.007721,47.663757 297.007721,49.598495 
	C297.673615,51.386623 298.448730,52.811039 298.717743,54.325356 
	C299.299316,57.599674 299.621460,60.920074 300.049713,64.221626 
	C292.767792,62.115566 285.485901,60.009510 278.060516,57.478046 
	C277.917053,57.052639 278.020752,56.865112 278.366638,56.906277 
	C280.304047,56.947441 281.895569,56.947441 283.487061,56.947441 
	C283.467743,56.515984 283.448395,56.084522 283.429047,55.653065 
	C281.935181,54.801453 280.441284,53.949844 278.780457,53.003056 
	C279.608398,51.305576 280.230896,50.029251 280.608948,49.254162 
	C278.601715,44.206387 276.790710,39.652126 275.362549,35.120773 
	C280.826630,36.442749 285.907898,37.741825 290.989136,39.040901 
z"/>
<path fill="#A67CA9" opacity="1.000000" stroke="none" 
	d="
M239.987656,28.085564 
	C239.481125,27.299904 239.148758,26.259546 238.437546,25.773153 
	C235.523590,23.780329 234.502121,21.661512 236.755859,18.377714 
	C238.811859,15.382054 237.365204,13.590468 234.183182,12.524345 
	C232.076294,11.818440 230.127502,10.640668 228.380798,9.315365 
	C229.432541,8.653823 230.211395,8.351054 230.990265,8.048286 
	C231.728210,8.067019 232.466171,8.085752 233.670029,8.515663 
	C237.418762,9.306887 240.701584,9.686934 243.984406,10.066982 
	C244.720901,10.097862 245.457413,10.128741 246.661789,10.573742 
	C248.210266,11.228499 249.290878,11.469134 250.371475,11.709770 
	C251.398407,11.863068 252.425323,12.016366 253.714294,12.811533 
	C254.791656,15.438781 255.927444,17.357861 256.354797,19.423506 
	C257.212433,23.568903 257.262909,27.926947 260.207275,31.393419 
	C260.249817,31.443491 260.076019,31.677273 259.601471,31.864618 
	C256.801208,31.599390 254.402664,31.294853 251.831390,30.751423 
	C251.101791,30.395988 250.544937,30.279448 249.563904,30.115105 
	C247.434433,30.031105 245.729141,29.994909 243.801010,29.711615 
	C242.381317,29.004866 241.184494,28.545216 239.987656,28.085564 
z"/>
<path fill="#7D367E" opacity="1.000000" stroke="none" 
	d="
M392.999634,116.403503 
	C397.403076,110.057365 404.574188,108.466293 410.587799,105.134476 
	C414.042084,103.220642 415.320648,100.913750 415.475769,97.029327 
	C416.548706,97.151184 417.276215,97.556297 418.003754,97.961411 
	C419.232819,99.805756 420.461884,101.650116 421.918701,104.021072 
	C422.451172,105.022102 422.755920,105.496536 423.060669,105.970978 
	C423.226501,106.626793 423.392334,107.282600 423.662537,108.259476 
	C420.517548,114.513573 415.143494,116.466438 408.775391,117.285446 
	C406.667084,117.556595 404.885071,119.980133 402.839539,121.232880 
	C400.803101,122.480042 398.654785,124.199760 396.492188,124.296486 
	C395.479980,124.341751 394.232300,121.099335 393.270172,119.253723 
	C392.915558,118.573463 393.075073,117.625175 392.999634,116.403503 
z"/>
<path fill="#E2E3E5" opacity="1.000000" stroke="none" 
	d="
M388.246338,281.550049 
	C386.514282,281.090240 385.110962,280.564453 383.356049,279.616150 
	C383.161469,278.223083 383.178436,277.203491 383.498749,276.290283 
	C385.288544,271.187561 387.151733,266.110535 388.989838,261.024750 
	C393.336639,261.672272 397.683472,262.319824 402.447388,262.955872 
	C402.964844,263.718872 403.065216,264.493317 403.277954,265.642853 
	C403.390289,271.327820 403.390289,276.637726 403.390289,282.776001 
	C400.886017,282.776001 398.985626,282.776001 396.509613,282.422272 
	C394.585052,281.781952 393.236084,281.495361 391.887115,281.208740 
	C390.783112,281.300537 389.679077,281.392303 388.246338,281.550049 
z"/>
<path fill="#9B6B9E" opacity="1.000000" stroke="none" 
	d="
M290.985291,38.658318 
	C285.907898,37.741825 280.826630,36.442749 275.048645,35.062431 
	C273.568634,34.659668 272.785400,34.338142 271.967010,33.666370 
	C271.346558,32.039410 270.761261,30.762695 270.167175,29.466797 
	C271.963074,28.298540 273.484558,27.308809 273.784454,27.113720 
	C271.953125,22.492813 270.478119,18.770992 269.003113,15.049170 
	C272.308441,15.622587 275.613739,16.196003 279.062469,17.083515 
	C280.389862,18.401136 281.540833,19.447113 282.764893,20.399075 
	C285.089172,22.206692 290.375854,20.328079 289.639404,26.212885 
	C289.528473,27.099371 292.412811,28.360687 294.192932,29.652824 
	C293.261780,30.339865 292.931183,30.707413 292.520142,30.864685 
	C291.089935,31.411938 289.631836,31.886322 288.184357,32.388420 
	C288.919830,33.735287 289.686523,35.066429 290.375824,36.436531 
	C290.662720,37.006821 290.784546,37.660156 290.985291,38.658318 
z"/>
<path fill="#B2B3B7" opacity="1.000000" stroke="none" 
	d="
M331.213379,286.423309 
	C330.947754,280.407623 330.965698,274.622986 331.326294,268.422424 
	C332.113007,268.003906 332.557037,268.001343 333.339905,268.146606 
	C336.117310,268.866943 338.555908,269.439453 341.234467,270.282379 
	C344.318542,271.695953 347.162659,272.839142 349.838623,274.315613 
	C349.120148,275.957977 348.164062,277.246063 348.095032,278.580078 
	C347.880737,282.720795 348.003387,286.878998 347.995300,291.030396 
	C342.495850,289.571716 336.996368,288.113037 331.213379,286.423309 
z"/>
<path fill="#C7C8CA" opacity="1.000000" stroke="none" 
	d="
M298.920654,275.135742 
	C294.710938,273.338348 290.501221,271.540955 286.175079,269.055939 
	C288.452759,265.751526 289.429626,262.789185 289.127228,259.152191 
	C288.997070,257.586517 290.215393,255.900314 290.853027,254.281448 
	C291.549713,252.512558 292.283386,250.758224 293.359161,249.033844 
	C297.147034,251.043533 300.576660,253.016937 304.003662,255.425201 
	C303.667328,258.763367 302.902771,261.696411 303.100647,264.562988 
	C303.400146,268.900970 302.566925,272.496582 298.920654,275.135742 
z"/>
<path fill="#D9DADC" opacity="1.000000" stroke="none" 
	d="
M388.541107,261.010712 
	C387.151733,266.110535 385.288544,271.187561 383.498749,276.290283 
	C383.178436,277.203491 383.161469,278.223083 383.004486,279.587189 
	C377.575989,279.089539 372.147430,278.198303 366.413696,276.805115 
	C367.382629,274.671661 369.290985,273.215515 369.800659,271.372559 
	C370.908875,267.365631 371.303467,263.161377 371.989746,259.037781 
	C377.357300,259.690735 382.724823,260.343719 388.541107,261.010712 
z"/>
<path fill="#AF8AB1" opacity="1.000000" stroke="none" 
	d="
M343.648315,65.034698 
	C347.775757,67.929909 351.573608,70.813637 355.684082,73.852081 
	C356.650360,75.049873 357.303986,76.092941 357.982727,77.938065 
	C358.011108,81.814163 358.045135,84.888603 358.006805,87.962135 
	C357.980743,90.049004 357.853241,92.134613 357.771088,94.220779 
	C353.607880,91.493378 349.444641,88.765968 345.101562,85.485214 
	C344.774170,84.592628 344.626709,84.253387 344.479248,83.914154 
	C344.314423,84.301582 344.149628,84.688995 343.984833,85.076408 
	C343.259155,84.706734 342.533447,84.337059 342.019592,83.404236 
	C342.154144,76.886787 342.076874,70.932503 341.999603,64.978210 
	C342.439301,64.993210 342.878998,65.008217 343.648315,65.034698 
z"/>
<path fill="#D1D2D4" opacity="1.000000" stroke="none" 
	d="
M371.657440,258.870544 
	C371.303467,263.161377 370.908875,267.365631 369.800659,271.372559 
	C369.290985,273.215515 367.382629,274.671661 366.052429,276.657104 
	C365.556732,277.040436 365.117126,277.069885 363.985718,277.041321 
	C361.865906,276.643555 360.437866,276.303802 358.927551,275.593689 
	C357.855469,273.049774 353.127502,275.047729 353.992828,270.530426 
	C354.976349,265.395996 355.365326,260.147644 356.012726,254.948807 
	C361.116852,256.200317 366.221008,257.451843 371.657440,258.870544 
z"/>
<path fill="#CACBCD" opacity="1.000000" stroke="none" 
	d="
M355.672424,254.795868 
	C355.365326,260.147644 354.976349,265.395996 353.992828,270.530426 
	C353.127502,275.047729 357.855469,273.049774 358.530731,275.606903 
	C355.479736,275.321075 352.743286,274.651703 350.006805,273.982330 
	C347.162659,272.839142 344.318542,271.695953 341.193726,269.897400 
	C337.809021,263.688507 338.578583,258.303833 341.725006,253.473236 
	C340.649109,252.066483 339.832825,250.999146 339.016510,249.931824 
	C341.748138,250.624771 344.479736,251.317719 347.655396,252.380463 
	C348.790314,253.135727 349.481171,253.521179 350.172058,253.906631 
	C351.892090,254.152069 353.612091,254.397507 355.672424,254.795868 
z"/>
<path fill="#B2B3B7" opacity="1.000000" stroke="none" 
	d="
M304.006317,254.990326 
	C300.576660,253.016937 297.147034,251.043533 293.072876,248.893631 
	C291.937988,247.824387 291.447662,246.931641 291.275452,245.867081 
	C291.800903,244.529892 292.078735,243.371918 292.201965,242.197723 
	C292.537933,238.996643 289.646240,234.090378 296.449677,234.296478 
	C296.607849,234.301254 296.810577,232.835266 296.992554,232.055298 
	C302.208527,234.791122 307.424530,237.526932 312.876740,240.501923 
	C310.769012,245.243469 308.425049,249.745834 305.707825,254.621124 
	C304.891846,254.992828 304.449066,254.991577 304.006317,254.990326 
z"/>
<path fill="#9E72A1" opacity="1.000000" stroke="none" 
	d="
M268.677856,14.946140 
	C270.478119,18.770992 271.953125,22.492813 273.784454,27.113720 
	C273.484558,27.308809 271.963074,28.298540 270.167175,29.466797 
	C270.761261,30.762695 271.346558,32.039410 271.564941,33.667221 
	C270.126862,34.046345 269.055756,34.074371 267.632324,33.928612 
	C264.854401,33.111660 262.428802,32.468483 260.003204,31.825310 
	C260.076019,31.677273 260.249817,31.443491 260.207275,31.393419 
	C257.262909,27.926947 257.212433,23.568903 256.354797,19.423506 
	C255.927444,17.357861 254.791656,15.438781 253.964050,13.003631 
	C254.687073,12.546389 255.422409,12.538918 256.653931,12.878817 
	C257.778748,13.118636 258.407379,13.011086 259.035980,12.903536 
	C260.098022,12.973105 261.160034,13.042675 262.703186,13.561871 
	C264.003326,14.231998 264.822388,14.452501 265.641418,14.673002 
	C266.545135,14.729705 267.448853,14.786408 268.677856,14.946140 
z"/>
<path fill="#CACBCD" opacity="1.000000" stroke="none" 
	d="
M290.957306,246.038895 
	C291.447662,246.931641 291.937988,247.824387 292.714661,248.857346 
	C292.283386,250.758224 291.549713,252.512558 290.853027,254.281448 
	C290.215393,255.900314 288.997070,257.586517 289.127228,259.152191 
	C289.429626,262.789185 288.452759,265.751526 285.996704,268.753662 
	C282.821716,267.536407 279.708649,265.933807 276.296570,264.170410 
	C277.882935,257.880066 279.774292,251.752350 281.644501,245.618195 
	C281.832794,245.000519 281.892670,244.343704 282.405212,243.329773 
	C285.518005,243.982651 288.237640,245.010773 290.957306,246.038895 
M282.433899,265.704803 
	C282.705627,265.989502 282.977325,266.274231 283.249023,266.558960 
	C283.366852,266.446320 283.593353,266.241913 283.586823,266.234192 
	C283.333282,265.933929 283.058472,265.651581 282.433899,265.704803 
z"/>
<path fill="#ABACB0" opacity="1.000000" stroke="none" 
	d="
M349.838623,274.315613 
	C352.743286,274.651703 355.479736,275.321075 358.613037,275.977234 
	C360.437866,276.303802 361.865906,276.643555 363.656555,277.070496 
	C362.312012,281.096252 362.174255,284.876953 364.254242,288.868988 
	C364.939728,290.184692 364.147583,292.270294 364.028442,294.364868 
	C358.911438,293.620361 353.796997,292.514893 348.338928,291.219910 
	C348.003387,286.878998 347.880737,282.720795 348.095032,278.580078 
	C348.164062,277.246063 349.120148,275.957977 349.838623,274.315613 
z"/>
<path fill="#ABACB0" opacity="1.000000" stroke="none" 
	d="
M291.275452,245.867081 
	C288.237640,245.010773 285.518005,243.982651 282.427643,242.931152 
	C280.375519,240.862747 278.694122,238.817734 277.280701,236.250732 
	C278.733276,231.448502 279.917877,227.168259 281.102448,222.888000 
	C286.181030,225.864914 291.259644,228.841827 296.665405,231.937012 
	C296.810577,232.835266 296.607849,234.301254 296.449677,234.296478 
	C289.646240,234.090378 292.537933,238.996643 292.201965,242.197723 
	C292.078735,243.371918 291.800903,244.529892 291.275452,245.867081 
z"/>
<path fill="#C0C1C4" opacity="1.000000" stroke="none" 
	d="
M304.003662,255.425201 
	C304.449066,254.991577 304.891846,254.992828 305.666687,254.994232 
	C309.134155,257.585114 312.269531,260.175781 315.725372,263.031281 
	C313.108643,267.806824 318.773102,276.076965 309.125122,278.751587 
	C305.758636,277.945068 302.574615,276.804932 299.155609,275.400269 
	C302.566925,272.496582 303.400146,268.900970 303.100647,264.562988 
	C302.902771,261.696411 303.667328,258.763367 304.003662,255.425201 
z"/>
<path fill="#D2BED6" opacity="1.000000" stroke="none" 
	d="
M381.887421,104.028168 
	C383.652100,106.667526 385.416809,109.306885 387.449829,112.501434 
	C388.170685,114.038300 388.623169,115.019974 389.075684,116.001648 
	C390.085754,118.394958 391.095795,120.788269 391.822693,123.614197 
	C391.478851,125.980339 390.935577,128.056183 391.455322,129.818512 
	C392.634399,133.816559 394.370789,137.648453 395.741333,141.596237 
	C395.822968,141.831268 394.677429,142.492310 394.102936,142.955109 
	C391.434570,137.523056 388.946198,131.992203 386.036591,126.692596 
	C383.988586,122.962364 381.367950,119.546509 378.984314,115.233513 
	C378.090668,110.476852 377.892731,106.666306 381.887421,104.028168 
z"/>
<path fill="#9E72A1" opacity="1.000000" stroke="none" 
	d="
M326.003601,72.997009 
	C322.412109,70.952438 320.204895,68.517014 321.881531,63.847225 
	C322.917145,60.962952 322.961731,57.722855 323.639984,53.454357 
	C326.905396,55.235233 329.795166,56.811237 332.702576,59.024193 
	C332.180511,64.858856 336.535645,70.468239 331.634918,74.028008 
	C333.433105,76.564392 334.701202,78.353127 335.969330,80.141861 
	C333.495758,78.946274 331.022186,77.750679 328.272339,75.980103 
	C327.331909,74.602425 326.667755,73.799713 326.003601,72.997009 
z"/>
<path fill="#C7AECC" opacity="1.000000" stroke="none" 
	d="
M381.777954,103.711227 
	C377.892731,106.666306 378.090668,110.476852 378.944397,114.894966 
	C374.977692,111.123154 371.032257,106.933098 367.296692,102.352844 
	C367.026794,96.554131 366.547028,91.145622 366.067291,85.737114 
	C367.058899,86.098152 368.050537,86.459190 369.317902,86.964188 
	C372.409485,90.722717 375.225311,94.337280 378.345917,98.041092 
	C379.656616,99.884987 380.662567,101.639641 381.777954,103.711227 
z"/>
<path fill="#A5A6A9" opacity="1.000000" stroke="none" 
	d="
M281.090515,222.902191 
	C279.917877,227.168259 278.733276,231.448502 277.213623,235.913849 
	C273.232574,232.671997 269.586578,229.245056 265.896484,225.471588 
	C266.234070,223.965607 267.067902,222.742081 266.914307,221.658554 
	C266.416504,218.147186 268.129700,216.647476 271.620667,216.040741 
	C273.922577,217.379654 275.839813,218.760773 277.940186,220.792999 
	C279.110565,221.939178 280.097809,222.434219 281.085022,222.929260 
	C281.085022,222.929260 281.078552,222.916397 281.090515,222.902191 
z"/>
<path fill="#C7C8CA" opacity="1.000000" stroke="none" 
	d="
M338.759033,249.664490 
	C339.832825,250.999146 340.649109,252.066483 341.725006,253.473236 
	C338.578583,258.303833 337.809021,263.688507 340.953796,269.627014 
	C338.555908,269.439453 336.117310,268.866943 333.280090,267.788147 
	C331.922089,265.121643 330.346222,263.019867 330.134705,260.788757 
	C329.725372,256.470367 330.084534,252.079193 330.125183,247.718201 
	C332.917328,248.277847 335.709442,248.837494 338.759033,249.664490 
z"/>
<path fill="#BD9EBE" opacity="1.000000" stroke="none" 
	d="
M209.146637,6.450974 
	C204.465515,6.792395 199.572357,6.792395 194.679199,6.792395 
	C194.634201,7.247761 194.589203,7.703128 194.544205,8.158495 
	C196.639908,8.860608 199.466370,8.974634 200.633087,10.424377 
	C201.888611,11.984461 202.103180,14.853489 201.862503,17.051846 
	C201.301270,22.178303 197.408615,23.879705 192.927841,24.871368 
	C192.049591,19.167082 191.216263,13.754697 190.015564,8.151359 
	C190.037720,7.009494 190.449234,5.222720 190.813492,5.232300 
	C196.857391,5.391258 202.895340,5.775594 209.146637,6.450974 
z"/>
<path fill="#C0C1C4" opacity="1.000000" stroke="none" 
	d="
M329.893799,247.467773 
	C330.084534,252.079193 329.725372,256.470367 330.134705,260.788757 
	C330.346222,263.019867 331.922089,265.121643 332.941315,267.640320 
	C332.557037,268.001343 332.113007,268.003906 331.335968,268.008057 
	C327.299744,265.517670 323.596527,263.025757 319.463440,260.244568 
	C320.198517,255.745392 321.091980,250.276855 321.988312,244.438019 
	C324.548279,245.117599 327.105347,246.167480 329.893799,247.467773 
z"/>
<path fill="#A67CA9" opacity="1.000000" stroke="none" 
	d="
M336.109009,80.446167 
	C334.701202,78.353127 333.433105,76.564392 331.634918,74.028008 
	C336.535645,70.468239 332.180511,64.858856 332.859619,59.332802 
	C335.897675,60.794476 338.796326,62.584492 341.847290,64.676361 
	C342.076874,70.932503 342.154144,76.886787 341.911865,83.099686 
	C339.811066,82.489029 338.029877,81.619759 336.109009,80.446167 
z"/>
<path fill="#BD9EBE" opacity="1.000000" stroke="none" 
	d="
M190.114258,71.035324 
	C190.096909,74.394073 190.079544,77.752831 190.106522,81.570343 
	C190.078094,93.427971 190.005325,104.826843 189.881012,116.708488 
	C189.272263,115.966293 188.232498,114.742722 188.228943,113.516136 
	C188.154190,87.781357 188.185867,62.046204 188.253433,36.311272 
	C188.256256,35.235065 188.808701,34.160305 189.439423,32.868881 
	C189.866043,39.136745 189.958344,45.620602 190.052811,53.037395 
	C190.074738,59.658665 190.094498,65.346992 190.114258,71.035324 
z"/>
<path fill="#BD9EBE" opacity="1.000000" stroke="none" 
	d="
M366.015625,85.413857 
	C366.547028,91.145622 367.026794,96.554131 367.131989,102.055710 
	C363.876984,99.693977 360.996552,97.239159 357.943604,94.502563 
	C357.853241,92.134613 357.980743,90.049004 358.006805,87.962135 
	C358.045135,84.888603 358.011108,81.814163 358.028046,78.254807 
	C360.686798,80.209869 363.325378,82.650238 366.015625,85.413857 
z"/>
<path fill="#8C538E" opacity="1.000000" stroke="none" 
	d="
M300.185089,64.382965 
	C299.621460,60.920074 299.299316,57.599674 298.717743,54.325356 
	C298.448730,52.811039 297.673615,51.386623 297.007721,49.598495 
	C297.007721,47.663757 297.007721,45.221870 296.998657,42.399475 
	C299.454712,43.243027 301.919861,44.467087 304.692352,46.264404 
	C302.944519,54.278877 303.970581,61.122299 308.949951,67.198746 
	C307.116394,66.678375 305.282837,66.157997 303.174011,65.047638 
	C302.179718,64.487358 301.460693,64.517075 300.741699,64.546791 
	C300.741699,64.546791 300.320465,64.544296 300.185089,64.382965 
z"/>
<path fill="#905D93" opacity="1.000000" stroke="none" 
	d="
M309.115112,67.520401 
	C303.970581,61.122299 302.944519,54.278877 305.002655,46.416603 
	C309.594818,46.741249 311.410126,49.401646 311.050903,54.035278 
	C310.641418,59.317661 310.685638,64.609985 314.876862,69.153854 
	C313.010559,68.983330 311.145447,68.412689 309.115112,67.520401 
z"/>
<path fill="#D9DADC" opacity="1.000000" stroke="none" 
	d="
M394.076477,143.337738 
	C394.677429,142.492310 395.822968,141.831268 395.741333,141.596237 
	C394.370789,137.648453 392.634399,133.816559 391.455322,129.818512 
	C390.935577,128.056183 391.478851,125.980339 391.930115,123.957565 
	C394.561096,131.202682 396.801575,138.537033 399.390869,145.974884 
	C399.841278,147.127182 399.942932,148.175995 400.090088,149.919647 
	C400.399292,151.418365 400.662964,152.222260 400.926605,153.026138 
	C401.012634,153.599762 401.098663,154.173386 401.364380,155.395325 
	C401.783539,158.040405 402.022949,160.037201 402.262390,162.033981 
	C402.237732,162.469513 402.213074,162.905060 402.147949,163.925323 
	C401.994385,164.684006 401.881256,164.857956 401.768097,165.031921 
	C401.194153,164.332397 400.349792,163.720871 400.089050,162.919434 
	C398.013519,156.540100 396.048737,150.124725 394.076477,143.337738 
z"/>
<path fill="#420E42" opacity="1.000000" stroke="none" 
	d="
M233.515320,49.489235 
	C232.958160,43.254135 232.851715,37.048592 233.050293,30.559803 
	C236.639297,36.169395 239.923264,42.062237 243.162186,48.321381 
	C243.076080,49.177425 243.035019,49.667164 242.993973,50.156906 
	C239.984665,49.944202 236.975372,49.731495 233.515320,49.489235 
z"/>
<path fill="#7A317B" opacity="1.000000" stroke="none" 
	d="
M243.293213,50.399590 
	C243.035019,49.667164 243.076080,49.177425 243.356171,48.319893 
	C243.595215,47.952103 243.986938,47.944340 244.392059,47.964104 
	C254.200089,49.979942 263.602997,51.976017 273.407715,53.979046 
	C275.845551,54.020935 278.217468,53.564514 278.020752,56.865112 
	C278.020752,56.865112 277.917053,57.052639 277.908997,57.159653 
	C275.513824,56.835884 273.126740,56.405106 270.161011,55.541504 
	C268.245270,54.805954 266.908173,54.503227 265.571045,54.200500 
	C258.244843,53.014423 250.918640,51.828350 243.293213,50.399590 
z"/>
<path fill="#D9DADC" opacity="1.000000" stroke="none" 
	d="
M440.271912,149.411865 
	C439.557648,146.493668 438.843353,143.575470 438.190796,140.275818 
	C439.030823,140.438858 440.358948,140.867004 440.502655,141.545898 
	C441.975220,148.501343 443.255585,155.497482 444.091614,162.655548 
	C443.593597,162.828842 443.183167,162.589462 443.183167,162.589462 
	C442.610931,159.619644 442.038727,156.649826 441.322998,152.965607 
	C440.876953,151.304779 440.574432,150.358322 440.271912,149.411865 
z"/>
<path fill="#D9DADC" opacity="1.000000" stroke="none" 
	d="
M433.851685,125.895630 
	C431.073608,121.200562 428.342773,116.114525 425.566071,110.652100 
	C428.313080,115.352028 431.105988,120.428345 433.851685,125.895630 
z"/>
<path fill="#D9DADC" opacity="1.000000" stroke="none" 
	d="
M429.053558,181.635132 
	C433.453949,182.362808 437.952057,183.434357 442.719788,184.757660 
	C438.376709,183.999252 433.764008,182.989120 429.053558,181.635132 
z"/>
<path fill="#D9DADC" opacity="1.000000" stroke="none" 
	d="
M445.128906,175.953079 
	C444.840027,174.215057 444.551147,172.477020 444.237427,170.034607 
	C444.286530,168.876312 444.360474,168.422409 444.434418,167.968506 
	C448.466400,171.875732 446.657837,176.757401 446.398254,181.634171 
	C446.131836,181.932159 445.907745,182.117340 445.834290,181.715485 
	C445.550171,179.526764 445.339539,177.739929 445.128906,175.953079 
z"/>
<path fill="#BD9EBE" opacity="1.000000" stroke="none" 
	d="
M243.724884,9.799231 
	C240.701584,9.686934 237.418762,9.306887 234.032776,8.587410 
	C237.108185,8.675813 240.286758,9.103646 243.724884,9.799231 
z"/>
<path fill="#D9DADC" opacity="1.000000" stroke="none" 
	d="
M402.749237,167.111771 
	C402.769257,168.802231 402.789276,170.492676 402.948730,172.879883 
	C403.218689,173.720596 403.349182,173.864548 403.479645,174.008514 
	C403.479645,174.008514 403.071747,174.093094 402.876617,174.020081 
	C402.256989,171.810104 401.832458,169.673126 401.877625,167.292206 
	C402.347321,167.048233 402.749237,167.111771 402.749237,167.111771 
z"/>
<path fill="#D9DADC" opacity="1.000000" stroke="none" 
	d="
M435.031006,132.175629 
	C434.686920,130.882690 434.444977,129.753189 434.252716,128.278687 
	C435.345337,129.831650 436.388275,131.729630 436.941528,133.674805 
	C436.011749,133.389526 435.571655,133.057037 435.131531,132.724548 
	C435.131531,132.724548 435.133148,132.339081 435.031006,132.175629 
z"/>
<path fill="#9EA0A3" opacity="1.000000" stroke="none" 
	d="
M414.639099,301.556885 
	C416.225006,301.454895 417.994965,301.698456 419.884460,302.290588 
	C418.277039,302.393585 416.550079,302.148041 414.639099,301.556885 
z"/>
<path fill="#BD9EBE" opacity="1.000000" stroke="none" 
	d="
M216.213379,7.897511 
	C214.789978,7.802719 213.581192,7.608149 212.156128,7.108267 
	C213.460876,6.728068 214.981903,6.653181 216.747284,6.817385 
	C216.890945,7.369884 216.703064,7.616971 216.213379,7.897511 
z"/>
<path fill="#D9DADC" opacity="1.000000" stroke="none" 
	d="
M411.999817,176.005768 
	C412.896942,176.472900 413.794098,176.940018 414.849304,177.668549 
	C413.706573,177.623322 412.405762,177.316666 411.287476,176.598633 
	C411.646637,176.126740 411.823212,176.066254 411.999817,176.005768 
z"/>
<path fill="#BD9EBE" opacity="1.000000" stroke="none" 
	d="
M230.723801,7.804837 
	C230.211395,8.351054 229.432541,8.653823 228.319611,8.955505 
	C227.665833,8.642305 227.346130,8.330192 226.957535,7.805460 
	C228.078201,7.582357 229.267776,7.571872 230.723801,7.804837 
z"/>
<path fill="#D9DADC" opacity="1.000000" stroke="none" 
	d="
M423.009155,179.674805 
	C424.147186,179.752808 425.345886,180.130798 426.766724,180.747055 
	C425.682495,180.648468 424.376190,180.311630 423.009155,179.674805 
z"/>
<path fill="#97699A" opacity="1.000000" stroke="none" 
	d="
M232.341095,88.552246 
	C231.701981,89.460960 231.112854,90.053894 230.261566,90.824585 
	C230.282639,89.589043 227.593018,87.065819 231.864166,86.986702 
	C232.287476,87.392624 232.339294,87.814545 232.341095,88.552246 
z"/>
<path fill="#854A88" opacity="1.000000" stroke="none" 
	d="
M265.763184,54.501213 
	C266.908173,54.503227 268.245270,54.805954 269.778564,55.402119 
	C268.634918,55.397686 267.295105,55.099808 265.763184,54.501213 
z"/>
<path fill="#D9DADC" opacity="1.000000" stroke="none" 
	d="
M418.006165,97.609894 
	C417.276215,97.556297 416.548706,97.151184 415.543091,96.590805 
	C415.234619,96.101479 415.204254,95.767433 415.216339,95.184219 
	C416.175385,95.709496 417.092010,96.483940 418.006165,97.609894 
z"/>
<path fill="#7A317B" opacity="1.000000" stroke="none" 
	d="
M444.338745,167.561295 
	C444.360474,168.422409 444.286530,168.876312 444.136780,169.668976 
	C443.723053,167.836044 443.385193,165.664337 443.115234,163.041046 
	C443.183167,162.589462 443.593597,162.828842 443.817261,162.908844 
	C444.108337,164.377258 444.175720,165.765671 444.338745,167.561295 
z"/>
<path fill="#D9DADC" opacity="1.000000" stroke="none" 
	d="
M403.255615,174.991623 
	C404.444031,174.811264 405.741852,174.948822 407.497314,175.293304 
	C407.954956,175.500214 408.015137,175.933517 408.015137,175.933517 
	C406.465088,175.725525 404.915070,175.517532 403.255615,174.991623 
z"/>
<path fill="#D9DADC" opacity="1.000000" stroke="none" 
	d="
M410.931702,88.767441 
	C410.013367,88.265282 409.098999,87.423531 408.162659,86.252998 
	C409.072357,86.758759 410.003998,87.593300 410.931702,88.767441 
z"/>
<path fill="#966699" opacity="1.000000" stroke="none" 
	d="
M326.001801,72.998581 
	C326.667755,73.799713 327.331909,74.602425 328.008301,75.772575 
	C327.444214,76.001900 326.867889,75.863785 326.125061,75.129196 
	C325.971161,74.022873 325.983765,73.513039 325.996338,73.003197 
	C325.996338,73.003197 326.000000,73.000153 326.001801,72.998581 
z"/>
<path fill="#7A317B" opacity="1.000000" stroke="none" 
	d="
M403.025452,166.946442 
	C402.749237,167.111771 402.347321,167.048233 402.144653,167.030441 
	C401.945374,166.567657 401.948792,166.122665 401.860138,165.354797 
	C401.881256,164.857956 401.994385,164.684006 402.257263,164.237091 
	C402.705261,164.903107 403.003448,165.842102 403.025452,166.946442 
z"/>
<path fill="#BD9EBE" opacity="1.000000" stroke="none" 
	d="
M250.197998,11.412031 
	C249.290878,11.469134 248.210266,11.228499 247.021408,10.658071 
	C247.950272,10.590282 248.987411,10.852287 250.197998,11.412031 
z"/>
<path fill="#D9DADC" opacity="1.000000" stroke="none" 
	d="
M401.070496,78.366791 
	C400.388062,78.045860 399.680664,77.387131 398.889313,76.429245 
	C399.552094,76.763054 400.298828,77.396027 401.070496,78.366791 
z"/>
<path fill="#9E72A1" opacity="1.000000" stroke="none" 
	d="
M325.584656,73.003738 
	C325.983765,73.513039 325.971161,74.022873 325.914764,74.914757 
	C324.929230,74.764786 323.987457,74.232773 322.870728,73.418228 
	C323.521454,73.091888 324.347198,73.048088 325.584656,73.003738 
z"/>
<path fill="#905D93" opacity="1.000000" stroke="none" 
	d="
M356.277466,46.289978 
	C355.254761,46.159729 354.194366,45.677757 353.143005,44.775181 
	C354.181274,44.882469 355.210480,45.410362 356.277466,46.289978 
z"/>
<path fill="#ABACB0" opacity="1.000000" stroke="none" 
	d="
M280.943726,222.640945 
	C280.097809,222.434219 279.110565,221.939178 278.127441,221.060303 
	C279.021790,221.235199 279.912109,221.793915 280.943726,222.640945 
z"/>
<path fill="#7A317B" opacity="1.000000" stroke="none" 
	d="
M435.086121,133.093964 
	C435.571655,133.057037 436.011749,133.389526 436.691589,133.859467 
	C436.946594,134.453033 436.961945,134.909134 436.936798,135.705566 
	C436.277802,135.185059 435.659241,134.324219 435.086121,133.093964 
z"/>
<path fill="#A67CA9" opacity="1.000000" stroke="none" 
	d="
M258.877289,12.710032 
	C258.407379,13.011086 257.778748,13.118636 257.017334,12.946974 
	C257.495911,12.617350 258.107239,12.566937 258.877289,12.710032 
z"/>
<path fill="#D9DADC" opacity="1.000000" stroke="none" 
	d="
M437.143372,137.756439 
	C437.152283,137.337341 437.161194,136.918243 437.234406,136.191315 
	C437.676208,136.488922 438.053711,137.094360 437.992065,137.805115 
	C437.552948,137.910431 437.143372,137.756439 437.143372,137.756439 
z"/>
<path fill="#9B6B9E" opacity="1.000000" stroke="none" 
	d="
M292.380890,20.527977 
	C291.756317,20.562777 290.974274,20.311161 290.093658,19.749172 
	C290.737885,19.706385 291.480621,19.973972 292.380890,20.527977 
z"/>
<path fill="#A67CA9" opacity="1.000000" stroke="none" 
	d="
M265.502289,14.366077 
	C264.822388,14.452501 264.003326,14.231998 263.083557,13.685383 
	C263.776276,13.592564 264.569733,13.825858 265.502289,14.366077 
z"/>
<path fill="#D9DADC" opacity="1.000000" stroke="none" 
	d="
M423.278076,105.812408 
	C422.755920,105.496536 422.451172,105.022102 422.165100,104.252640 
	C422.621033,104.523033 423.058258,105.088440 423.278076,105.812408 
z"/>
<path fill="#AB84AE" opacity="1.000000" stroke="none" 
	d="
M229.634918,127.618881 
	C230.105820,127.250664 230.723862,127.159706 231.812302,127.103539 
	C231.449158,127.390930 230.615616,127.643532 229.634918,127.618881 
z"/>
<path fill="#D9DADC" opacity="1.000000" stroke="none" 
	d="
M408.032349,85.554161 
	C407.409332,85.451134 406.741211,85.048126 406.101013,84.308243 
	C406.748383,84.398979 407.367798,84.826584 408.032349,85.554161 
z"/>
<path fill="#7A317B" opacity="1.000000" stroke="none" 
	d="
M408.390625,175.937103 
	C408.015137,175.933517 407.954956,175.500214 407.889374,175.291595 
	C409.053955,175.202896 410.284119,175.322830 411.757050,175.724274 
	C411.823212,176.066254 411.646637,176.126740 411.214752,176.301910 
	C410.228363,176.257980 409.497223,176.099350 408.390625,175.937103 
z"/>
<path fill="#D1D2D4" opacity="1.000000" stroke="none" 
	d="
M350.086700,253.596924 
	C349.481171,253.521179 348.790314,253.135727 348.042297,252.432846 
	C348.657196,252.506012 349.329285,252.896622 350.086700,253.596924 
z"/>
<path fill="#854A88" opacity="1.000000" stroke="none" 
	d="
M300.980835,64.719437 
	C301.460693,64.517075 302.179718,64.487358 302.927765,64.790855 
	C302.377869,65.046738 301.798920,64.969414 300.980835,64.719437 
z"/>
<path fill="#7A317B" opacity="1.000000" stroke="none" 
	d="
M437.025452,138.016296 
	C437.143372,137.756439 437.552948,137.910431 437.767303,137.954086 
	C437.982239,138.460556 437.982788,138.923386 437.913391,139.726273 
	C437.531464,139.469620 437.219482,138.872894 437.025452,138.016296 
z"/>
<path fill="#D9DADC" opacity="1.000000" stroke="none" 
	d="
M403.336182,81.971046 
	C403.041138,81.886070 403.087769,81.398109 403.166931,81.166153 
	C403.736938,81.201012 404.227814,81.467827 404.773193,82.021942 
	C404.428864,82.224831 404.030060,82.140427 403.336182,81.971046 
z"/>
<path fill="#A67CA9" opacity="1.000000" stroke="none" 
	d="
M344.202637,85.210800 
	C344.149628,84.688995 344.314423,84.301582 344.479248,83.914154 
	C344.626709,84.253387 344.774170,84.592628 344.909698,85.230965 
	C344.738647,85.468445 344.579529,85.406815 344.202637,85.210800 
z"/>
<path fill="#9B6B9E" opacity="1.000000" stroke="none" 
	d="
M283.433228,18.535950 
	C283.208008,18.710588 282.804932,18.611425 282.203674,18.266510 
	C282.422089,18.101225 282.838715,18.181686 283.433228,18.535950 
z"/>
<path fill="#905D93" opacity="1.000000" stroke="none" 
	d="
M317.276550,69.118942 
	C317.750397,69.219246 317.998840,69.359276 318.247314,69.499313 
	C317.999298,69.638573 317.687012,69.941841 317.519257,69.876144 
	C317.302765,69.791367 317.201843,69.411476 317.276550,69.118942 
z"/>
<path fill="#A479A6" opacity="1.000000" stroke="none" 
	d="
M190.496643,71.124718 
	C190.094498,65.346992 190.074738,59.658665 190.078217,53.508007 
	C190.734360,54.355526 191.747559,55.618389 191.916458,56.985554 
	C192.215179,59.403641 192.000153,61.885193 192.000153,63.991615 
	C197.833511,63.991615 203.107452,64.312004 208.309952,63.841835 
	C210.548309,63.639545 212.775726,62.002125 214.769287,60.661560 
	C219.886642,57.220444 224.870331,53.580547 231.006256,49.243412 
	C231.006256,57.851181 231.006256,64.954597 231.004959,72.525940 
	C230.014771,74.630585 229.025879,76.267311 227.812485,78.275627 
	C224.851303,76.584900 222.382660,77.583870 218.739670,79.908356 
	C214.569275,82.569366 208.407074,82.117058 203.105057,82.985596 
	C202.459641,83.091324 201.781937,83.000008 201.119202,83.000008 
	C192.440231,82.999992 192.471985,82.998108 191.954636,74.254173 
	C191.893646,73.223213 191.251678,72.226631 190.496643,71.124718 
z"/>
<path fill="#813F84" opacity="1.000000" stroke="none" 
	d="
M243.986938,47.944340 
	C243.986938,47.944340 243.595215,47.952103 243.401215,47.953590 
	C239.923264,42.062237 236.639297,36.169395 233.044907,30.085646 
	C233.073837,29.276381 233.362015,28.165987 233.761398,28.124441 
	C235.535873,27.939840 237.342224,28.061489 239.562347,28.078981 
	C241.184494,28.545216 242.381317,29.004866 243.568237,30.028126 
	C243.038666,32.058006 241.975647,33.572449 242.100586,34.981575 
	C242.485580,39.324108 243.324417,43.626411 243.986938,47.944340 
z"/>
<path fill="#741E75" opacity="1.000000" stroke="none" 
	d="
M414.929932,147.496796 
	C414.846283,146.180176 414.384521,144.874924 414.831146,144.364471 
	C419.263641,139.298477 428.018158,137.748032 434.962769,140.969818 
	C428.252563,144.573624 421.846558,148.014069 415.259491,151.551758 
	C415.213623,150.962662 415.093475,149.419830 414.929932,147.496796 
z"/>
<path fill="#741E75" opacity="1.000000" stroke="none" 
	d="
M402.996338,155.008026 
	C406.105743,152.743088 409.215179,150.478134 412.528198,148.064880 
	C413.699921,150.836670 413.264221,153.821106 410.662811,156.605103 
	C408.953033,158.434860 407.386566,160.398514 405.251740,162.890747 
	C405.529419,163.031784 404.621918,162.570877 403.366150,161.618896 
	C403.010681,159.087875 403.003510,157.047943 402.996338,155.008026 
z"/>
<path fill="#7A317B" opacity="1.000000" stroke="none" 
	d="
M444.832520,176.180786 
	C445.339539,177.739929 445.550171,179.526764 445.688965,181.710876 
	C445.256836,180.208252 444.896515,178.308365 444.832520,176.180786 
z"/>
<path fill="#7A317B" opacity="1.000000" stroke="none" 
	d="
M402.640137,155.037384 
	C403.003510,157.047943 403.010681,159.087875 403.036224,161.565094 
	C403.054596,162.002396 402.659027,162.034622 402.460693,162.034302 
	C402.022949,160.037201 401.783539,158.040405 401.561768,155.615753 
	C401.814301,155.147491 402.049133,155.107101 402.640137,155.037384 
z"/>
<path fill="#7A317B" opacity="1.000000" stroke="none" 
	d="
M401.191376,152.855988 
	C400.662964,152.222260 400.399292,151.418365 400.228210,150.291000 
	C400.699249,150.873611 401.077698,151.779724 401.191376,152.855988 
z"/>
<path fill="#741E75" opacity="1.000000" stroke="none" 
	d="
M406.465240,169.609650 
	C406.349457,170.058487 406.064667,170.330826 405.779877,170.603180 
	C405.667206,170.485199 405.450073,170.270493 405.456909,170.263107 
	C405.723938,169.974686 406.011414,169.705170 406.465240,169.609650 
z"/>
<path fill="#7A317B" opacity="1.000000" stroke="none" 
	d="
M440.198181,149.812103 
	C440.574432,150.358322 440.876953,151.304779 441.153381,152.631775 
	C440.792969,152.078995 440.458710,151.145676 440.198181,149.812103 
z"/>
<path fill="#7A317B" opacity="1.000000" stroke="none" 
	d="
M403.564453,173.857391 
	C403.349182,173.864548 403.218689,173.720596 403.073242,173.285522 
	C403.255219,173.231705 403.452240,173.468979 403.564453,173.857391 
z"/>
<path fill="#EEEEEE" opacity="1.000000" stroke="none" 
	d="
M314.264709,358.062256 
	C312.542450,357.944977 311.285461,357.828156 309.277344,357.641571 
	C313.422882,349.750336 317.283356,342.401764 321.629608,334.128387 
	C326.348938,342.202972 330.635895,349.537781 335.618439,358.062714 
	C328.046967,358.062714 321.388489,358.062714 314.264709,358.062256 
z"/>
<path fill="#B8B8BC" opacity="1.000000" stroke="none" 
	d="
M392.000458,281.555206 
	C393.236084,281.495361 394.585052,281.781952 396.080566,282.391174 
	C394.856018,282.443085 393.484924,282.172394 392.000458,281.555206 
z"/>
<path fill="#7D367E" opacity="1.000000" stroke="none" 
	d="
M389.440948,116.001526 
	C388.623169,115.019974 388.170685,114.038300 387.697449,112.734039 
	C391.175568,110.249550 391.393341,113.046104 391.995422,115.633484 
	C391.267914,116.000465 390.537079,116.000938 389.440948,116.001526 
z"/>
<path fill="#854A88" opacity="1.000000" stroke="none" 
	d="
M390.107788,68.898544 
	C389.890991,69.434898 389.569489,70.070160 389.247986,70.705414 
	C389.008240,70.550606 388.768494,70.395798 388.528748,70.240990 
	C388.886719,69.817726 389.244690,69.394463 389.901947,68.879448 
	C390.201233,68.787697 390.003113,68.997444 390.107788,68.898544 
z"/>
<path fill="#854A88" opacity="1.000000" stroke="none" 
	d="
M393.533752,73.553474 
	C393.476166,73.588432 393.591309,73.518517 393.533752,73.553474 
z"/>
<path fill="#813F84" opacity="1.000000" stroke="none" 
	d="
M278.366638,56.906277 
	C278.217468,53.564514 275.845551,54.020935 273.364990,53.612892 
	C271.275146,46.860657 269.629883,40.481529 267.984619,34.102398 
	C269.055756,34.074371 270.126862,34.046345 271.600098,34.017471 
	C272.785400,34.338142 273.568634,34.659668 274.665771,35.039532 
	C276.790710,39.652126 278.601715,44.206387 280.608948,49.254162 
	C280.230896,50.029251 279.608398,51.305576 278.780457,53.003056 
	C280.441284,53.949844 281.935181,54.801453 283.429047,55.653065 
	C283.448395,56.084522 283.467743,56.515984 283.487061,56.947441 
	C281.895569,56.947441 280.304047,56.947441 278.366638,56.906277 
z"/>
<path fill="#823483" opacity="1.000000" stroke="none" 
	d="
M267.632324,33.928619 
	C269.629883,40.481529 271.275146,46.860657 272.963165,53.605942 
	C263.602997,51.976017 254.200089,49.979942 244.392059,47.964104 
	C243.324417,43.626411 242.485580,39.324108 242.100586,34.981575 
	C241.975647,33.572449 243.038666,32.058006 243.791107,30.275227 
	C245.729141,29.994909 247.434433,30.031105 249.604889,30.389591 
	C250.714752,30.804691 251.359436,30.897503 252.004135,30.990314 
	C254.402664,31.294853 256.801208,31.599390 259.601471,31.864616 
	C262.428802,32.468483 264.854401,33.111660 267.632324,33.928619 
z"/>
<path fill="#813F84" opacity="1.000000" stroke="none" 
	d="
M251.831390,30.751423 
	C251.359436,30.897503 250.714752,30.804691 250.029083,30.437393 
	C250.544937,30.279448 251.101791,30.395988 251.831390,30.751423 
z"/>
<path fill="#C7C8CA" opacity="1.000000" stroke="none" 
	d="
M282.610168,265.535828 
	C283.058472,265.651581 283.333282,265.933929 283.586823,266.234192 
	C283.593353,266.241913 283.366852,266.446320 283.249023,266.558960 
	C282.977325,266.274231 282.705627,265.989502 282.610168,265.535828 
z"/>
</svg>