<svg version="1.1" id="Layer_1" xmlns="http://www.w3.org/2000/svg" xmlns:xlink="http://www.w3.org/1999/xlink" x="0px" y="0px"
	 width="100%" viewBox="0 0 180 180" enable-background="new 0 0 180 180" xml:space="preserve">
<path fill="#FFFFFF" opacity="1.000000" stroke="none" 
	d="
M82.000000,181.000000 
	C54.666668,181.000000 27.833336,181.000000 1.000004,181.000000 
	C1.000002,121.000008 1.000002,61.000011 1.000001,1.000012 
	C60.999989,1.000008 120.999977,1.000008 180.999969,1.000004 
	C180.999985,60.999989 180.999985,120.999977 181.000000,180.999985 
	C148.166672,181.000000 115.333336,181.000000 82.000000,181.000000 
M124.363548,73.736931 
	C123.241005,72.827454 122.118469,71.917984 120.996384,70.191338 
	C121.208717,67.284180 119.860931,66.327606 116.972878,65.843468 
	C114.494667,65.428055 112.221771,63.674404 109.911049,62.415344 
	C108.496132,61.644390 107.225601,60.609268 105.813667,59.831841 
	C98.956291,56.056099 91.967224,59.585533 85.047997,59.686016 
	C84.015778,59.701004 83.014397,61.839848 81.180038,62.999092 
	C78.877373,63.957222 76.574715,64.915352 73.422256,66.227081 
	C71.269104,64.483238 68.638153,64.478088 66.872955,68.802956 
	C66.591568,69.492393 64.943306,69.859428 63.887566,69.959412 
	C56.643394,70.645424 56.558643,70.733818 54.935379,78.359566 
	C54.734184,79.304749 53.758713,80.064888 53.241379,80.967712 
	C52.452610,82.344215 50.785835,84.152298 51.166599,85.114182 
	C53.851181,91.896027 49.273335,98.633583 51.653877,105.677673 
	C52.917515,109.416809 52.884617,112.600334 57.721462,112.475487 
	C57.902874,117.071114 59.851086,118.624252 64.234642,117.535179 
	C66.159363,117.056984 68.723671,117.252762 70.429131,118.183792 
	C74.097954,120.186607 78.866310,122.135689 80.505074,125.436928 
	C82.958427,130.379105 81.913673,130.715530 87.193939,128.462753 
	C90.514404,127.046127 93.399429,125.232750 97.838898,127.271210 
	C103.420853,129.834259 110.828331,123.844879 111.701492,117.850182 
	C113.082146,117.208389 114.462799,116.566597 116.513535,116.206886 
	C117.286812,116.420570 118.406708,117.075302 118.780930,116.781204 
	C123.704720,112.911606 128.550644,108.940407 133.328033,104.890762 
	C133.829712,104.465500 133.930695,103.382889 133.945801,102.600006 
	C134.013947,99.069069 133.984207,95.536240 134.671936,91.625160 
	C138.229309,84.484474 133.962936,75.230797 126.129715,73.205078 
	C125.840401,73.130257 125.376518,73.730461 124.363548,73.736931 
z"/>
<path fill="#FAFAF4" opacity="1.000000" stroke="none" 
	d="
M111.042053,117.798752 
	C110.828331,123.844879 103.420853,129.834259 97.838898,127.271210 
	C93.399429,125.232750 90.514404,127.046127 87.193939,128.462753 
	C81.913673,130.715530 82.958427,130.379105 80.505074,125.436928 
	C78.866310,122.135689 74.097954,120.186607 70.429131,118.183792 
	C68.723671,117.252762 66.159363,117.056984 64.234642,117.535179 
	C59.851086,118.624252 57.902874,117.071114 57.721462,112.475487 
	C52.884617,112.600334 52.917515,109.416809 51.653877,105.677673 
	C49.273335,98.633583 53.851181,91.896027 51.166599,85.114182 
	C50.785835,84.152298 52.452610,82.344215 53.241379,80.967712 
	C53.758713,80.064888 54.734184,79.304749 54.935379,78.359566 
	C56.558643,70.733818 56.643394,70.645424 63.887566,69.959412 
	C64.943306,69.859428 66.591568,69.492393 66.872955,68.802956 
	C68.638153,64.478088 71.269104,64.483238 73.422256,66.227081 
	C76.574715,64.915352 78.877373,63.957222 81.949799,62.961903 
	C85.148125,62.619610 87.576698,62.314503 89.902481,62.256699 
	C89.538177,62.969692 89.276657,63.435387 88.652977,63.993946 
	C84.877045,65.769623 81.463280,67.452446 77.084076,69.611176 
	C82.069038,70.976173 85.446236,71.608559 88.542061,72.910172 
	C89.598976,73.354553 89.949219,75.479721 90.453506,76.928162 
	C90.075066,77.181686 89.931061,77.389450 89.549141,77.760040 
	C88.811485,78.583923 88.377350,79.290451 87.754257,80.199959 
	C87.287155,81.067444 87.008995,81.731956 86.404831,82.586746 
	C85.081169,87.791748 84.083519,92.806488 83.052429,98.262894 
	C83.617340,101.319138 81.229660,105.219109 86.330589,106.203690 
	C87.034546,107.235016 87.556168,108.036591 88.051003,109.238174 
	C87.677589,111.412025 87.330978,113.185867 86.910805,115.210785 
	C86.852486,115.635597 86.867737,115.809349 86.629684,116.258911 
	C84.025009,116.918098 81.673653,117.301476 79.322296,117.684860 
	C79.296448,118.133682 79.270607,118.582504 79.244759,119.031326 
	C80.329597,119.444519 81.414429,119.857712 82.742332,120.557106 
	C87.919960,124.037636 93.276642,123.965584 99.190308,122.921127 
	C102.463928,122.810577 105.877060,123.577560 106.197723,118.803040 
	C106.600243,118.058167 106.805397,117.527702 107.266090,117.014267 
	C107.855820,117.065247 108.189995,117.099205 108.875336,117.107880 
	C109.831680,117.321327 110.436867,117.560036 111.042053,117.798752 
M72.091949,79.803902 
	C73.611549,76.784447 75.131142,73.764992 76.741570,70.565056 
	C62.660770,71.695381 53.740364,82.615608 55.132881,96.533623 
	C56.221176,107.410980 66.503815,117.391556 76.889641,116.415367 
	C69.142014,105.245750 67.135078,93.332664 72.091949,79.803902 
z"/>
<path fill="#F8F6EA" opacity="1.000000" stroke="none" 
	d="
M133.989746,92.004097 
	C133.984207,95.536240 134.013947,99.069069 133.945801,102.600006 
	C133.930695,103.382889 133.829712,104.465500 133.328033,104.890762 
	C128.550644,108.940407 123.704720,112.911606 118.780930,116.781204 
	C118.406708,117.075302 117.286812,116.420570 116.355324,115.797302 
	C117.205208,114.627586 118.213295,113.867447 119.489944,113.053543 
	C120.178520,112.676094 120.598549,112.352417 121.323555,111.888779 
	C128.888611,105.318924 131.857056,97.552368 129.044754,87.618088 
	C128.654114,86.187035 128.249863,85.119003 127.854385,83.729919 
	C127.552727,82.614021 127.242302,81.819176 127.310295,81.019760 
	C131.558456,82.034309 133.003983,84.585800 132.769974,88.497437 
	C132.701736,89.637917 133.557510,90.833679 133.989746,92.004097 
z"/>
<path fill="#FDFDFD" opacity="1.000000" stroke="none" 
	d="
M90.005272,62.009399 
	C87.576698,62.314503 85.148125,62.619610 82.359146,62.960434 
	C83.014397,61.839848 84.015778,59.701004 85.047997,59.686016 
	C91.967224,59.585533 98.956291,56.056099 105.813667,59.831841 
	C107.225601,60.609268 108.496132,61.644390 109.911049,62.415344 
	C112.221771,63.674404 114.494667,65.428055 116.972878,65.843468 
	C119.860931,66.327606 121.208717,67.284180 120.636475,70.559021 
	C115.966461,68.423309 111.714783,65.610947 106.219620,68.160553 
	C105.569809,67.523224 105.122055,67.032837 104.855309,66.186409 
	C106.676682,61.489464 101.314995,62.857056 100.623329,60.417370 
	C99.082420,60.944855 97.541519,61.472336 95.572357,62.000404 
	C93.431160,62.003792 91.718216,62.006592 90.005272,62.009399 
z"/>
<path fill="#FDFDFD" opacity="1.000000" stroke="none" 
	d="
M134.330841,91.814629 
	C133.557510,90.833679 132.701736,89.637917 132.769974,88.497437 
	C133.003983,84.585800 131.558456,82.034309 127.056038,80.858040 
	C125.914940,79.864563 125.406517,79.028221 124.932053,77.775131 
	C124.975334,76.244286 124.984657,75.130180 124.993980,74.016083 
	C125.376518,73.730461 125.840401,73.130257 126.129715,73.205078 
	C133.962936,75.230797 138.229309,84.484474 134.330841,91.814629 
z"/>
<path fill="#F8F6EA" opacity="1.000000" stroke="none" 
	d="
M124.678764,73.876511 
	C124.984657,75.130180 124.975334,76.244286 124.648224,77.590958 
	C121.915794,76.148727 119.501175,74.473930 116.886734,72.587326 
	C116.132927,72.223221 115.578949,72.070923 114.767166,71.679657 
	C112.643044,70.963631 110.776718,70.486565 108.373566,69.872276 
	C109.137436,71.963570 109.676979,73.440697 109.805695,74.904938 
	C106.231056,73.856834 103.067245,72.821609 100.179291,71.546677 
	C102.443985,70.307144 104.432831,69.307327 106.421669,68.307503 
	C111.714783,65.610947 115.966461,68.423309 120.636246,70.967606 
	C122.118469,71.917984 123.241005,72.827454 124.678764,73.876511 
z"/>
<path fill="#AEA280" opacity="1.000000" stroke="none" 
	d="
M119.221390,113.107315 
	C118.213295,113.867447 117.205208,114.627586 116.020279,115.656258 
	C114.462799,116.566597 113.082146,117.208389 111.371773,117.824463 
	C110.436867,117.560036 109.831680,117.321327 109.000458,116.752174 
	C109.181885,115.280624 109.589340,114.139503 110.256287,112.816246 
	C111.307259,111.415810 112.098740,110.197517 113.153915,109.176888 
	C113.417610,110.718117 113.417610,112.061668 113.417610,113.459129 
	C115.469269,113.334763 117.345329,113.221039 119.221390,113.107315 
z"/>
<path fill="#AE9D75" opacity="1.000000" stroke="none" 
	d="
M71.955399,80.171013 
	C67.135078,93.332664 69.142014,105.245750 76.889641,116.415367 
	C66.503815,117.391556 56.221176,107.410980 55.132881,96.533623 
	C53.740364,82.615608 62.660770,71.695381 76.741570,70.565056 
	C75.131142,73.764992 73.611549,76.784447 71.955399,80.171013 
z"/>
<path fill="#AD9C72" opacity="1.000000" stroke="none" 
	d="
M86.730843,82.396469 
	C87.008995,81.731956 87.287155,81.067444 88.106613,80.150391 
	C89.049492,79.146126 89.451080,78.394402 89.852661,77.642677 
	C89.931061,77.389450 90.075066,77.181686 90.832504,76.992752 
	C92.578880,77.321304 93.777428,77.676498 95.091248,78.293404 
	C97.832870,84.090469 100.745239,89.108521 99.621696,96.116837 
	C98.924599,100.465141 97.406326,103.478691 94.711525,106.115723 
	C91.744499,109.019142 89.830391,105.077110 87.417427,104.260971 
	C86.953018,104.103905 86.441299,104.086746 85.888008,103.849442 
	C85.824615,103.693840 85.842270,103.358109 85.886414,102.987274 
	C85.366638,101.739601 84.802719,100.862762 84.135902,99.670258 
	C83.987823,98.915276 83.942650,98.475945 84.224533,97.982582 
	C85.278015,92.751183 86.004425,87.573830 86.730843,82.396469 
z"/>
<path fill="#AFA17D" opacity="1.000000" stroke="none" 
	d="
M94.975975,78.031700 
	C93.777428,77.676498 92.578880,77.321304 91.001343,76.901512 
	C89.949219,75.479721 89.598976,73.354553 88.542061,72.910172 
	C85.446236,71.608559 82.069038,70.976173 77.084076,69.611176 
	C81.463280,67.452446 84.877045,65.769623 89.095200,64.022827 
	C92.267685,63.952568 94.635796,63.946293 97.323837,64.062836 
	C98.726730,64.543915 99.809700,64.902184 101.139229,65.493546 
	C102.266876,65.935059 103.147964,66.143471 104.167984,66.475281 
	C104.306923,66.598679 104.674301,66.542458 104.674301,66.542458 
	C105.122055,67.032837 105.569809,67.523224 106.219620,68.160553 
	C104.432831,69.307327 102.443985,70.307144 99.838989,71.587624 
	C98.149757,72.254143 97.076683,72.639999 95.684578,73.094070 
	C95.156723,74.143074 94.947899,75.123871 94.823624,76.372284 
	C95.041428,76.988945 95.174667,77.338005 95.224487,77.772797 
	C95.141060,77.858536 94.975975,78.031700 94.975975,78.031700 
z"/>
<path fill="#AFA17D" opacity="1.000000" stroke="none" 
	d="
M85.951401,104.005051 
	C86.441299,104.086746 86.953018,104.103905 87.417427,104.260971 
	C89.830391,105.077110 91.744499,109.019142 94.711525,106.115723 
	C97.406326,103.478691 98.924599,100.465141 99.621696,96.116837 
	C100.745239,89.108521 97.832870,84.090469 95.091248,78.293404 
	C94.975975,78.031700 95.141060,77.858536 95.515709,77.867874 
	C96.612846,78.578270 97.335335,79.279327 98.160767,80.318726 
	C99.532059,84.108643 100.800400,87.560219 102.044136,91.450027 
	C101.669701,95.254906 101.319870,98.621567 100.722504,102.210510 
	C99.285789,104.596474 98.096619,106.760147 96.915520,108.934097 
	C96.923599,108.944382 96.908112,108.902290 96.597214,109.053535 
	C95.074219,110.269005 93.862122,111.333221 92.569603,112.468056 
	C90.893898,111.113899 89.485847,109.976036 88.077797,108.838173 
	C87.556168,108.036591 87.034546,107.235016 86.309540,105.873871 
	C86.054573,104.877884 86.002991,104.441467 85.951401,104.005051 
z"/>
<path fill="#AF9F79" opacity="1.000000" stroke="none" 
	d="
M98.763992,122.882439 
	C93.276642,123.965584 87.919960,124.037636 83.180450,120.481003 
	C88.932976,122.252533 92.856682,119.776787 96.490219,115.628922 
	C97.222900,115.577560 97.636971,115.480690 98.422943,115.532654 
	C99.844734,115.829880 100.894630,115.978271 102.235115,116.357826 
	C104.020645,116.725075 105.515602,116.861153 107.010544,116.997238 
	C106.805397,117.527702 106.600243,118.058167 105.871933,118.907196 
	C103.153839,120.444649 100.958916,121.663544 98.763992,122.882439 
z"/>
<path fill="#AD9C72" opacity="1.000000" stroke="none" 
	d="
M96.171616,115.583405 
	C92.856682,119.776787 88.932976,122.252533 82.937386,120.194794 
	C81.414429,119.857712 80.329597,119.444519 79.244759,119.031326 
	C79.270607,118.582504 79.296448,118.133682 79.322296,117.684860 
	C81.673653,117.301476 84.025009,116.918098 87.004196,116.265312 
	C89.859711,115.598503 92.087387,115.201096 94.585144,114.803596 
	C95.294029,115.063469 95.732826,115.323433 96.171616,115.583405 
z"/>
<path fill="#F5F2E4" opacity="1.000000" stroke="none" 
	d="
M96.490219,115.628922 
	C95.732826,115.323433 95.294029,115.063469 94.387451,114.510468 
	C91.607910,114.464859 89.296135,114.712288 86.984367,114.959717 
	C87.330978,113.185867 87.677589,111.412025 88.051003,109.238174 
	C89.485847,109.976036 90.893898,111.113899 92.569603,112.468056 
	C93.862122,111.333221 95.074219,110.269005 96.627075,109.440025 
	C97.328903,111.578117 97.689972,113.480972 98.051048,115.383820 
	C97.636971,115.480690 97.222900,115.577560 96.490219,115.628922 
z"/>
<path fill="#AFA17D" opacity="1.000000" stroke="none" 
	d="
M86.404831,82.586746 
	C86.004425,87.573830 85.278015,92.751183 84.017357,97.945610 
	C83.483116,97.962677 83.085869,97.821220 83.085869,97.821220 
	C84.083519,92.806488 85.081169,87.791748 86.404831,82.586746 
z"/>
<path fill="#F5F2E4" opacity="1.000000" stroke="none" 
	d="
M107.266098,117.014267 
	C105.515602,116.861153 104.020645,116.725075 102.401276,116.026199 
	C104.850166,114.641731 107.423485,113.820061 109.996796,112.998398 
	C109.589340,114.139503 109.181885,115.280624 108.649307,116.777451 
	C108.189995,117.099205 107.855820,117.065247 107.266098,117.014267 
z"/>
<path fill="#AFA17D" opacity="1.000000" stroke="none" 
	d="
M86.910805,115.210785 
	C89.296135,114.712288 91.607910,114.464859 94.117371,114.510559 
	C92.087387,115.201096 89.859711,115.598503 87.257515,115.989502 
	C86.867737,115.809349 86.852486,115.635597 86.910805,115.210785 
z"/>
<path fill="#F8F6EA" opacity="1.000000" stroke="none" 
	d="
M97.003899,63.940018 
	C94.635796,63.946293 92.267685,63.952568 89.457367,63.929962 
	C89.276657,63.435387 89.538177,62.969692 89.902481,62.256695 
	C91.718216,62.006592 93.431160,62.003792 95.814056,62.161255 
	C96.657310,62.861023 96.830605,63.400520 97.003899,63.940018 
z"/>
<path fill="#F5F2E4" opacity="1.000000" stroke="none" 
	d="
M83.052429,98.262894 
	C83.085869,97.821220 83.483116,97.962677 83.690292,97.999649 
	C83.942650,98.475945 83.987823,98.915276 84.115051,99.992889 
	C84.745491,101.540154 85.293884,102.449135 85.842270,103.358109 
	C85.842270,103.358109 85.824615,103.693840 85.888008,103.849442 
	C86.002991,104.441467 86.054573,104.877884 86.127213,105.644119 
	C81.229660,105.219109 83.617340,101.319138 83.052429,98.262894 
z"/>
<path fill="#F5F2E4" opacity="1.000000" stroke="none" 
	d="
M99.190308,122.921127 
	C100.958916,121.663544 103.153839,120.444649 105.674553,119.121597 
	C105.877060,123.577560 102.463928,122.810577 99.190308,122.921127 
z"/>
<path fill="#AFA17D" opacity="1.000000" stroke="none" 
	d="
M89.549141,77.760040 
	C89.451080,78.394402 89.049492,79.146126 88.295563,79.947418 
	C88.377350,79.290451 88.811485,78.583923 89.549141,77.760040 
z"/>
<path fill="#AD9B70" opacity="1.000000" stroke="none" 
	d="
M119.489937,113.053543 
	C117.345329,113.221039 115.469269,113.334763 113.417610,113.459129 
	C113.417610,112.061668 113.417610,110.718117 113.188171,108.784637 
	C113.971443,103.794563 114.984138,99.394409 116.272240,94.740189 
	C116.214760,92.317345 115.881874,90.148575 115.413940,87.599716 
	C115.177391,86.149323 115.075874,85.079010 115.232269,83.811127 
	C114.986115,82.745842 114.482040,81.878120 113.735588,80.803986 
	C113.259262,79.564140 113.025322,78.530716 112.846382,77.087524 
	C113.609245,75.091385 114.317108,73.505013 115.024963,71.918633 
	C115.578949,72.070923 116.132927,72.223221 116.890793,72.954765 
	C120.678314,77.039665 124.261971,80.545319 127.845619,84.050972 
	C128.249863,85.119003 128.654114,86.187035 128.754486,87.885895 
	C126.866920,95.651695 126.774605,103.288872 121.285721,109.108421 
	C120.757904,109.668022 121.087173,111.036011 121.018578,112.028732 
	C120.598549,112.352417 120.178520,112.676094 119.489937,113.053543 
z"/>
<path fill="#AEA280" opacity="1.000000" stroke="none" 
	d="
M121.323547,111.888779 
	C121.087173,111.036011 120.757904,109.668022 121.285721,109.108421 
	C126.774605,103.288872 126.866920,95.651695 128.740875,88.248917 
	C131.857056,97.552368 128.888611,105.318924 121.323547,111.888779 
z"/>
<path fill="#AEA280" opacity="1.000000" stroke="none" 
	d="
M127.854385,83.729919 
	C124.261971,80.545319 120.678314,77.039665 117.090607,73.166573 
	C119.501175,74.473930 121.915794,76.148727 124.614258,78.007706 
	C125.406517,79.028221 125.914940,79.864563 126.677620,80.862625 
	C127.242302,81.819176 127.552727,82.614021 127.854385,83.729919 
z"/>
<path fill="#FAFAF4" opacity="1.000000" stroke="none" 
	d="
M97.323837,64.062836 
	C96.830605,63.400520 96.657310,62.861023 96.242310,62.160675 
	C97.541519,61.472336 99.082420,60.944855 100.623329,60.417370 
	C101.314995,62.857056 106.676682,61.489464 104.855309,66.186409 
	C104.674301,66.542458 104.306923,66.598679 104.061249,66.142822 
	C102.841263,65.544792 101.866966,65.402618 100.892662,65.260445 
	C99.809700,64.902184 98.726730,64.543915 97.323837,64.062836 
z"/>
<path fill="#FCFCF9" opacity="1.000000" stroke="none" 
	d="
M115.996841,94.994255 
	C114.984138,99.394409 113.971443,103.794563 112.924484,108.586967 
	C112.098740,110.197517 111.307259,111.415810 110.256287,112.816254 
	C107.423485,113.820061 104.850166,114.641731 102.110687,115.795029 
	C100.894630,115.978271 99.844734,115.829880 98.422943,115.532654 
	C97.689972,113.480972 97.328903,111.578117 96.937973,109.288780 
	C96.908112,108.902290 96.923599,108.944382 97.302238,108.997940 
	C98.892395,109.322906 100.103920,109.594322 102.401772,110.109093 
	C101.830612,106.869431 101.400322,104.428825 100.970039,101.988220 
	C101.319870,98.621567 101.669701,95.254906 102.373131,91.384697 
	C102.256630,88.091576 101.400208,85.298851 101.423058,82.513329 
	C101.446793,79.620934 99.797569,79.983337 98.057823,79.980385 
	C97.335335,79.279327 96.612846,78.578270 95.599136,77.782135 
	C95.174667,77.338005 95.041428,76.988945 95.129219,76.183029 
	C95.568039,74.826065 95.785828,73.925964 96.003609,73.025864 
	C97.076683,72.639999 98.149757,72.254143 99.563126,71.827332 
	C103.067245,72.821609 106.231056,73.856834 110.048294,75.092941 
	C111.398262,76.028320 112.094818,76.762810 112.791382,77.497292 
	C113.025322,78.530716 113.259262,79.564140 113.729965,81.134369 
	C114.302612,82.450348 114.638489,83.229530 114.974358,84.008705 
	C115.075874,85.079010 115.177391,86.149323 115.328003,87.975113 
	C115.583679,90.818489 115.790260,92.906372 115.996841,94.994255 
z"/>
<path fill="#AEA280" opacity="1.000000" stroke="none" 
	d="
M112.846382,77.087524 
	C112.094818,76.762810 111.398262,76.028320 110.459106,75.105820 
	C109.676979,73.440697 109.137436,71.963570 108.373566,69.872276 
	C110.776718,70.486565 112.643044,70.963631 114.767166,71.679657 
	C114.317108,73.505013 113.609245,75.091385 112.846382,77.087524 
z"/>
<path fill="#AFA17D" opacity="1.000000" stroke="none" 
	d="
M85.886414,102.987274 
	C85.293884,102.449135 84.745491,101.540154 84.217957,100.308548 
	C84.802719,100.862762 85.366638,101.739601 85.886414,102.987274 
z"/>
<path fill="#F8F6EA" opacity="1.000000" stroke="none" 
	d="
M95.684578,73.094070 
	C95.785828,73.925964 95.568039,74.826065 95.044662,75.915421 
	C94.947899,75.123871 95.156723,74.143074 95.684578,73.094070 
z"/>
<path fill="#F8F6EA" opacity="1.000000" stroke="none" 
	d="
M101.139229,65.493546 
	C101.866966,65.402618 102.841263,65.544792 103.922302,66.019424 
	C103.147964,66.143471 102.266876,65.935059 101.139229,65.493546 
z"/>
<path fill="#F5F2E4" opacity="1.000000" stroke="none" 
	d="
M100.722504,102.210510 
	C101.400322,104.428825 101.830612,106.869431 102.401772,110.109093 
	C100.103920,109.594322 98.892395,109.322906 97.294159,108.987656 
	C98.096619,106.760147 99.285789,104.596474 100.722504,102.210510 
z"/>
<path fill="#F5F2E4" opacity="1.000000" stroke="none" 
	d="
M98.160767,80.318726 
	C99.797569,79.983337 101.446793,79.620934 101.423058,82.513329 
	C101.400208,85.298851 102.256630,88.091576 102.397736,90.946472 
	C100.800400,87.560219 99.532059,84.108643 98.160767,80.318726 
z"/>
<path fill="#AEA280" opacity="1.000000" stroke="none" 
	d="
M116.272247,94.740189 
	C115.790260,92.906372 115.583679,90.818489 115.463043,88.355202 
	C115.881874,90.148575 116.214760,92.317345 116.272247,94.740189 
z"/>
<path fill="#AEA280" opacity="1.000000" stroke="none" 
	d="
M115.232269,83.811127 
	C114.638489,83.229530 114.302612,82.450348 113.972351,81.340790 
	C114.482040,81.878120 114.986115,82.745842 115.232269,83.811127 
z"/>
</svg>